SplineFontDB: 2.0
FontName: Isabelle
FullName: Isabelle
FamilyName: Isabelle
Weight: Medium
Copyright: 
Version: 001.000
ItalicAngle: 0
UnderlinePosition: -100
UnderlineWidth: 50
Ascent: 800
Descent: 200
NeedsXUIDChange: 1
XUID: [1021 151 411138958 16034613]
FSType: 8
OS2Version: 0
OS2_WeightWidthSlopeOnly: 0
OS2_UseTypoMetrics: 0
CreationTime: 1092579958
ModificationTime: 1218806294
PfmFamily: 17
TTFWeight: 500
TTFWidth: 5
LineGap: 90
VLineGap: 0
Panose: 2 0 6 3 0 0 0 0 0 0
OS2TypoAscent: 0
OS2TypoAOffset: 1
OS2TypoDescent: 0
OS2TypoDOffset: 1
OS2TypoLinegap: 0
OS2WinAscent: 0
OS2WinAOffset: 1
OS2WinDescent: 0
OS2WinDOffset: 1
HheadAscent: 0
HheadAOffset: 1
HheadDescent: 0
HheadDOffset: 1
OS2Vendor: 'PfEd'
Lookup: 4 0 1 "'liga' Standard Ligatures lookup 0"  {"'liga' Standard Ligatures lookup 0 subtable"  } ['liga' ('DFLT' <'dflt' > ) ]
Lookup: 4 0 1 "'liga' Standard Ligatures in Latin lookup 1"  {"'liga' Standard Ligatures in Latin lookup 1 subtable"  } ['liga' ('latn' <'dflt' > ) ]
DEI: 0
Encoding: UnicodeFull
UnicodeInterp: none
NameList: Adobe Glyph List
DisplaySize: -48
AntiAlias: 1
FitToEm: 1
WinInfo: 120736 16 14
BeginPrivate: 8
BlueValues 31 [-22 0 683 705 431 448 666 677]
OtherBlues 11 [-206 -194]
StdHW 4 [31]
StdVW 4 [69]
StemSnapH 7 [22 31]
StemSnapV 7 [69 89]
BlueScale 7 0.04379
ForceBold 5 false
EndPrivate
TeXData: 1 0 0 349175 174587 116391 451936 1048576 116391 783286 444596 497025 792723 393216 433062 380633 303038 157286 324010 404750 52429 2506097 1059062 262144
BeginChars: 1114112 402
StartChar: minute
Encoding: 8242 8242 1
Width: 247
Flags: W
Fore
27 486 m 1
 129 696 l 2
 143 725 154 735 172 735 c 0
 201 735 228 713 228 689 c 0
 228 675 223 666 208 649 c 1
 42 476 l 1
 27 486 l 1
EndSplineSet
EndChar
StartChar: lessequal
Encoding: 8804 8804 2
Width: 777
Flags: W
HStem: -137 40<100 678>
DStem: 102 325 150 346 657 63 675 98 658 630 676 595 102 368 150 346
Fore
676 595 m 2
 150 346 l 1
 675 98 l 2
 687 92 694 89 694 77 c 0
 694 66 685 57 674 57 c 0
 670 57 668 57 657 63 c 2
 102 325 l 2
 93 329 83 334 83 346 c 0
 83 359 92 363 102 368 c 2
 658 630 l 2
 669 636 671 636 674 636 c 0
 685 636 694 627 694 616 c 0
 694 603 686 599 676 595 c 2
661 -137 m 2
 116 -137 l 2
 102 -137 83 -137 83 -117 c 0
 83 -97 103 -97 117 -97 c 2
 660 -97 l 2
 675 -97 694 -97 694 -117 c 0
 694 -137 675 -137 661 -137 c 2
EndSplineSet
EndChar
StartChar: fraction
Encoding: 8260 8260 3
Width: 500
Flags: W
DStem: 402 730 438 712 61 -212 97 -230
Fore
438 712 m 2
 97 -230 l 1
 94 -240 90 -250 76 -250 c 0
 65 -250 56 -241 56 -230 c 0
 56 -228 56 -225 61 -212 c 2
 402 730 l 1
 405 740 409 750 423 750 c 0
 434 750 443 741 443 730 c 0
 443 728 443 725 438 712 c 2
EndSplineSet
EndChar
StartChar: infinity
Encoding: 8734 8734 4
Width: 1000
Flags: W
HStem: -11 32<230 251> -11 48<750 769> 410 32<743 769>
VStem: 56 22<215 230> 921 22<216 237>
Fore
508 272 m 1xb8
 521 294 610 442 754 442 c 0
 873 442 943 327 943 216 c 0
 943 98 867 -11 751 -11 c 0x78
 672 -11 613 31 581 58 c 0
 559 77 558 78 491 159 c 1
 478 137 389 -11 245 -11 c 0
 126 -11 56 104 56 215 c 0
 56 333 132 442 248 442 c 0
 327 442 386 400 418 373 c 0
 440 354 441 353 508 272 c 1xb8
534 237 m 1
 562 203 607 140 635 109 c 0
 680 60 721 37 767 37 c 0
 851 37 921 116 921 216 c 0
 921 306 867 410 761 410 c 0
 648 410 572 305 534 237 c 1
465 194 m 1
 437 228 392 291 364 322 c 0
 319 371 278 394 232 394 c 0
 148 394 78 315 78 215 c 0
 78 125 132 21 238 21 c 0xb8
 351 21 427 126 465 194 c 1
EndSplineSet
EndChar
StartChar: florin
Encoding: 402 402 5
Width: 500
Flags: W
HStem: -174 26<84 99> 390 32<115 214 307 422> 661 26<394 406>
VStem: 2 88<-108 -94> 404 90<612 624>
Fore
116 422 m 1
 219 422 l 1
 253 606 309 687 406 687 c 0
 456 687 494 660 494 624 c 0
 494 596 473 575 445 575 c 0
 421 575 404 590 404 612 c 0
 404 620 405 623 414 641 c 0
 415 643 416 646 416 648 c 0
 416 656 408 661 396 661 c 0
 373 661 354 645 341 614 c 0
 329 586 325 562 307 422 c 1
 432 422 l 1
 422 390 l 1
 303 390 l 1
 276 156 266 98 239 3 c 0
 204 -119 156 -174 84 -174 c 0
 37 -174 2 -146 2 -108 c 0
 2 -80 23 -59 52 -59 c 0
 74 -59 90 -74 90 -94 c 0
 90 -106 88 -111 78 -128 c 0
 76 -131 75 -134 75 -137 c 0
 75 -144 82 -148 93 -148 c 0
 110 -148 128 -137 140 -119 c 0
 161 -85 170 -37 183 112 c 0
 193 217 202 302 214 390 c 1
 106 390 l 1
 116 422 l 1
EndSplineSet
EndChar
StartChar: club
Encoding: 9827 9827 6
Width: 777
Flags: W
HStem: -22 21G<149 220 558 629>
VStem: 341 96<-110 -108>
Fore
490 371 m 1
 512 326 l 1
 526 343 556 368 604 368 c 0
 698 368 750 270 750 174 c 0
 750 68 679 -22 579 -22 c 0
 537 -22 461 -3 459 70 c 1
 409 70 l 1
 409 36 411 -18 433 -93 c 0
 437 -106 437 -108 437 -110 c 0
 437 -130 418 -130 404 -130 c 2
 374 -130 l 2
 360 -130 341 -130 341 -110 c 0
 341 -108 341 -106 344 -99 c 0
 364 -28 368 17 369 70 c 1
 319 70 l 1
 317 -3 241 -22 199 -22 c 0
 99 -22 28 68 28 174 c 0
 28 270 80 368 174 368 c 0
 222 368 253 342 267 326 c 1
 288 372 l 1
 240 409 212 470 212 532 c 0
 212 636 288 727 389 727 c 0
 489 727 566 637 566 532 c 0
 566 467 536 408 490 371 c 1
EndSplineSet
EndChar
StartChar: spade
Encoding: 9824 9824 7
Width: 777
Flags: W
HStem: -22 21G<129.5 194 577 647.5>
VStem: 341 96<-110 -108>
Fore
404 -130 m 2
 374 -130 l 2
 360 -130 341 -130 341 -110 c 0
 341 -108 341 -106 344 -99 c 0
 364 -28 368 17 369 70 c 1
 319 70 l 1
 314 -22 198 -22 190 -22 c 0
 69 -22 56 133 56 203 c 0
 56 330 141 414 234 499 c 0
 307 565 340 635 369 710 c 0
 371 716 375 727 389 727 c 0
 403 727 406 718 411 705 c 0
 463 573 509 530 560 483 c 0
 653 398 722 318 722 203 c 0
 722 129 707 -22 588 -22 c 0
 566 -22 463 -15 459 70 c 1
 409 70 l 1
 409 36 411 -18 433 -93 c 0
 437 -106 437 -108 437 -110 c 0
 437 -130 418 -130 404 -130 c 2
EndSplineSet
EndChar
StartChar: arrowup
Encoding: 8593 8593 8
Width: 500
Flags: W
HStem: -194 21G<240 260> 673 20G<246.5 253.5>
VStem: 230 40<-177.745 609>
Fore
270 609 m 1
 270 -161 l 2
 270 -176 270 -194 250 -194 c 0
 230 -194 230 -176 230 -161 c 2
 230 609 l 1
 170 530 89 501 84 501 c 0
 74 501 72 510 72 516 c 0
 72 528 76 530 83 533 c 0
 147 560 199 600 237 681 c 0
 241 688 243 693 250 693 c 0
 257 693 259 690 263 681 c 0
 310 579 384 547 418 532 c 0
 425 529 428 526 428 516 c 0
 428 510 426 501 416 501 c 0
 410 501 329 531 270 609 c 1
EndSplineSet
EndChar
StartChar: arrowright
Encoding: 8594 8594 9
Width: 1000
Flags: W
HStem: 230 40<72.255 857>
Fore
858 230 m 1
 89 230 l 2
 74 230 56 230 56 250 c 0
 56 270 74 270 89 270 c 2
 858 270 l 1
 783 325 750 408 750 416 c 0
 750 425 758 428 765 428 c 0
 776 428 778 423 782 414 c 0
 823 322 881 285 935 260 c 0
 936 260 942 257 942 250 c 0
 942 243 940 242 928 236 c 0
 828 189 796 116 781 82 c 0
 779 78 777 72 765 72 c 0
 758 72 750 75 750 84 c 0
 750 92 783 175 858 230 c 1
EndSplineSet
Ligature2: "'liga' Standard Ligatures in Latin lookup 1 subtable" f f
EndChar
StartChar: arrowdown
Encoding: 8595 8595 10
Width: 500
Flags: W
HStem: -193 21G<246.5 252> -21 20G<79 87 413.5 421> 674 20G<240 260>
VStem: 230 40<-109 672>
Fore
270 661 m 2
 270 -109 l 1
 330 -30 411 -1 416 -1 c 0
 426 -1 428 -10 428 -16 c 0
 428 -28 424 -30 417 -33 c 0
 324 -73 287 -129 260 -187 c 0
 258 -192 254 -193 250 -193 c 0
 243 -193 241 -188 237 -181 c 0
 192 -86 131 -54 82 -32 c 0
 75 -29 72 -26 72 -16 c 0
 72 -10 74 -1 84 -1 c 0
 90 -1 171 -31 230 -109 c 1
 230 661 l 2
 230 676 230 694 250 694 c 0
 270 694 270 676 270 661 c 2
EndSplineSet
Ligature2: "'liga' Standard Ligatures in Latin lookup 1 subtable" f i
EndChar
StartChar: degree
Encoding: 176 176 11
Width: 400
Flags: W
HStem: 380 57<200 211> 629 57<193 211>
VStem: 50 56<523 541> 293 57<533 541>
Fore
203 686 m 0
 286 686 350 619 350 533 c 0
 350 447 284 380 200 380 c 0
 116 380 50 448 50 534 c 0
 50 619 118 686 203 686 c 0
202 629 m 0
 148 629 106 586 106 533 c 0
 106 480 149 437 200 437 c 0
 252 437 293 479 293 533 c 0
 293 586 252 629 202 629 c 0
EndSplineSet
LCarets2: 1 0 
Ligature2: "'liga' Standard Ligatures in Latin lookup 1 subtable" f l
EndChar
StartChar: plusminus
Encoding: 177 177 12
Width: 777
Flags: W
HStem: 0 40<72.6953 369 409 697> 313 40<72.6953 369 409 697> 646 20G<379 399>
VStem: 369 40<39 313 352 641>
Fore
409 313 m 1
 409 40 l 1
 688 40 l 2
 702 40 721 40 721 20 c 0
 721 0 702 0 688 0 c 2
 89 0 l 2
 75 0 56 0 56 20 c 0
 56 40 75 40 89 40 c 2
 369 40 l 1
 369 313 l 1
 89 313 l 2
 75 313 56 313 56 333 c 0
 56 353 75 353 89 353 c 2
 369 353 l 1
 369 634 l 2
 369 648 369 666 389 666 c 0
 409 666 409 645 409 630 c 2
 409 353 l 1
 688 353 l 2
 702 353 721 353 721 333 c 0
 721 313 702 313 688 313 c 2
 409 313 l 1
EndSplineSet
Ligature2: "'liga' Standard Ligatures in Latin lookup 1 subtable" ff i
Ligature2: "'liga' Standard Ligatures in Latin lookup 1 subtable" f f i
EndChar
StartChar: second
Encoding: 8243 8243 13
Width: 411
Flags: W
Fore
20 486 m 1
 122 696 l 2
 136 725 147 735 165 735 c 0
 194 735 221 713 221 689 c 0
 221 675 216 666 201 649 c 1
 35 476 l 1
 20 486 l 1
212 486 m 1
 314 696 l 2
 328 725 339 735 357 735 c 0
 386 735 413 713 413 689 c 0
 413 675 408 666 393 649 c 1
 227 476 l 1
 212 486 l 1
EndSplineSet
Ligature2: "'liga' Standard Ligatures in Latin lookup 1 subtable" ff l
Ligature2: "'liga' Standard Ligatures in Latin lookup 1 subtable" f f l
EndChar
StartChar: greaterequal
Encoding: 8805 8805 14
Width: 777
Flags: W
HStem: -137 40<100 677>
DStem: 102 595 121 629 627 347 675 368 627 347 675 325 101 98 120 63
Fore
675 325 m 2
 120 63 l 2
 109 57 107 57 103 57 c 0
 92 57 83 66 83 77 c 0
 83 90 92 94 101 98 c 2
 627 347 l 1
 102 595 l 2
 89 601 83 604 83 616 c 0
 83 627 92 636 103 636 c 0
 106 636 108 636 121 629 c 2
 675 368 l 2
 685 363 694 359 694 346 c 0
 694 334 684 329 675 325 c 2
661 -137 m 2
 116 -137 l 2
 102 -137 83 -137 83 -117 c 0
 83 -97 103 -97 117 -97 c 2
 660 -97 l 2
 675 -97 694 -97 694 -117 c 0
 694 -137 675 -137 661 -137 c 2
EndSplineSet
EndChar
StartChar: multiply
Encoding: 215 215 15
Width: 777
Flags: W
DStem: 160 450 188 478 588 22 617 50 589 478 617 450 160 51 188 22
Fore
418 250 m 1
 617 50 l 2
 628 39 630 37 630 29 c 0
 630 18 622 9 610 9 c 0
 604 9 598 12 588 22 c 2
 388 222 l 1
 188 22 l 2
 177 11 175 9 167 9 c 0
 157 9 147 18 147 29 c 0
 147 35 150 41 160 51 c 2
 359 250 l 1
 160 450 l 2
 151 459 147 463 147 471 c 0
 147 482 157 491 167 491 c 0
 175 491 177 489 188 478 c 2
 389 278 l 1
 589 478 l 2
 598 487 602 491 610 491 c 0
 621 491 630 482 630 471 c 0
 630 463 628 461 617 450 c 2
 418 250 l 1
EndSplineSet
EndChar
StartChar: proportional
Encoding: 8733 8733 16
Width: 777
Flags: W
HStem: -11 29<215 232> -11 41<684 699> 413 29<679 701>
VStem: 56 22<215 237>
Fore
485 235 m 1xb0
 528 170 l 1
 565 112 618 30 699 30 c 0
 704 30 716 32 722 33 c 1
 722 -7 l 1
 721 -7 705 -11 686 -11 c 0x70
 564 -11 496 94 453 161 c 1
 418 87 342 -11 228 -11 c 0
 115 -11 56 106 56 215 c 0
 56 331 121 442 230 442 c 0
 352 442 420 337 463 270 c 1
 498 344 574 442 688 442 c 0
 691 442 710 442 719 439 c 1
 721 437 722 436 722 410 c 1
 711 413 700 413 695 413 c 0
 583 413 515 302 485 235 c 1xb0
431 196 m 1
 388 261 l 1
 351 319 298 401 217 401 c 0
 135 401 78 315 78 215 c 0
 78 122 125 18 221 18 c 0xb0
 333 18 401 129 431 196 c 1
EndSplineSet
EndChar
StartChar: partialdiff
Encoding: 8706 8706 17
Width: 530
Flags: W
HStem: -22 28<215 233> 435 22<334 352> 523 88<197 206> 691 25<332 361>
VStem: 40 77<119 156> 159 92<558 576> 491 75<457 510>
Fore
463 339 m 1
 464 339 l 1
 485 420 491 471 491 510 c 0
 491 639 421 691 348 691 c 0
 319 691 248 685 204 611 c 1
 220 611 251 611 251 576 c 0
 251 553 230 523 197 523 c 0
 167 523 159 544 159 558 c 0
 159 586 205 716 350 716 c 0
 473 716 566 616 566 457 c 0
 566 314 462 -22 224 -22 c 0
 84 -22 40 94 40 156 c 0
 40 187 47 280 130 363 c 0
 208 441 273 457 334 457 c 0
 412 457 453 401 463 339 c 1
227 6 m 0
 381 6 445 231 445 303 c 0
 445 323 443 435 334 435 c 0
 272 435 223 403 183 346 c 0
 142 286 117 146 117 119 c 0
 117 109 117 6 227 6 c 0
EndSplineSet
Ligature2: "'liga' Standard Ligatures lookup 0 subtable" space acutecomb
EndChar
StartChar: bullet
Encoding: 8226 8226 18
Width: 500
Flags: W
HStem: 424 20G<195.5 302.5>
Fore
443 250 m 0
 443 145 358 56 249 56 c 0
 144 56 56 143 56 250 c 0
 56 355 141 444 250 444 c 0
 355 444 443 357 443 250 c 0
EndSplineSet
EndChar
StartChar: divide
Encoding: 247 247 19
Width: 777
Flags: W
HStem: -30 128<378.065 392> 230 40<72.6953 697> 402 128<378.065 392>
VStem: 325 128<22.9763 37 454.976 469>
CounterMasks: 1 00
Fore
453 466 m 0
 453 430 423 402 389 402 c 0
 355 402 325 431 325 466 c 0
 325 502 355 530 389 530 c 0
 423 530 453 501 453 466 c 0
453 34 m 0
 453 -2 423 -30 389 -30 c 0
 355 -30 325 -1 325 34 c 0
 325 70 355 98 389 98 c 0
 423 98 453 69 453 34 c 0
89 270 m 2
 689 270 l 2
 703 270 722 270 722 250 c 0
 722 230 703 230 689 230 c 2
 89 230 l 2
 75 230 56 230 56 250 c 0
 56 270 75 270 89 270 c 2
EndSplineSet
Ligature2: "'liga' Standard Ligatures lookup 0 subtable" space uni0306
EndChar
StartChar: notequal
Encoding: 8800 8800 20
Width: 777
Flags: W
HStem: 133 40<72.943 297 90 697> 327 40<72.943 393 89 697>
DStem: 596 698 631 678 146 -178 181 -198
Fore
631 678 m 6
 181 -198 l 6
 175 -210 169 -216 159 -216 c 4
 145 -216 139 -203 139 -196 c 4
 139 -192 140 -190 146 -178 c 6
 596 698 l 6
 602 710 608 716 618 716 c 4
 632 716 638 703 638 696 c 4
 638 692 637 690 631 678 c 6
687 327 m 2
 90 327 l 2
 75 327 56 327 56 347 c 0
 56 367 75 367 89 367 c 2
 688 367 l 2
 702 367 721 367 721 347 c 0
 721 327 702 327 687 327 c 2
688 133 m 2
 89 133 l 2
 75 133 56 133 56 153 c 0
 56 173 75 173 90 173 c 2
 687 173 l 2
 702 173 721 173 721 153 c 0
 721 133 702 133 688 133 c 2
EndSplineSet
EndChar
StartChar: equivalence
Encoding: 8801 8801 21
Width: 777
Flags: W
HStem: 36 40<72.943 697> 230 40<72.6953 697> 424 40<72.943 697>
CounterMasks: 1 00
Fore
687 424 m 2
 90 424 l 2
 75 424 56 424 56 444 c 0
 56 464 75 464 89 464 c 2
 688 464 l 2
 702 464 721 464 721 444 c 0
 721 424 702 424 687 424 c 2
688 36 m 2
 89 36 l 2
 75 36 56 36 56 56 c 0
 56 76 75 76 90 76 c 2
 687 76 l 2
 702 76 721 76 721 56 c 0
 721 36 702 36 688 36 c 2
688 230 m 2
 89 230 l 2
 75 230 56 230 56 250 c 0
 56 270 75 270 89 270 c 2
 688 270 l 2
 702 270 721 270 721 250 c 0
 721 230 702 230 688 230 c 2
EndSplineSet
LCarets2: 1 0 
Ligature2: "'liga' Standard Ligatures lookup 0 subtable" space uni030A
EndChar
StartChar: approxequal
Encoding: 8776 8776 22
Width: 777
Flags: W
HStem: 56 56<536.126 569> 194 56<222 233> 289 56<536.126 569> 427 56<222 233>
VStem: 56 28<78 87 311 320>
Fore
721 452 m 0
 721 359 647 289 555 289 c 0
 491 289 438 324 395 352 c 0
 327 397 282 427 222 427 c 0
 172 427 89 397 84 313 c 0
 84 308 81 290 70 290 c 0
 63 290 56 298 56 320 c 0
 56 413 130 483 222 483 c 0
 286 483 339 448 382 420 c 0
 450 375 495 345 555 345 c 0
 619 345 689 387 693 455 c 0
 694 465 697 482 707 482 c 0
 714 482 721 473 721 452 c 0
721 218 m 0
 721 129 649 56 555 56 c 0
 491 56 438 91 395 119 c 0
 327 164 282 194 222 194 c 0
 172 194 89 164 84 80 c 0
 84 75 81 57 70 57 c 0
 63 57 56 65 56 87 c 0
 56 180 130 250 222 250 c 0
 286 250 339 215 382 187 c 0
 450 142 495 112 555 112 c 0
 626 112 688 160 693 217 c 0
 694 232 696 249 707 249 c 0
 714 249 721 239 721 218 c 0
EndSplineSet
LCarets2: 1 0 
Ligature2: "'liga' Standard Ligatures lookup 0 subtable" space uni0327
EndChar
StartChar: ellipsis
Encoding: 8230 8230 23
Width: 1000
Flags: W
HStem: -13 21G<151.5 182.5 484.5 515.5 817.5 848.5>
VStem: 111 112<44 52> 444 112<44 52> 777 112<44 52>
CounterMasks: 1 00
Fore
168 100 m 0
 197 100 223 74 223 44 c 0
 223 13 198 -13 167 -13 c 0
 136 -13 111 13 111 44 c 0
 111 75 137 100 168 100 c 0
501 100 m 0
 530 100 556 74 556 44 c 0
 556 13 531 -13 500 -13 c 0
 469 -13 444 13 444 44 c 0
 444 75 470 100 501 100 c 0
834 100 m 0
 863 100 889 74 889 44 c 0
 889 13 864 -13 833 -13 c 0
 802 -13 777 13 777 44 c 0
 777 75 803 100 834 100 c 0
EndSplineSet
EndChar
StartChar: uniF8E6
Encoding: 63718 63718 24
Width: 603
Flags: W
VStem: 280 56<-120 1010>
Fore
336 1010 m 1
 336 -120 l 1
 280 -120 l 1
 280 1010 l 1
 336 1010 l 1
EndSplineSet
EndChar
StartChar: uniF8E7
Encoding: 63719 63719 25
Width: 1000
Flags: W
HStem: 220 56<-60 1050>
Fore
-60 220 m 1
 -60 276 l 1
 1050 276 l 1
 1050 220 l 1
 -60 220 l 1
EndSplineSet
EndChar
StartChar: carriagereturn
Encoding: 8629 8629 26
Width: 658
Flags: W
HStem: 68 56<184 602>
VStem: 547 55<124 629>
Fore
602 68 m 1
 185 68 l 1
 185 -16 l 1
 15 96 l 1
 185 208 l 1
 185 124 l 1
 547 124 l 1
 547 629 l 1
 602 629 l 1
 602 68 l 1
EndSplineSet
EndChar
StartChar: aleph
Encoding: 8501 8501 27
Width: 611
Flags: W
HStem: 0 22<70 81> 673 20G<79.5 86.5 411.5 416>
VStem: 83 67<237 257> 143 97<50.9253 67> 518 36<14 64>
DStem: 187 436 137 587 473 107 417 265
Fore
137 587 m 2xe8
 417 265 l 1
 420 293 428 341 434 376 c 0
 437 391 452 474 455 522 c 1
 388 586 388 609 388 630 c 0
 388 681 409 693 414 693 c 0
 418 693 421 691 423 688 c 0
 428 672 431 664 465 611 c 0
 486 577 488 575 518 548 c 0
 554 514 554 491 554 474 c 0
 554 420 533 410 528 410 c 0
 520 410 519 417 518 422 c 0
 517 436 515 457 484 493 c 1
 480 455 467 386 464 367 c 0
 447 275 446 242 446 239 c 0
 446 232 446 230 461 213 c 0
 554 108 554 92 554 64 c 0
 554 13 533 1 528 1 c 0
 519 1 518 9 518 14 c 0
 517 26 515 59 473 107 c 2
 187 436 l 1
 154 367 150 279 150 248 c 0xe8
 150 213 155 201 196 151 c 0
 215 128 240 97 240 60 c 0
 240 10 187 0 141 0 c 2
 81 0 l 2
 64 0 56 0 56 11 c 0
 56 22 63 22 72 22 c 0
 143 24 143 50 143 61 c 0xd8
 143 82 135 105 115 142 c 0
 88 192 83 215 83 241 c 0
 83 326 133 415 164 461 c 1
 115 522 126 505 103 534 c 0
 56 594 56 609 56 630 c 0
 56 681 77 693 82 693 c 0
 91 693 92 685 92 680 c 0
 93 668 95 635 137 587 c 2xe8
EndSplineSet
EndChar
StartChar: Ifraktur
Encoding: 8465 8465 28
Width: 722
Flags: W
HStem: -11 23<415 425> 409 22<570 584> 475 22<572 584> 683 22<263 281>
VStem: 56 31<515 517> 449 83<308 327> 541 83<139 150>
Fore
287 336 m 0
 287 325 279 325 270 325 c 0
 179 325 56 391 56 515 c 0
 56 624 155 705 273 705 c 0
 369 705 479 654 542 538 c 0
 559 505 563 497 582 497 c 0
 586 497 654 497 662 546 c 0
 663 554 665 558 677 558 c 0
 684 558 693 558 693 545 c 0
 693 504 644 475 580 475 c 0
 495 475 447 535 406 587 c 0
 363 642 330 683 270 683 c 0
 176 683 87 613 87 515 c 0
 87 436 151 354 271 347 c 0
 280 346 287 346 287 336 c 0
81 183 m 2
 124 183 l 2
 193 183 235 150 300 88 c 0
 362 30 402 12 419 12 c 0
 442 12 541 49 541 139 c 0
 541 168 525 190 498 220 c 0
 463 259 449 283 449 316 c 0
 449 382 509 431 578 431 c 0
 646 431 693 385 693 340 c 0
 693 329 688 326 677 326 c 0
 667 326 663 329 662 337 c 0
 654 409 582 409 580 409 c 0
 536 409 532 344 532 320 c 0
 532 300 532 283 570 240 c 0
 598 208 624 179 624 139 c 0
 624 132 624 77 573 33 c 0
 521 -11 468 -11 417 -11 c 0
 340 -11 316 -11 215 81 c 0
 165 126 126 156 76 161 c 0
 61 162 56 162 56 172 c 0
 56 183 64 183 81 183 c 2
EndSplineSet
EndChar
StartChar: Rfraktur
Encoding: 8476 8476 29
Width: 722
Flags: W
HStem: -22 22<189 196> 94 27<98 110> 243 22<107 123> 345 31<342 457> 678 38<487 549> 683 22<157 175>
VStem: 63 27<114 118> 162 32<374 398> 260 83<209 344 209 475> 467 87<93 105.835 93 127>
DStem: 496 668 572 703 624 439 708 459 640 46 685 44 596 11 617 -8
Fore
572 703 m 2xfbc0
 708 459 l 2
 714 448 714 446 714 445 c 0
 714 439 712 437 706 434 c 0
 589 366 563 358 541 352 c 1
 544 306 554 164 554 127 c 0
 554 116 550 108 550 93 c 0
 550 51 576 23 596 11 c 1
 640 46 l 2
 654 58 679 77 683 77 c 0
 685 77 702 72 702 62 c 0
 702 59 701 58 685 44 c 1
 662 27 640 9 617 -8 c 0
 598 -22 596 -22 583 -22 c 0
 516 -22 467 31 467 93 c 0
 467 111 471 118 471 127 c 0
 471 133 462 285 461 305 c 0
 460 319 459 343 457 344 c 0
 455 345 453 345 440 345 c 2
 343 345 l 1
 343 246 l 2
 343 117 285 -22 194 -22 c 0
 116 -22 84 62 75 85 c 1
 70 83 64 81 58 78 c 1
 51 79 46 84 46 90 c 0
 46 98 63 105 67 105 c 1
 66 108 63 115 63 118 c 0
 63 123 70 131 76 131 c 0
 83 131 90 119 90 114 c 1
 94 116 106 121 110 121 c 0
 115 121 121 115 121 110 c 0
 121 102 102 94 98 94 c 1
 127 13 169 0 193 0 c 0
 260 0 260 189 260 209 c 2
 260 476 l 2
 260 621 212 683 166 683 c 0
 118 683 86 634 86 587 c 0
 86 575 87 558 123 527 c 1
 194 462 194 419 194 394 c 0
 194 369 194 243 114 243 c 0
 57 243 56 320 56 321 c 0
 56 328 57 336 69 336 c 0
 80 336 81 328 81 321 c 0
 82 303 87 265 113 265 c 0
 154 265 162 316 162 383 c 0
 162 420 162 437 109 491 c 0
 80 520 56 546 56 585 c 0
 56 643 99 705 167 705 c 0xf7c0
 228 705 278 658 308 602 c 1
 367 700 505 716 549 716 c 0
 562 716 565 716 572 703 c 2xfbc0
624 439 m 1
 496 668 l 2
 491 677 490 678 487 678 c 0xfbc0
 483 678 356 657 324 563 c 1
 343 507 343 460 343 447 c 2
 343 376 l 1
 490 376 l 2
 508 376 526 376 570 396 c 0
 580 400 630 424 630 428 c 0
 630 429 629 429 624 439 c 1
EndSplineSet
EndChar
StartChar: weierstrass
Encoding: 8472 8472 30
Width: 636
Flags: W
HStem: -216 22<142 152> -11 22<379 397> -11 129<326 389> 388 22<475 493>
VStem: 76 25<-135 -119> 83 46<185 213> 227 47<-80 -51> 298 25<71 75> 298 48<74 100> 557 61<259 291>
Fore
169 122 m 1xd340
 182 104 217 61 230 43 c 0
 265 -1 274 -13 274 -51 c 0
 274 -130 209 -216 142 -216 c 0
 92 -216 76 -178 76 -135 c 0xdb40
 76 -89 100 15 124 78 c 1
 99 108 83 127 83 185 c 0
 83 316 174 453 246 453 c 0
 249 453 259 453 259 443 c 0
 259 433 252 432 245 431 c 0
 184 421 129 299 129 213 c 0
 129 199 129 168 152 144 c 1
 264 364 403 410 486 410 c 0
 574 410 618 337 618 259 c 0
 618 125 501 -11 389 -11 c 0
 332 -11 298 28 298 74 c 0xd740
 298 90 302 118 326 118 c 0
 344 118 346 102 346 100 c 0xb2c0
 346 98 346 80 323 75 c 1
 324 22 365 11 388 11 c 0
 419 11 468 32 509 105 c 0
 532 147 557 240 557 291 c 0
 557 340 539 388 484 388 c 0
 419 388 276 353 169 122 c 1xd340
215 -39 m 1
 141 55 l 1
 127 8 101 -83 101 -135 c 0
 101 -155 101 -194 142 -194 c 0
 184 -194 227 -137 227 -80 c 0
 227 -65 225 -54 215 -39 c 1
EndSplineSet
EndChar
StartChar: exclam
Encoding: 33 33 31
Width: 277
Flags: MW
HStem: 0 106<124.5 153.5> 187 21<133 144> 696 20<126 152>
VStem: 86 106<38.5 67.5 665 681.5>
Fore
192 665 m 1
 153 209 l 1
 152 192 149 187 139 187 c 0
 127 187 126 195 125 210 c 1
 86 665 l 1
 86 698 113 716 139 716 c 0
 165 716 192 698 192 665 c 1
192 53 m 0
 192 24 168 0 139 0 c 0
 110 0 86 24 86 53 c 0
 86 82 110 106 139 106 c 0
 168 106 192 82 192 53 c 0
EndSplineSet
EndChar
StartChar: universal
Encoding: 8704 8704 32
Width: 555
Flags: HMW
HStem: -22 21<271 284.5> 411 40<142 142 142 414> 674 20
VStem: 0 556<673.5 679.5>
Fore
551 656 m 1
 299 -2 l 2
 295 -13 291 -22 278 -22 c 0
 264 -22 261 -13 256 0 c 2
 5 657 l 1
 0 669 0 672 0 674 c 0
 0 685 10 694 20 694 c 0
 34 694 37 685 42 672 c 2
 126 451 l 1
 430 451 l 1
 515 674 l 2
 519 684 523 694 536 694 c 0
 548 694 556 685 556 674 c 0
 556 673 556 668 551 656 c 1
142 411 m 1
 278 55 l 1
 414 411 l 1
 142 411 l 1
EndSplineSet
EndChar
StartChar: numbersign
Encoding: 35 35 33
Width: 833
Flags: MW
HStem: -194 21<181.5 195 410.5 424> 133 40<82 261 90 249 302 478 90 290 531 742 742 743> 327 40<89 90 90 301 89 342 354 530 583 742> 674 20<408 421.5 637 650.5>
VStem: 56 720<143 163 337 357>
Fore
519 133 m 1
 438 -170 l 2
 435 -181 432 -194 416 -194 c 0
 405 -194 396 -185 396 -174 c 0
 396 -170 399 -158 400 -156 c 2
 478 133 l 1
 290 133 l 1
 209 -170 l 2
 206 -181 203 -194 187 -194 c 0
 176 -194 167 -185 167 -174 c 0
 167 -170 170 -158 171 -156 c 2
 249 133 l 1
 89 133 l 2
 75 133 56 133 56 153 c 0
 56 173 75 173 90 173 c 2
 261 173 l 1
 301 327 l 1
 90 327 l 2
 75 327 56 327 56 347 c 0
 56 367 75 367 89 367 c 2
 313 367 l 1
 394 670 l 2
 397 681 400 694 416 694 c 0
 427 694 436 685 436 674 c 0
 436 670 433 658 432 656 c 2
 354 367 l 1
 542 367 l 1
 623 670 l 2
 626 681 629 694 645 694 c 0
 656 694 665 685 665 674 c 0
 665 670 662 658 661 656 c 2
 583 367 l 1
 743 367 l 2
 757 367 776 367 776 347 c 0
 776 327 757 327 742 327 c 2
 571 327 l 1
 531 173 l 1
 742 173 l 2
 757 173 776 173 776 153 c 0
 776 133 757 133 743 133 c 2
 519 133 l 1
302 173 m 1
 490 173 l 1
 530 327 l 1
 342 327 l 1
 302 173 l 1
EndSplineSet
EndChar
StartChar: existential
Encoding: 8707 8707 34
Width: 555
Flags: W
HStem: 0 40<72.6953 459> 327 40<103 459> 654 40<72.6953 459>
VStem: 459 40<39 661>
CounterMasks: 1 00
Fore
499 661 m 2
 499 33 l 2
 499 4 495 0 466 0 c 2
 89 0 l 2
 75 0 56 0 56 20 c 0
 56 40 75 40 89 40 c 2
 459 40 l 1
 459 327 l 1
 103 327 l 2
 89 327 70 327 70 347 c 0
 70 367 89 367 103 367 c 2
 459 367 l 1
 459 654 l 1
 89 654 l 2
 75 654 56 654 56 674 c 0
 56 694 75 694 89 694 c 2
 466 694 l 2
 495 694 499 690 499 661 c 2
EndSplineSet
EndChar
StartChar: percent
Encoding: 37 37 35
Width: 833
Flags: W
HStem: -56 22<637 673> 325 22<636.5 673.5> 347 22<194 230> 619 22<445 498.5> 728 22<193.5 219>
VStem: 56 62<488.5 607.5> 308 25<495 555> 499 62<85.5 204.5> 751 25<92 198.5>
Fore
685 712 m 2
 179 -41 l 2
 171 -52 169 -56 159 -56 c 0
 149 -56 139 -47 139 -36 c 0
 139 -34 139 -29 148 -16 c 2
 597 653 l 1
 596 654 l 1
 590 650 539 619 463 619 c 0
 427 619 377 624 312 661 c 1
 333 609 333 562 333 548 c 0
 333 436 276 347 203 347 c 0
 128 347 56 428 56 549 c 0
 56 666 127 750 203 750 c 0
 235 750 256 735 275 718 c 0
 330 666 392 641 462 641 c 0
 535 641 602 668 652 736 c 0
 658 743 663 750 673 750 c 0
 684 750 693 741 693 730 c 0
 693 724 691 721 685 712 c 2
204 369 m 0
 256 369 308 441 308 549 c 0
 308 654 257 728 204 728 c 0
 183 728 118 715 118 548 c 0
 118 382 184 369 204 369 c 0
647 -34 m 0xdf80
 699 -34 751 38 751 146 c 0
 751 251 700 325 647 325 c 0
 626 325 561 312 561 145 c 0
 561 -21 627 -34 647 -34 c 0xdf80
776 145 m 0
 776 33 719 -56 646 -56 c 0
 571 -56 499 25 499 146 c 0
 499 263 570 347 646 347 c 0
 717 347 776 260 776 145 c 0
EndSplineSet
EndChar
StartChar: ampersand
Encoding: 38 38 36
Width: 777
Flags: MW
HStem: -22 31<189.5 245 557 606.5> 400 31<508 508 727 727> 694 22<283.5 331>
VStem: 42 83<133 155> 163 63<562.5 608> 361 25<555 589> 693 28
Fore
696 121 m 1
 721 121 l 1
 719 35 656 -22 580 -22 c 0
 532 -22 473 -6 404 54 c 1
 367 21 308 -22 223 -22 c 0
 124 -22 42 41 42 128 c 0
 42 182 68 209 113 255 c 0
 143 287 184 330 204 352 c 1
 169 441 163 513 163 555 c 0
 163 661 237 716 299 716 c 0
 370 716 386 633 386 587 c 0
 386 521 318 445 264 385 c 1
 308 270 417 133 430 118 c 1
 473 171 518 239 573 336 c 0
 574 339 579 346 579 356 c 0
 579 381 554 400 508 400 c 1
 508 431 l 1
 535 429 619 428 630 428 c 0
 636 428 690 429 727 431 c 1
 727 400 l 1
 638 399 617 364 578 298 c 0
 532 219 492 151 446 98 c 1
 478 60 530 9 584 9 c 0
 629 9 693 42 696 121 c 1
256 409 m 1
 280 435 361 522 361 588 c 0
 361 590 361 694 301 694 c 0
 266 694 226 662 226 578 c 0
 226 547 229 489 256 409 c 1
213 329 m 1
 159 277 125 241 125 160 c 0
 125 106 148 9 231 9 c 0
 259 9 321 16 385 73 c 1
 348 110 312 162 293 190 c 0
 250 252 235 282 213 329 c 1
EndSplineSet
EndChar
StartChar: uni220D
Encoding: 8717 8717 37
Width: 666
Flags: HMW
HStem: -40 40<116 276 276 279> 230 40<116 542> 500 40<116 275>
VStem: 542 41<230 230 270 270>
Fore
275 500 m 2
 116 500 l 2
 102 500 83 500 83 520 c 0
 83 540 102 540 116 540 c 2
 278 540 l 2
 441 540 583 416 583 250 c 0
 583 82 439 -40 279 -40 c 2
 116 -40 l 2
 102 -40 83 -40 83 -20 c 0
 83 0 102 0 116 0 c 2
 276 0 l 2
 412 0 530 94 542 230 c 1
 116 230 l 2
 102 230 83 230 83 250 c 0
 83 270 102 270 116 270 c 2
 542 270 l 1
 530 404 415 500 275 500 c 2
EndSplineSet
EndChar
StartChar: parenleft
Encoding: 40 40 38
Width: 388
Flags: MW
HStem: -250 21<316 324> 730 20<316 324>
VStem: 99 58<211 292>
Fore
331 -240 m 0
 331 -247 327 -250 321 -250 c 0
 311 -250 225 -185 165 -62 c 0
 110 51 99 172 99 250 c 0
 99 334 111 445 162 555 c 0
 221 682 311 750 321 750 c 0
 327 750 331 747 331 740 c 0
 331 737 331 735 318 723 c 1
 195 598 157 424 157 250 c 0
 157 97 189 -92 314 -218 c 0
 331 -235 331 -237 331 -240 c 0
EndSplineSet
EndChar
StartChar: parenright
Encoding: 41 41 39
Width: 388
Flags: MW
HStem: -250 21<64 72> 730 20<64 72>
VStem: 231 58<208 289>
Fore
289 250 m 0
 289 166 277 55 226 -55 c 0
 167 -182 77 -250 67 -250 c 0
 61 -250 57 -246 57 -240 c 0
 57 -237 57 -235 70 -223 c 1
 194 -97 231 79 231 250 c 0
 231 459 174 618 76 717 c 1
 57 735 57 737 57 740 c 0
 57 746 61 750 67 750 c 0
 77 750 163 685 223 562 c 0
 278 449 289 328 289 250 c 0
EndSplineSet
EndChar
StartChar: asteriskmath
Encoding: 8727 8727 40
Width: 500
Flags: HMW
HStem: 34 21<242 262.5> 445 20<242 262.5>
VStem: 221 50
Fore
261 229 m 1
 275 71 l 1
 276 57 276 34 249 34 c 0
 235 34 221 46 224 61 c 1
 224 66 l 1
 238 230 l 1
 112 137 l 2
 101 129 96 128 92 128 c 0
 79 128 65 140 65 156 c 0
 65 172 77 178 86 182 c 2
 227 250 l 1
 86 317 l 2
 77 321 65 327 65 343 c 0
 65 359 79 371 92 371 c 0
 99 371 99 370 112 361 c 2
 238 269 l 1
 224 428 l 1
 224 439 l 1
 221 452 234 465 250 465 c 0
 275 465 276 442 275 429 c 1
 261 269 l 1
 387 362 l 2
 398 370 403 371 407 371 c 0
 420 371 434 359 434 343 c 0
 434 327 422 321 413 317 c 2
 271 249 l 1
 416 181 l 2
 430 174 434 164 434 156 c 0
 434 140 420 128 407 128 c 0
 400 128 382 141 370 150 c 0
 333 176 297 203 261 229 c 1
EndSplineSet
EndChar
StartChar: plus
Encoding: 43 43 41
Width: 777
Flags: MW
HStem: -83 21<379 399> 230 40<89 369 409 688> 563 20<379 399>
VStem: 369 40<-50 230 270 550>
Fore
409 230 m 1
 409 -50 l 2
 409 -64 409 -83 389 -83 c 0
 369 -83 369 -64 369 -50 c 2
 369 230 l 1
 89 230 l 2
 75 230 56 230 56 250 c 0
 56 270 75 270 89 270 c 2
 369 270 l 1
 369 550 l 2
 369 564 369 583 389 583 c 0
 409 583 409 564 409 550 c 2
 409 270 l 1
 688 270 l 2
 702 270 721 270 721 250 c 0
 721 230 702 230 688 230 c 2
 409 230 l 1
EndSplineSet
EndChar
StartChar: comma
Encoding: 44 44 42
Width: 277
Flags: MW
HStem: -193 21<109.5 118> 0 106<121.5 147>
VStem: 181 22<-31 8>
Fore
179 16 m 2
 177 14 l 2
 167 6 155 0 139 0 c 0
 103 0 86 27 86 53 c 0
 86 79 104 106 139 106 c 0
 179 106 203 65 203 1 c 0
 203 -114 124 -193 112 -193 c 0
 107 -193 102 -189 102 -182 c 0
 102 -178 103 -177 109 -171 c 0
 153 -124 181 -63 181 1 c 0
 181 15 180 16 179 16 c 2
EndSplineSet
EndChar
StartChar: minus
Encoding: 8722 8722 43
Width: 777
Flags: HMW
HStem: 230 40<116 661>
VStem: 83 611<240 260>
Fore
661 230 m 2
 116 230 l 2
 102 230 83 230 83 250 c 0
 83 270 102 270 116 270 c 2
 661 270 l 2
 675 270 694 270 694 250 c 0
 694 230 675 230 661 230 c 2
EndSplineSet
EndChar
StartChar: period
Encoding: 46 46 44
Width: 277
Flags: MW
HStem: 0 106<124.5 153.5>
VStem: 86 106<38.5 67.5>
Fore
192 53 m 0
 192 24 168 0 139 0 c 0
 110 0 86 24 86 53 c 0
 86 82 110 106 139 106 c 0
 168 106 192 82 192 53 c 0
EndSplineSet
EndChar
StartChar: slash
Encoding: 47 47 45
Width: 500
Flags: MW
HStem: -250 21<70.5 83> 730 20
VStem: 56 387
Fore
438 712 m 2
 97 -230 l 1
 94 -240 90 -250 76 -250 c 0
 65 -250 56 -241 56 -230 c 0
 56 -228 56 -225 61 -212 c 2
 402 730 l 1
 405 740 409 750 423 750 c 0
 434 750 443 741 443 730 c 0
 443 728 443 725 438 712 c 2
EndSplineSet
EndChar
StartChar: zero
Encoding: 48 48 46
Width: 511
Flags: MW
HStem: -22 22<240 282 240 284> 644 22<399 436.5>
VStem: 117 64<132.5 139 59 192.5> 493 62<513 516 455.5 582>
Fore
555 496 m 0
 555 415 517 257 476 164 c 0
 411 19 317 -22 251 -22 c 0
 117 -22 117 117 117 148 c 0
 117 237 160 412 209 505 c 0
 269 619 349 666 421 666 c 0
 550 666 555 536 555 496 c 0
256 0 m 0
 308 0 358 51 380 98 c 0
 423 193 493 476 493 550 c 0
 493 614 457 644 416 644 c 0
 382 644 328 622 291 547 c 0
 256 475 181 180 181 98 c 0
 181 20 224 0 256 0 c 0
EndSplineSet
EndChar
StartChar: one
Encoding: 49 49 47
Width: 511
Flags: MW
HStem: 0 31<145 153 153 153.5 383 391 391 399> 506 31<254 254> 646 20<446 452>
Fore
458 641 m 2
 315 70 l 2
 314 66 312 57 312 51 c 0
 312 37 318 36 340 33 c 0
 353 32 370 31 383 31 c 2
 391 31 l 2
 407 31 417 31 417 19 c 0
 417 0 404 0 397 0 c 0
 353 0 307 3 263 3 c 0
 220 3 175 0 132 0 c 0
 128 0 117 0 117 12 c 0
 117 31 128 31 145 31 c 2
 153 31 l 2
 231 31 239 41 247 73 c 2
 365 547 l 1
 318 512 269 506 254 506 c 0
 250 506 238 506 238 518 c 0
 238 535 249 536 254 537 c 0
 283 540 353 547 430 650 c 0
 442 665 443 666 449 666 c 0
 455 666 461 662 461 654 c 0
 461 652 459 644 458 641 c 2
EndSplineSet
EndChar
StartChar: two
Encoding: 50 50 48
Width: 511
Flags: MW
HStem: -22 70<349 396.5 349 411.5> 55 22<168.5 188> 336 22<211 247.5 211 255.5> 644 22<331 412.5>
VStem: 165 30<389 423.5 377 431.5> 315 22<478.5 499> 480 71<461.5 554.5 432.5 575.5>
Fore
152 74 m 1
 154 75 163 77 174 77 c 0
 205 77 244 68 280 60 c 0
 296 56 335 48 363 48 c 0
 430 48 469 115 483 156 c 0
 487 172 488 173 500 173 c 0
 507 173 515 173 515 163 c 0
 515 152 469 -22 354 -22 c 0
 314 -22 283 0 257 18 c 0
 232 35 204 55 172 55 c 0
 142 55 124 19 116 -9 c 0
 113 -20 111 -22 99 -22 c 0
 94 -22 84 -22 84 -12 c 0
 84 -11 95 59 165 143 c 0
 207 195 249 219 294 246 c 0
 393 305 480 389 480 534 c 0
 480 617 433 644 392 644 c 0
 270 644 195 456 195 391 c 0
 195 363 205 358 217 358 c 0
 278 358 315 464 315 493 c 0
 315 505 311 518 305 530 c 0
 304 532 304 534 304 536 c 0
 304 542 309 547 315 547 c 0
 328 547 337 512 337 494 c 0
 337 456 295 336 216 336 c 0
 171 336 165 379 165 399 c 0
 165 464 247 666 395 666 c 0
 473 666 551 612 551 497 c 0
 551 368 460 306 306 219 c 0
 275 201 202 160 152 74 c 1
EndSplineSet
EndChar
StartChar: three
Encoding: 51 51 49
Width: 511
Flags: W
HStem: -22 22<203 250.5 203 291> 104 80 319 31<294.5 327 304 327 327 331> 412 22<245 269.5 245 273.5> 644 22<368.5 435.5>
VStem: 199 30<462 510.5 462 518.5> 316 22<479 503.5> 408 72<143 276.5> 502 60<546 574.5 494 590>
Fore
304 350 m 2
 327 350 l 2
 492 350 502 538 502 554 c 0
 502 626 454 644 417 644 c 0
 320 644 229 550 229 471 c 0
 229 453 235 434 255 434 c 0
 284 434 316 462 316 496 c 0
 316 511 309 524 308 525 c 1
 305 531 304 533 304 536 c 0
 304 542 309 547 315 547 c 0
 327 547 338 516 338 497 c 0
 338 447 292 412 255 412 c 0
 218 412 199 441 199 476 c 0
 199 561 300 666 419 666 c 0
 497 666 562 617 562 532 c 0
 562 456 504 365 400 330 c 1
 476 295 480 222 480 203 c 0
 480 83 354 -22 228 -22 c 0
 143 -22 95 38 95 106 c 0
 95 124 97 184 148 184 c 0
 171 184 182 168 182 152 c 0
 182 137 169 100 126 104 c 1
 128 30 178 0 228 0 c 0
 273 0 319 25 347 59 c 0
 399 119 408 218 408 236 c 0
 408 317 350 319 331 319 c 2
 303 319 l 2
 286 319 278 319 278 329 c 0
 278 350 287 350 304 350 c 2
EndSplineSet
EndChar
StartChar: four
Encoding: 52 52 50
Width: 511
Flags: W
HStem: -194 21<281 295.5> 36 31<165 177> 646 20<430.5 450>
VStem: 44 430<16 16.5 6 26>
Fore
413 195 m 2
 369 17 l 1
 374 16 378 16 385 16 c 0
 402 16 427 20 445 27 c 0
 455 31 457 31 459 31 c 0
 468 31 474 19 474 14 c 0
 474 -2 409 -15 381 -15 c 0
 375 -15 367 -15 361 -14 c 1
 324 -160 l 2
 318 -183 305 -194 286 -194 c 0
 276 -194 259 -189 259 -168 c 0
 259 -164 259 -162 263 -147 c 2
 300 2 l 1
 278 10 254 20 241 25 c 0
 206 36 186 36 168 36 c 0
 109 36 100 29 91 21 c 0
 80 13 65 1 59 1 c 0
 51 1 44 14 44 18 c 0
 44 34 76 51 83 54 c 1
 87 57 176 127 255 255 c 0
 326 371 370 491 403 616 c 0
 410 643 416 666 445 666 c 0
 455 666 472 661 472 640 c 0
 472 639 414 316 144 66 c 1
 157 67 159 67 171 67 c 0
 193 67 210 67 247 56 c 0
 276 46 235 59 308 33 c 1
 309 39 347 189 350 199 c 0
 354 216 360 242 390 242 c 0
 393 242 417 241 417 215 c 0
 417 212 417 210 413 195 c 2
EndSplineSet
EndChar
StartChar: five
Encoding: 53 53 51
Width: 511
Flags: W
HStem: -22 28<218 254.5 218 300> 122 86<145.5 165> 398 22<350.5 385.5> 558 76<395 424> 645 20<287.5 293 556.5 559.5>
VStem: 426 72<281.5 304.5 189 336>
Fore
289 558 m 2
 243 374 l 1
 280 403 321 420 367 420 c 0
 454 420 498 344 498 265 c 0
 498 113 364 -22 236 -22 c 0
 150 -22 107 44 107 117 c 0
 107 149 113 208 165 208 c 0
 188 208 201 194 201 174 c 0
 201 151 182 122 148 122 c 0
 143 122 141 122 138 123 c 1
 139 26 200 6 236 6 c 0
 273 6 332 28 376 109 c 0
 397 149 426 254 426 309 c 0
 426 363 406 398 365 398 c 0
 336 398 281 389 230 329 c 0
 223 322 221 319 214 319 c 0
 208 319 201 321 201 331 c 0
 201 333 202 341 203 344 c 2
 279 648 l 2
 282 659 284 665 291 665 c 0
 295 665 299 663 305 660 c 0
 334 644 373 634 417 634 c 0
 456 634 501 642 546 662 c 0
 551 664 555 665 558 665 c 0
 561 665 567 663 567 656 c 0
 567 641 479 558 369 558 c 0
 349 558 326 560 307 567 c 0
 297 570 295 570 294 570 c 0
 293 570 292 569 289 558 c 2
EndSplineSet
EndChar
StartChar: six
Encoding: 54 54 52
Width: 511
Flags: W
HStem: -22 28<226.5 284 226.5 317> 404 22<336.5 371> 521 80<511 533> 641 25<439.5 481>
VStem: 120 65<82.5 193> 435 72<294 295 195 332.5>
Fore
256 6 m 0
 312 6 354 49 380 96 c 0
 400 135 435 271 435 317 c 0
 435 348 426 368 417 380 c 0
 400 404 378 404 364 404 c 0
 231 404 185 176 185 97 c 0
 185 68 197 6 256 6 c 0
232 339 m 1
 262 383 306 426 367 426 c 0
 480 426 507 320 507 270 c 0
 507 120 380 -22 254 -22 c 0
 120 -22 120 131 120 158 c 0
 120 228 142 387 227 507 c 0
 299 609 389 666 471 666 c 0
 531 666 568 637 568 587 c 0
 568 549 550 521 516 521 c 0
 490 521 482 539 482 553 c 0
 482 560 487 601 535 601 c 1
 525 637 492 641 470 641 c 0
 409 641 356 593 325 554 c 0
 279 495 255 429 232 339 c 1
EndSplineSet
EndChar
StartChar: seven
Encoding: 55 55 53
Width: 511
Flags: MW
HStem: -22 21<294.5 322.5> 527 22<459.5 476> 596 70<377.5 387.5>
VStem: 144 481<427 661>
Fore
150 447 m 2
 246 651 l 2
 253 665 254 666 265 666 c 0
 270 666 280 666 280 656 c 0
 280 655 280 653 257 603 c 1
 315 658 364 666 391 666 c 0
 432 666 436 636 440 598 c 0
 443 564 446 549 468 549 c 0
 509 549 546 589 583 643 c 2
 598 663 l 1
 602 666 606 666 611 666 c 0
 617 666 625 666 625 656 c 0
 625 654 625 652 616 639 c 0
 588 596 542 527 490 415 c 0
 432 291 390 164 359 44 c 0
 351 10 342 -22 303 -22 c 0
 286 -22 268 -11 268 11 c 0
 268 15 287 122 378 304 c 0
 411 370 412 372 513 538 c 1
 499 531 484 527 468 527 c 0
 451 527 435 532 419 561 c 0
 402 589 397 596 378 596 c 0
 342 596 250 575 175 430 c 0
 171 423 170 422 159 422 c 0
 152 422 144 422 144 432 c 0
 144 433 144 435 150 447 c 2
EndSplineSet
EndChar
StartChar: eight
Encoding: 56 56 54
Width: 511
Flags: W
HStem: -22 28<223 301 223 315> 641 25<378.5 443.5>
VStem: 97 50<81 137.5> 210 55<497 513> 435 59<150.5 188.5> 509 45<511 579>
Fore
397 360 m 1
 420 340 459 306 465 299 c 0
 485 272 494 240 494 208 c 0
 494 93 378 -22 252 -22 c 0
 167 -22 97 31 97 115 c 0
 97 160 116 258 286 337 c 1
 241 377 240 378 234 386 c 0
 224 399 210 427 210 463 c 0
 210 563 310 666 420 666 c 0
 490 666 554 624 554 548 c 0
 554 474 496 408 397 360 c 1
293 448 m 2
 369 384 l 2
 376 377 377 377 378 377 c 0
 384 377 509 445 509 550 c 0
 509 608 470 641 417 641 c 0
 340 641 265 575 265 509 c 0
 265 485 275 463 293 448 c 2
387 252 m 2
 305 321 l 1
 206 274 147 186 147 113 c 0
 147 49 191 6 255 6 c 0
 347 6 435 86 435 166 c 0
 435 211 412 230 387 252 c 2
EndSplineSet
EndChar
StartChar: nine
Encoding: 57 57 55
Width: 511
Flags: W
HStem: -22 28<200 245 200 260> 43 80 219 22<272.5 335> 641 25<385.5 446.5>
VStem: 165 72<321 450> 488 65<466 571.5>
Fore
440 306 m 1
 409 259 365 219 305 219 c 0
 190 219 165 331 165 376 c 0
 165 524 292 666 423 666 c 0
 553 666 553 515 553 488 c 0
 553 444 539 267 439 126 c 0
 392 59 308 -22 212 -22 c 0
 150 -22 104 5 104 58 c 0
 104 94 122 123 156 123 c 0
 182 123 190 105 190 91 c 0
 190 86 187 46 139 42 c 1
 152 13 186 6 214 6 c 0
 276 6 324 58 345 84 c 0
 389 140 414 200 440 306 c 1
308 241 m 0
 445 241 488 478 488 550 c 0
 488 593 472 641 421 641 c 0
 350 641 307 573 295 551 c 0
 267 501 237 366 237 328 c 0
 237 314 237 241 308 241 c 0
EndSplineSet
EndChar
StartChar: colon
Encoding: 58 58 56
Width: 277
Flags: MW
HStem: 0 106<124.5 153.5> 325 106<124.5 153.5>
VStem: 86 106<38.5 67.5 363.5 392.5>
Fore
192 378 m 0
 192 349 168 325 139 325 c 0
 110 325 86 349 86 378 c 0
 86 407 110 431 139 431 c 0
 168 431 192 407 192 378 c 0
192 53 m 0
 192 24 168 0 139 0 c 0
 110 0 86 24 86 53 c 0
 86 82 110 106 139 106 c 0
 168 106 192 82 192 53 c 0
EndSplineSet
EndChar
StartChar: semicolon
Encoding: 59 59 57
Width: 277
Flags: MW
HStem: -193 21<109.5 117.5> 0 106<121.5 141.5> 325 106<124.5 153.5>
VStem: 86 106<363.5 392.5>
Fore
192 378 m 0
 192 349 168 325 139 325 c 0
 110 325 86 349 86 378 c 0
 86 407 110 431 139 431 c 0
 168 431 192 407 192 378 c 0
173 11 m 1
 165 4 154 2 147 1 c 0
 146 0 144 0 139 0 c 0
 103 0 86 27 86 53 c 0
 86 79 104 106 139 106 c 0
 193 106 195 32 195 3 c 0
 195 -113 123 -193 112 -193 c 0
 107 -193 102 -189 102 -182 c 0
 102 -179 102 -177 109 -169 c 0
 173 -95 173 -17 173 11 c 1
EndSplineSet
EndChar
StartChar: less
Encoding: 60 60 58
Width: 777
Flags: HMW
HStem: -39 21 519 20
VStem: 83 611
Fore
675 498 m 2
 150 250 l 1
 675 2 l 2
 687 -4 694 -9 694 -20 c 0
 694 -31 685 -40 674 -40 c 0
 671 -40 669 -40 656 -33 c 2
 102 228 l 2
 91 233 83 238 83 250 c 0
 83 262 91 267 102 272 c 2
 656 533 l 2
 669 540 671 540 674 540 c 0
 685 540 694 531 694 520 c 0
 694 509 687 504 675 498 c 2
EndSplineSet
EndChar
StartChar: equal
Encoding: 61 61 59
Width: 777
Flags: MW
HStem: 133 40<90 687 687 688> 327 40<89 90 90 687>
VStem: 56 665<143 163 337 357>
Fore
687 327 m 2
 90 327 l 2
 75 327 56 327 56 347 c 0
 56 367 75 367 89 367 c 2
 688 367 l 2
 702 367 721 367 721 347 c 0
 721 327 702 327 687 327 c 2
688 133 m 2
 89 133 l 2
 75 133 56 133 56 153 c 0
 56 173 75 173 90 173 c 2
 687 173 l 2
 702 173 721 173 721 153 c 0
 721 133 702 133 688 133 c 2
EndSplineSet
EndChar
StartChar: greater
Encoding: 62 62 60
Width: 777
Flags: W
DStem: 102 498 121 533 627 250 675 272 627 250 675 228 102 2 121 -33
Fore
675 228 m 2
 121 -33 l 2
 108 -40 106 -40 103 -40 c 0
 92 -40 83 -31 83 -20 c 0
 83 -11 88 -5 102 2 c 2
 627 250 l 1
 102 498 l 2
 88 505 83 511 83 520 c 0
 83 531 92 540 103 540 c 0
 106 540 108 540 121 533 c 2
 675 272 l 2
 686 267 694 262 694 250 c 0
 694 238 686 233 675 228 c 2
EndSplineSet
EndChar
StartChar: question
Encoding: 63 63 61
Width: 472
Flags: W
HStem: 0 106<207.5 236.5> 187 21<216 228.5> 524 91<92 99> 683 22<202 277.5>
VStem: 56 92<557 592.5> 169 106<38.5 67.5> 210 25<211 214 214 249> 332 83<549 595.5>
Fore
235 249 m 2xfb
 235 214 l 2
 235 196 235 187 222 187 c 0
 210 187 210 193 210 211 c 2
 210 256 l 2
 210 317 232 409 298 481 c 1
 316 499 332 517 332 576 c 0
 332 615 332 683 223 683 c 0
 181 683 123 668 92 615 c 1
 106 615 148 615 148 570 c 0
 148 544 130 524 102 524 c 0
 79 524 56 538 56 572 c 0
 56 637 118 705 226 705 c 0
 375 705 415 628 415 570 c 0
 415 528 394 492 367 472 c 0
 332 446 235 375 235 249 c 2xfb
275 53 m 0xfd
 275 24 251 0 222 0 c 0
 193 0 169 24 169 53 c 0
 169 82 193 106 222 106 c 0
 251 106 275 82 275 53 c 0xfd
EndSplineSet
EndChar
StartChar: Alpha
Encoding: 913 913 63
Width: 750
Flags: MW
HStem: 0 31<32 32 249 249 442 442 717 717> 228 31<233 458> 696 20
VStem: 32 685<0 31>
Fore
398 696 m 1
 614 71 l 1
 625 38 639 31 699 31 c 2
 717 31 l 1
 717 0 l 1
 675 2 629 3 586 3 c 0
 548 3 478 3 442 0 c 1
 442 31 l 1
 469 31 525 31 525 61 c 0
 525 65 523 71 522 75 c 1
 469 228 l 1
 222 228 l 1
 176 97 l 2
 175 95 174 85 174 82 c 0
 174 56 199 31 249 31 c 1
 249 0 l 1
 217 1 165 3 134 3 c 0
 98 3 55 1 32 0 c 1
 32 31 l 1
 86 32 126 47 144 98 c 2
 351 696 l 2
 356 710 359 716 375 716 c 0
 391 716 393 709 398 696 c 1
345 584 m 1
 233 259 l 1
 458 259 l 1
 345 584 l 1
EndSplineSet
EndChar
StartChar: Beta
Encoding: 914 914 64
Width: 708
Flags: W
HStem: 0 31<36 60 60 98.5 271 396 396 428> 344 22<222 367 367 410> 652 31<36 60 247.5 271 271 395>
VStem: 139 83<78 344 366 605 605 612> 527 97<482 540.5> 551 100<148.5 217.5>
Fore
222 366 m 1xf8
 367 366 l 2
 478 366 527 450 527 514 c 0
 527 567 492 652 395 652 c 2
 271 652 l 2
 224 652 222 645 222 612 c 2
 222 366 l 1xf8
458 357 m 1
 569 345 651 270 651 183 c 0
 651 89 561 0 428 0 c 2
 36 0 l 1
 36 31 l 1
 60 31 l 2xf4
 137 31 139 42 139 78 c 2
 139 605 l 2
 139 641 137 652 60 652 c 2
 36 652 l 1
 36 683 l 1
 402 683 l 2
 532 683 624 601 624 514 c 0
 624 440 555 376 458 357 c 1
396 31 m 2
 499 31 551 113 551 184 c 0
 551 251 509 344 410 344 c 2
 222 344 l 1
 222 71 l 2
 222 38 224 31 271 31 c 2
 396 31 l 2
EndSplineSet
EndChar
StartChar: Chi
Encoding: 935 935 65
Width: 750
Flags: HMW
HStem: 0 31<24 24 263 263 450 450 726 726> 652 31<37 37 313 313 445 445 684 684>
VStem: 24 702<0 31>
Fore
402 386 m 1
 613 67 l 2
 634 36 655 31 707 31 c 2
 726 31 l 1
 726 0 l 1
 684 2 638 3 596 3 c 0
 558 3 485 3 450 0 c 1
 450 31 l 1
 493 32 515 49 515 61 c 0
 515 64 512 68 510 72 c 2
 352 311 l 1
 210 101 l 2
 203 90 200 86 200 77 c 0
 200 59 217 32 263 31 c 1
 263 0 l 1
 227 3 172 3 135 3 c 0
 102 3 60 1 24 0 c 1
 24 31 l 1
 125 31 155 77 169 97 c 2
 333 339 l 1
 149 617 l 2
 130 645 111 652 56 652 c 2
 37 652 l 1
 37 683 l 1
 74 681 136 680 167 680 c 0
 205 680 278 680 313 683 c 1
 313 652 l 1
 270 651 248 634 248 622 c 0
 248 618 253 610 255 607 c 2
 384 414 l 1
 498 583 l 2
 505 594 507 596 507 606 c 0
 507 629 485 651 445 652 c 1
 445 683 l 1
 485 680 533 680 573 680 c 0
 598 680 645 682 684 683 c 1
 684 652 l 1
 595 651 561 619 539 587 c 2
 402 386 l 1
EndSplineSet
EndChar
StartChar: uni0394
Encoding: 916 916 66
Width: 833
Flags: HMW
HStem: 0 76<114 653> 696 20<407.5 424.5>
VStem: 47 738<4 8.5>
Fore
442 698 m 1
 780 20 l 1
 785 11 785 9 785 8 c 0
 785 0 779 0 763 0 c 2
 69 0 l 2
 53 0 47 0 47 8 c 0
 47 9 47 11 52 20 c 1
 390 698 l 1
 397 711 399 716 416 716 c 0
 433 716 435 711 442 698 c 1
384 616 m 1
 114 76 l 1
 653 76 l 1
 384 616 l 1
EndSplineSet
EndChar
StartChar: Epsilon
Encoding: 917 917 67
Width: 680
Flags: MW
HStem: 0 31<33 57 57 95.5 274 407 407 493> 338 31<225 315> 649 34
VStem: 136 89<78 338 369 602 602 609> 423 25<221 263.5 443 486>
Fore
652 258 m 1
 610 0 l 1
 33 0 l 1
 33 31 l 1
 57 31 l 2
 134 31 136 42 136 78 c 2
 136 602 l 2
 136 638 134 649 57 649 c 2
 33 649 l 1
 33 680 l 1
 596 680 l 1
 624 455 l 1
 599 455 l 1
 583 594 556 649 403 649 c 2
 274 649 l 2
 227 649 225 642 225 609 c 2
 225 369 l 1
 315 369 l 2
 412 369 423 400 423 486 c 1
 448 486 l 1
 448 221 l 1
 423 221 l 1
 423 306 412 338 315 338 c 2
 225 338 l 1
 225 71 l 2
 225 38 227 31 274 31 c 2
 407 31 l 2
 579 31 602 104 627 258 c 1
 652 258 l 1
EndSplineSet
EndChar
StartChar: Phi
Encoding: 934 934 68
Width: 722
Flags: HMW
HStem: 0 31<188 188 527 527> 138 20<316 316> 526 21<399 399> 652 31<188 188 527 527>
VStem: 56 100<310 367> 316 83<79 135 158 525 525 525 548 604> 565 100<312 380>
Fore
399 135 m 1
 399 79 l 2
 399 44 399 31 494 31 c 2
 527 31 l 1
 527 0 l 1
 491 3 398 3 357 3 c 0
 316 3 224 3 188 0 c 1
 188 31 l 1
 221 31 l 2
 316 31 316 45 316 79 c 2
 316 135 l 1
 167 150 56 239 56 342 c 0
 56 441 163 533 316 548 c 1
 316 604 l 2
 316 639 316 652 221 652 c 2
 188 652 l 1
 188 683 l 1
 224 680 317 680 358 680 c 0
 399 680 491 680 527 683 c 1
 527 652 l 1
 494 652 l 2
 399 652 399 638 399 604 c 2
 399 548 l 1
 551 536 665 445 665 341 c 0
 665 240 554 147 399 135 c 1
316 158 m 1
 316 525 l 1
 166 505 156 393 156 341 c 0
 156 279 174 177 316 158 c 1
399 526 m 1
 399 157 l 1
 550 175 565 282 565 342 c 0
 565 418 537 510 399 526 c 1
EndSplineSet
EndChar
StartChar: Gamma
Encoding: 915 915 69
Width: 625
Flags: W
HStem: 0 31<33 44.6667 341 353> 649 31<33 82 33 402>
VStem: 136 89<63 611>
Fore
554 680 m 1
 582 455 l 1
 557 455 l 1
 541 590 520 649 377 649 c 2
 274 649 l 2
 227 649 225 642 225 609 c 2
 225 79 l 2
 225 44 225 31 320 31 c 2
 353 31 l 1
 353 0 l 1
 317 3 226 3 185 3 c 0
 146 3 68 3 33 0 c 1
 33 31 l 1
 57 31 l 2
 134 31 136 42 136 78 c 2
 136 602 l 2
 136 638 134 649 57 649 c 2
 33 649 l 1
 33 680 l 1
 554 680 l 1
EndSplineSet
EndChar
StartChar: Eta
Encoding: 919 919 70
Width: 750
Flags: MW
HStem: 0 31<33 33 328 328 421 421 716 716> 340 31<225 524> 652 31<33 33 328 328 421 421 716 716>
VStem: 136 89<78 340 371 605> 524 89<78 340 340 340 371 605>
Fore
613 605 m 2
 613 78 l 2
 613 42 615 31 692 31 c 2
 716 31 l 1
 716 0 l 1
 681 3 606 3 568 3 c 0
 530 3 456 3 421 0 c 1
 421 31 l 1
 445 31 l 2
 522 31 524 42 524 78 c 2
 524 340 l 1
 225 340 l 1
 225 78 l 2
 225 42 227 31 304 31 c 2
 328 31 l 1
 328 0 l 1
 293 3 218 3 180 3 c 0
 142 3 68 3 33 0 c 1
 33 31 l 1
 57 31 l 2
 134 31 136 42 136 78 c 2
 136 605 l 2
 136 641 134 652 57 652 c 2
 33 652 l 1
 33 683 l 1
 68 680 143 680 181 680 c 0
 219 680 293 680 328 683 c 1
 328 652 l 1
 304 652 l 2
 227 652 225 641 225 605 c 2
 225 371 l 1
 524 371 l 1
 524 605 l 2
 524 641 522 652 445 652 c 2
 421 652 l 1
 421 683 l 1
 456 680 531 680 569 680 c 0
 607 680 681 680 716 683 c 1
 716 652 l 1
 692 652 l 2
 615 652 613 641 613 605 c 2
EndSplineSet
EndChar
StartChar: Iota
Encoding: 921 921 71
Width: 361
Flags: MW
HStem: 0 31<28 28 333 333> 652 31<28 28 333 333>
VStem: 136 89<78 605>
Fore
225 605 m 2
 225 78 l 2
 225 42 228 31 307 31 c 2
 333 31 l 1
 333 0 l 1
 298 3 219 3 180 3 c 0
 142 3 63 3 28 0 c 1
 28 31 l 1
 54 31 l 2
 133 31 136 42 136 78 c 2
 136 605 l 2
 136 641 133 652 54 652 c 2
 28 652 l 1
 28 683 l 1
 63 680 142 680 181 680 c 0
 219 680 298 680 333 683 c 1
 333 652 l 1
 307 652 l 2
 228 652 225 641 225 605 c 2
EndSplineSet
EndChar
StartChar: theta1
Encoding: 977 977 72
Width: 469
Flags: MW
HStem: -11 22<162 171> 331 32<148 348> 683 22<329 337>
VStem: 42 66<133 194> 389 66<500 562>
Fore
455 500 m 0
 455 276 303 -11 162 -11 c 0
 71 -11 42 100 42 194 c 0
 42 423 196 705 335 705 c 0
 437 705 455 566 455 500 c 0
148 363 m 1
 357 363 l 1
 381 462 389 513 389 562 c 0
 389 619 383 683 334 683 c 0
 289 683 252 627 225 578 c 0
 185 507 165 427 148 363 c 1
348 331 m 1
 140 331 l 1
 114 233 108 175 108 133 c 0
 108 40 129 11 162 11 c 0
 205 11 243 60 278 128 c 0
 316 200 337 285 348 331 c 1
EndSplineSet
EndChar
StartChar: Kappa
Encoding: 922 922 73
Width: 777
Flags: MW
HStem: 0 31<33 33 328 328 478 478 736 736> 652 31<33 33 328 328 510 510 722 722>
VStem: 136 89<78 253 287 605>
Fore
400 419 m 1
 631 79 l 2
 661 35 682 31 736 31 c 1
 736 0 l 1
 694 2 656 3 621 3 c 0
 583 3 513 3 478 0 c 1
 478 31 l 1
 498 31 537 31 537 61 c 0
 537 73 528 86 522 95 c 2
 341 363 l 1
 225 253 l 1
 225 78 l 2
 225 42 227 31 304 31 c 2
 328 31 l 1
 328 0 l 1
 293 3 218 3 180 3 c 0
 142 3 68 3 33 0 c 1
 33 31 l 1
 57 31 l 2
 134 31 136 42 136 78 c 2
 136 605 l 2
 136 641 134 652 57 652 c 2
 33 652 l 1
 33 683 l 1
 68 680 143 680 181 680 c 0
 219 680 293 680 328 683 c 1
 328 652 l 1
 304 652 l 2
 227 652 225 641 225 605 c 2
 225 287 l 1
 538 586 l 2
 546 593 556 603 556 619 c 0
 556 628 550 651 510 652 c 1
 510 683 l 1
 544 680 601 680 637 680 c 0
 664 680 696 680 722 683 c 1
 722 652 l 1
 641 651 588 600 580 592 c 2
 400 419 l 1
EndSplineSet
EndChar
StartChar: Lambda
Encoding: 923 923 74
Width: 694
Flags: HMW
HStem: 0 31<32 32 238 238 394 394 661 661> 696 20<339 352.5>
VStem: 32 629<0 31>
Fore
370 695 m 2
 570 74 l 2
 582 37 585 31 661 31 c 1
 661 0 l 1
 622 1 577 3 538 3 c 0
 500 3 429 3 394 0 c 1
 394 31 l 1
 420 31 479 31 479 61 c 0
 479 63 479 65 474 79 c 1
 316 571 l 1
 166 105 l 1
 161 91 161 88 161 83 c 0
 161 59 184 32 238 31 c 1
 238 0 l 1
 207 1 154 3 125 3 c 0
 116 3 65 2 32 0 c 1
 32 31 l 1
 102 31 122 70 132 100 c 2
 324 695 l 1
 329 712 331 716 347 716 c 0
 358 716 364 714 370 695 c 2
EndSplineSet
EndChar
StartChar: Mu
Encoding: 924 924 75
Width: 916
Flags: MW
HStem: 0 31<37 37 271 271 592 592 879 879> 652 31<37 61 816.5 855 855 879>
VStem: 140 28<105 605 605 623> 695 81<78 605>
Fore
241 661 m 1
 458 101 l 1
 677 664 l 2
 684 682 684 683 710 683 c 2
 879 683 l 1
 879 652 l 1
 855 652 l 2
 778 652 776 641 776 605 c 2
 776 78 l 2
 776 42 778 31 855 31 c 2
 879 31 l 1
 879 0 l 1
 842 3 775 3 736 3 c 0
 697 3 629 3 592 0 c 1
 592 31 l 1
 616 31 l 2
 693 31 695 42 695 78 c 2
 695 652 l 1
 694 652 l 1
 448 19 l 2
 444 8 441 0 430 0 c 0
 420 0 415 9 410 22 c 2
 169 644 l 1
 168 644 l 1
 168 105 l 2
 168 78 168 31 271 31 c 1
 271 0 l 1
 236 1 187 3 154 3 c 0
 121 3 72 1 37 0 c 1
 37 31 l 1
 140 31 140 78 140 105 c 2
 140 605 l 2
 140 641 138 652 61 652 c 2
 37 652 l 1
 37 683 l 1
 206 683 l 2
 229 683 232 683 241 661 c 1
EndSplineSet
EndChar
StartChar: Nu
Encoding: 925 925 76
Width: 750
Flags: MW
HStem: 0 31<33 33 267 267> 652 31<33 62>
VStem: 136 28<105 625> 585 28<151 578>
Fore
232 670 m 1
 585 151 l 1
 585 578 l 2
 585 605 585 652 482 652 c 1
 482 683 l 1
 517 682 566 680 599 680 c 0
 632 680 681 682 716 683 c 1
 716 652 l 1
 613 652 613 605 613 578 c 2
 613 26 l 2
 613 7 613 0 599 0 c 0
 592 0 591 1 582 13 c 1
 174 613 l 2
 170 619 169 620 164 625 c 1
 164 105 l 2
 164 78 164 31 267 31 c 1
 267 0 l 1
 232 1 183 3 150 3 c 0
 117 3 68 1 33 0 c 1
 33 31 l 1
 136 31 136 78 136 105 c 2
 136 627 l 2
 136 646 135 647 112 650 c 0
 97 651 77 652 62 652 c 2
 33 652 l 1
 33 683 l 1
 203 683 l 2
 222 683 223 682 232 670 c 1
EndSplineSet
EndChar
StartChar: Omicron
Encoding: 927 927 77
Width: 777
Flags: MW
HStem: -22 26<341 435> 680 25<346.5 431.5>
VStem: 56 103<236.5 442> 618 103<238 441>
Fore
721 339 m 0
 721 137 570 -22 388 -22 c 0
 210 -22 56 134 56 339 c 0
 56 545 209 705 388 705 c 0
 570 705 721 543 721 339 c 0
389 4 m 0
 481 4 618 88 618 353 c 0
 618 609 475 680 388 680 c 0
 305 680 159 612 159 353 c 0
 159 92 293 4 389 4 c 0
EndSplineSet
EndChar
StartChar: Pi
Encoding: 928 928 78
Width: 750
Flags: HMW
HStem: 0 31<33 33 328 328 421 421 716 716> 649 31<33 57 225 524 225 225 653.5 692 692 716>
VStem: 136 89<78 602 602 620> 524 89<78 602>
Fore
613 602 m 2
 613 78 l 2
 613 42 615 31 692 31 c 2
 716 31 l 1
 716 0 l 1
 681 3 606 3 568 3 c 0
 530 3 456 3 421 0 c 1
 421 31 l 1
 445 31 l 2
 522 31 524 42 524 78 c 2
 524 649 l 1
 225 649 l 1
 225 78 l 2
 225 42 227 31 304 31 c 2
 328 31 l 1
 328 0 l 1
 293 3 218 3 180 3 c 0
 142 3 68 3 33 0 c 1
 33 31 l 1
 57 31 l 2
 134 31 136 42 136 78 c 2
 136 602 l 2
 136 638 134 649 57 649 c 2
 33 649 l 1
 33 680 l 1
 716 680 l 1
 716 649 l 1
 692 649 l 2
 615 649 613 638 613 602 c 2
EndSplineSet
EndChar
StartChar: Theta
Encoding: 920 920 79
Width: 777
Flags: HMW
HStem: -22 23<339.5 436> 304 76<235 542> 683 22<340 438.5>
VStem: 56 97<236.5 442> 210 25<270 304 380 414> 542 25<270 304 304 304 380 414> 624 97<238 441>
Fore
721 339 m 0
 721 137 570 -22 388 -22 c 0
 210 -22 56 134 56 339 c 0
 56 545 209 705 388 705 c 0
 570 705 721 543 721 339 c 0
389 1 m 0
 483 1 624 84 624 339 c 0
 624 592 489 683 388 683 c 0
 292 683 153 596 153 339 c 0
 153 87 290 1 389 1 c 0
567 414 m 1
 567 270 l 1
 542 270 l 1
 542 304 l 1
 235 304 l 1
 235 270 l 1
 210 270 l 1
 210 414 l 1
 235 414 l 1
 235 380 l 1
 542 380 l 1
 542 414 l 1
 567 414 l 1
EndSplineSet
EndChar
StartChar: Rho
Encoding: 929 929 80
Width: 680
Flags: W
HStem: 0 31<35 46.6667 318.333 330> 316 26<224 396> 652 31<35 84 35 388>
VStem: 138 86<78 625> 521 103<480.421 513>
Fore
227 316 m 1
 227 78 l 2
 227 42 229 31 306 31 c 2
 330 31 l 1
 330 0 l 1
 295 3 220 3 182 3 c 0
 144 3 70 3 35 0 c 1
 35 31 l 1
 59 31 l 2
 136 31 138 42 138 78 c 2
 138 605 l 2
 138 641 136 652 59 652 c 2
 35 652 l 1
 35 683 l 1
 388 683 l 2
 525 683 624 595 624 497 c 0
 624 397 516 316 396 316 c 2
 227 316 l 1
224 342 m 1
 362 342 l 2
 521 342 521 450 521 497 c 0
 521 546 521 652 362 652 c 2
 273 652 l 2
 226 652 224 645 224 612 c 2
 224 342 l 1
EndSplineSet
EndChar
StartChar: Sigma
Encoding: 931 931 81
Width: 722
Flags: W
HStem: 0 42<121 637> 652 31<82 441>
DStem: 56 660 169 652 305 298 374 356 305 298 372 326 67 27 121 42
Fore
372 326 m 2
 121 42 l 1
 397 42 l 2
 554 42 622 69 640 236 c 1
 665 236 l 1
 637 0 l 1
 82 0 l 2
 67 0 57 0 57 11 c 0
 57 14 57 16 67 27 c 2
 305 298 l 1
 56 660 l 1
 56 683 58 683 82 683 c 2
 637 683 l 1
 665 458 l 1
 640 458 l 1
 619 616 569 652 400 652 c 2
 169 652 l 1
 374 356 l 2
 377 352 381 347 381 342 c 0
 381 340 381 336 372 326 c 2
EndSplineSet
EndChar
StartChar: Tau
Encoding: 932 932 82
Width: 722
Flags: MW
HStem: 0 31<171 171 550 550> 452 21<36 61 36 36 660 685 660 660> 646 37
VStem: 36 25<452 452> 316 89<79 606> 660 25<452 452>
Fore
666 677 m 1
 685 452 l 1
 660 452 l 1
 646 613 631 646 480 646 c 0
 461 646 434 646 423 644 c 0
 405 640 405 626 405 606 c 2
 405 79 l 2
 405 45 405 31 510 31 c 2
 550 31 l 1
 550 0 l 1
 509 3 406 3 360 3 c 0
 314 3 212 3 171 0 c 1
 171 31 l 1
 211 31 l 2
 316 31 316 45 316 79 c 2
 316 606 l 2
 316 629 316 640 295 644 c 0
 285 646 259 646 241 646 c 0
 90 646 75 613 61 452 c 1
 36 452 l 1
 55 677 l 1
 666 677 l 1
EndSplineSet
EndChar
StartChar: Upsilon
Encoding: 933 933 83
Width: 750
Flags: HMW
HStem: 0 31<228 228 520 520> 652 31<11 11 289 289 525 525 738 738>
VStem: 331 86<78 80 80 273>
Fore
610 587 m 2
 417 273 l 1
 417 80 l 2
 417 41 420 31 497 31 c 2
 520 31 l 1
 520 0 l 1
 484 3 413 3 374 3 c 0
 335 3 264 3 228 0 c 1
 228 31 l 1
 252 31 l 2
 329 31 331 42 331 78 c 2
 331 273 l 1
 121 615 l 2
 105 641 97 652 29 652 c 2
 11 652 l 1
 11 683 l 1
 53 681 99 680 141 680 c 0
 180 680 253 680 289 683 c 1
 289 652 l 1
 244 652 219 648 219 627 c 0
 219 622 219 620 226 610 c 1
 407 315 l 1
 572 583 l 2
 576 589 582 602 582 613 c 0
 582 633 566 652 525 652 c 1
 525 683 l 1
 551 682 609 680 640 680 c 0
 667 680 707 681 738 683 c 1
 738 652 l 1
 706 652 647 648 610 587 c 2
EndSplineSet
EndChar
StartChar: sigma1
Encoding: 962 962 84
Width: 362
Flags: HMW
HStem: -108 22<221 238.5> 420 22<245.5 310.5>
VStem: 32 52 270 56<-26.5 -17.5>
Fore
231 20 m 2
 137 72 l 2
 94 95 31 130 31 215 c 0
 31 327 154 442 306 442 c 0
 345 442 409 434 409 412 c 0
 409 404 400 395 392 395 c 0
 389 395 386 397 377 401 c 0
 342 417 321 420 300 420 c 0
 191 420 83 337 83 246 c 0
 83 184 125 161 162 140 c 0
 207 114 209 114 227 104 c 0
 303 62 326 50 326 0 c 0
 326 -53 281 -108 224 -108 c 0
 208 -108 163 -100 163 -85 c 0
 163 -79 169 -75 174 -75 c 0
 177 -75 181 -76 183 -77 c 0
 201 -85 218 -86 224 -86 c 0
 253 -86 270 -58 270 -33 c 0
 270 -2 252 8 231 20 c 2
EndSplineSet
EndChar
StartChar: uni03A9
Encoding: 937 937 85
Width: 722
Flags: HMW
HStem: 0 65<153 233 488 568 568 597> 683 22<314.5 408>
VStem: 56 103<417.5 522.5> 233 29 459 29 562 103<417.5 523.5>
Fore
677 162 m 1
 644 0 l 1
 485 0 l 2
 462 0 459 0 459 21 c 0
 459 90 491 180 506 222 c 0
 535 304 562 380 562 455 c 0
 562 611 456 683 360 683 c 0
 269 683 159 615 159 455 c 0
 159 380 187 301 208 243 c 0
 231 179 262 91 262 21 c 0
 262 0 259 0 237 0 c 2
 77 0 l 1
 44 162 l 1
 69 162 l 1
 74 137 79 111 87 88 c 0
 92 73 95 65 153 65 c 2
 233 65 l 1
 220 121 188 169 144 235 c 0
 97 306 56 375 56 454 c 0
 56 591 189 705 361 705 c 0
 530 705 665 593 665 454 c 0
 665 375 624 306 577 235 c 0
 532 169 501 121 488 65 c 1
 568 65 l 2
 626 65 629 73 634 89 c 0
 643 113 647 136 652 162 c 1
 677 162 l 1
EndSplineSet
EndChar
StartChar: Xi
Encoding: 926 926 86
Width: 666
Flags: HMW
HStem: 0 70<159 507 507 518> 147 20<42 67 67 67 599 624 624 624> 266 21<139 164 139 139 502 527 502 502> 317 70<164 502> 418 20<139 164 164 164 502 527 527 527> 521 21<47 72 47 47 594 619 594 594> 607 70<155.5 160 160 506>
VStem: 42 29 139 25<266 317 387 438> 502 25<266 317 317 317 387 438> 595 29
Fore
611 677 m 1
 619 521 l 1
 594 521 l 1
 592 562 589 588 582 599 c 0
 576 607 517 607 506 607 c 2
 160 607 l 2
 151 607 90 607 84 599 c 0
 77 588 74 562 72 521 c 1
 47 521 l 1
 55 677 l 1
 611 677 l 1
50 0 m 1
 42 167 l 1
 67 167 l 1
 69 123 71 93 79 80 c 0
 86 70 141 70 159 70 c 2
 507 70 l 2
 529 70 581 70 587 81 c 0
 595 95 596 121 599 167 c 1
 624 167 l 1
 616 0 l 1
 50 0 l 1
527 438 m 1
 527 266 l 1
 502 266 l 1
 502 317 l 1
 164 317 l 1
 164 266 l 1
 139 266 l 1
 139 438 l 1
 164 438 l 1
 164 387 l 1
 502 387 l 1
 502 438 l 1
 527 438 l 1
EndSplineSet
EndChar
StartChar: Psi
Encoding: 936 936 87
Width: 777
Flags: HMW
HStem: 0 31<216 216 555 555> 133 27 523 31 652 31<216 216 555 555>
VStem: 125 83<384.5 396> 344 83<79 135 160 604> 569 83
Fore
427 604 m 2
 427 160 l 1
 535 186 568 292 569 402 c 0
 570 547 619 554 658 554 c 2
 696 554 l 2
 712 554 720 554 720 543 c 0
 720 534 713 533 707 532 c 0
 653 525 652 436 652 420 c 0
 652 376 651 297 599 226 c 0
 560 174 499 144 427 135 c 1
 427 79 l 2
 427 44 427 31 522 31 c 2
 555 31 l 1
 555 0 l 1
 519 3 426 3 385 3 c 0
 344 3 252 3 216 0 c 1
 216 31 l 1
 249 31 l 2
 344 31 344 45 344 79 c 2
 344 135 l 1
 276 144 215 173 176 227 c 0
 128 294 125 373 125 396 c 0
 124 514 99 528 66 532 c 0
 60 533 57 538 57 543 c 0
 57 554 67 554 82 554 c 2
 119 554 l 2
 163 554 207 535 208 414 c 0
 208 349 213 195 344 160 c 1
 344 604 l 2
 344 639 344 652 249 652 c 2
 216 652 l 1
 216 683 l 1
 252 680 345 680 386 680 c 0
 427 680 519 680 555 683 c 1
 555 652 l 1
 522 652 l 2
 427 652 427 638 427 604 c 2
EndSplineSet
EndChar
StartChar: Zeta
Encoding: 918 918 88
Width: 611
Flags: MW
HStem: 0 34<159 323 323 415.5> 652 31<213 295 295 452>
VStem: 56 504
Fore
547 648 m 2
 159 34 l 1
 323 34 l 2
 508 34 527 128 535 267 c 1
 560 267 l 1
 543 0 l 1
 82 0 l 2
 61 0 56 0 56 17 c 0
 56 25 56 26 63 37 c 2
 452 652 l 1
 295 652 l 2
 131 652 101 571 94 458 c 1
 69 458 l 1
 80 683 l 1
 528 683 l 2
 548 683 554 683 554 667 c 0
 554 660 554 659 547 648 c 2
EndSplineSet
EndChar
StartChar: bracketleft
Encoding: 91 91 89
Width: 277
Flags: MW
HStem: -250 40<158 255> 710 40<158 255 158 158>
VStem: 118 40<-210 710>
Fore
255 -250 m 1
 118 -250 l 1
 118 750 l 1
 255 750 l 1
 255 710 l 1
 158 710 l 1
 158 -210 l 1
 255 -210 l 1
 255 -250 l 1
EndSplineSet
EndChar
StartChar: therefore
Encoding: 8756 8756 90
Width: 666
Flags: HMW
HStem: -75 106<68.5 97.5 568.5 597.5> 358 106<318.5 347>
VStem: 30 106<-36.5 -7.5> 280 106<396.5 425.5> 530 106<-36.5 -7.5>
Fore
386 411 m 0
 386 381 361 358 333 358 c 0
 304 358 280 382 280 411 c 0
 280 440 304 464 333 464 c 0
 362 464 386 440 386 411 c 0
636 -22 m 0
 636 -51 612 -75 583 -75 c 0
 554 -75 530 -51 530 -22 c 0
 530 7 554 31 583 31 c 0
 612 31 636 7 636 -22 c 0
136 -22 m 0
 136 -51 112 -75 83 -75 c 0
 54 -75 30 -51 30 -22 c 0
 30 7 54 31 83 31 c 0
 112 31 136 7 136 -22 c 0
EndSplineSet
EndChar
StartChar: bracketright
Encoding: 93 93 91
Width: 277
Flags: MW
HStem: -250 40<22 119> 710 40<22 119>
VStem: 119 40<-210 710 710 710>
Fore
159 750 m 1
 159 -250 l 1
 22 -250 l 1
 22 -210 l 1
 119 -210 l 1
 119 710 l 1
 22 710 l 1
 22 750 l 1
 159 750 l 1
EndSplineSet
EndChar
StartChar: perpendicular
Encoding: 8869 8869 92
Width: 777
Flags: HMW
HStem: 0 40<90 369 409 689> 646 20<379 399>
VStem: 369 40<40 632 632 633>
Fore
409 633 m 2
 409 40 l 1
 689 40 l 2
 703 40 722 40 722 20 c 0
 722 0 703 0 689 0 c 2
 90 0 l 2
 76 0 56 0 56 20 c 0
 56 40 75 40 90 40 c 2
 369 40 l 1
 369 632 l 2
 369 646 369 666 389 666 c 0
 409 666 409 647 409 633 c 2
EndSplineSet
EndChar
StartChar: underscore
Encoding: 95 95 93
Width: 333
Flags: MW
HStem: 187 58<11 276 11 276>
VStem: 11 265<187 245 187 245>
Fore
276 187 m 1
 11 187 l 1
 11 245 l 1
 276 245 l 1
 276 187 l 1
EndSplineSet
EndChar
StartChar: uniF8E5
Encoding: 63717 63717 94
Width: 500
Flags: HMW
HStem: 857 56<480 1090>
Fore
480 913 m 1
 1090 913 l 1
 1090 857 l 1
 480 857 l 1
 480 913 l 1
EndSplineSet
EndChar
StartChar: alpha
Encoding: 945 945 95
Width: 639
Flags: W
HStem: -11 22<200 218 503 510> 420 22<296 314>
VStem: 41 74<120 158> 408 69<113 262>
Fore
477 236 m 2
 477 174 l 1
 524 233 557 309 575 372 c 0
 580 390 580 393 590 393 c 0
 601 393 602 385 602 383 c 0
 602 382 581 266 487 148 c 0
 477 136 477 134 477 113 c 0
 477 89 477 11 508 11 c 0
 510 11 546 11 564 60 c 0
 567 67 570 70 577 70 c 0
 583 70 589 67 589 60 c 0
 589 44 558 -11 505 -11 c 0
 460 -11 427 20 414 73 c 1
 338 12 266 -11 203 -11 c 0
 101 -11 41 65 41 158 c 0
 41 299 173 442 310 442 c 0
 384 442 477 393 477 236 c 2
410 99 m 1
 408 116 408 174 408 211 c 0
 408 289 408 420 309 420 c 0
 274 420 220 401 173 328 c 0
 141 277 115 169 115 120 c 0
 115 56 145 11 205 11 c 0
 245 11 322 22 410 99 c 1
EndSplineSet
EndChar
StartChar: beta
Encoding: 946 946 96
Width: 565
Flags: W
HStem: -194 21G<36 39.5> -12 22<264 285> 373 22<371 384> 409 22<360 394> 683 22<440 458>
VStem: 476 73<264 302> 527 63<577 602>
DStem: 180 437 200 416 28 -169 154 231
Fore
28 -169 m 2xfc
 180 437 l 2
 213 568 326 705 456 705 c 0
 544 705 590 642 590 577 c 0xfa
 590 516 551 445 482 403 c 1
 517 379 549 335 549 264 c 0
 549 122 415 -12 283 -12 c 0
 190 -12 138 47 123 105 c 1
 80 -57 52 -185 47 -190 c 0
 44 -193 42 -194 37 -194 c 0
 35 -194 25 -194 25 -184 c 0
 25 -179 27 -173 28 -169 c 2xfc
328 401 m 1
 345 395 346 395 371 395 c 0
 379 395 401 395 419 403 c 1
 406 409 394 409 379 409 c 0
 345 409 338 406 328 401 c 1
450 421 m 1
 515 470 527 578 527 602 c 0xfa
 527 668 485 683 455 683 c 0
 366 683 247 601 200 416 c 0
 194 393 163 268 154 231 c 0
 145 195 141 180 141 156 c 0
 141 76 192 10 281 10 c 0
 353 10 404 71 427 113 c 0
 456 168 476 262 476 302 c 0xfc
 476 334 468 363 446 386 c 1
 414 373 385 373 371 373 c 0
 347 373 303 373 303 399 c 0
 303 431 357 431 381 431 c 0
 390 431 422 431 450 421 c 1
EndSplineSet
EndChar
StartChar: chi
Encoding: 967 967 97
Width: 625
Flags: HMW
HStem: -205 22<460.5 495.5> 420 22<136 154>
Fore
583 403 m 1
 345 136 l 1
 367 59 435 -183 486 -183 c 0
 505 -183 530 -167 539 -143 c 0
 542 -133 543 -129 553 -129 c 0
 563 -129 565 -135 565 -140 c 0
 565 -153 538 -205 480 -205 c 0
 391 -205 369 -155 356 -125 c 0
 332 -69 320 -30 288 74 c 1
 59 -183 l 2
 55 -187 50 -194 43 -194 c 0
 37 -194 31 -188 31 -182 c 0
 31 -179 31 -177 42 -166 c 1
 272 91 l 2
 280 99 280 101 280 102 c 0
 280 105 248 221 216 300 c 0
 199 344 169 420 139 420 c 0
 133 420 101 416 86 377 c 0
 84 372 82 366 73 366 c 0
 61 366 61 375 61 376 c 0
 61 390 87 442 145 442 c 0
 233 442 255 392 266 369 c 0
 289 316 297 291 337 164 c 1
 566 419 l 2
 572 426 576 431 582 431 c 0
 590 431 594 425 594 419 c 0
 594 416 594 414 583 403 c 1
EndSplineSet
EndChar
StartChar: delta
Encoding: 948 948 98
Width: 444
Flags: W
HStem: -12 22<200 206> 679 32<286 318>
VStem: 42 62<128 156> 204 27<608 633> 331 69<243 283>
Fore
264 437 m 1
 233 498 204 554 204 608 c 0
 204 668 240 711 318 711 c 0
 334 711 348 711 400 700 c 0
 436 692 452 689 452 667 c 0
 452 651 437 627 412 627 c 0
 397 627 377 640 357 652 c 0
 336 666 316 679 286 679 c 0
 251 679 231 655 231 633 c 0
 231 589 290 514 326 469 c 1
 360 424 400 374 400 283 c 0
 400 145 317 -12 200 -12 c 0
 106 -12 42 60 42 156 c 0
 42 277 139 407 264 437 c 1
276 415 m 1
 141 379 104 191 104 128 c 0
 104 52 145 10 200 10 c 0
 293 10 331 177 331 243 c 0
 331 315 301 369 276 415 c 1
EndSplineSet
EndChar
StartChar: epsilon
Encoding: 949 949 99
Width: 466
Flags: MW
HStem: -22 46<172 203> 213 22<227 251> 249 22<235 251> 407 46<280 310>
VStem: 26 26<102 112> 77 25<298.935 315>
Fore
141 227 m 1
 80 197 52 144 52 110 c 0
 52 39 137 24 198 24 c 0
 318 24 342 61 356 84 c 0
 358 87 361 91 366 91 c 0
 372 91 377 87 377 81 c 0
 377 66 321 -22 189 -22 c 0
 83 -22 26 39 26 104 c 0
 26 150 58 206 117 239 c 1
 113 242 77 267 77 310 c 0
 77 386 185 453 300 453 c 0
 368 453 429 415 429 396 c 0
 429 382 415 369 402 369 c 0
 395 369 393 371 382 379 c 0
 342 407 306 407 290 407 c 0
 200 407 102 371 102 310 c 0
 102 283 119 264 142 252 c 1
 179 269 214 271 235 271 c 0
 273 271 308 268 308 244 c 0
 308 213 253 213 227 213 c 0
 203 213 174 213 141 227 c 1
174 240 m 1
 193 235 205 235 227 235 c 0
 265 235 267 236 282 243 c 1
 264 248 260 249 235 249 c 0
 218 249 197 248 174 240 c 1
EndSplineSet
EndChar
StartChar: phi
Encoding: 966 966 100
Width: 654
Flags: MW
HStem: -11 59<288 323> 384 58<493 507>
VStem: 50 26<188 203> 591 28<281 304>
Fore
170 -170 m 2
 223 -2 l 1
 116 23 50 96 50 190 c 0
 50 286 127 431 155 431 c 0
 165 431 167 425 167 421 c 0
 167 419 167 417 159 408 c 0
 99 339 76 229 76 201 c 0
 76 129 132 73 240 53 c 1
 300 248 360 442 505 442 c 0
 580 442 619 382 619 304 c 0
 619 146 465 -11 299 -11 c 0
 282 -11 275 -10 266 -9 c 1
 239 -151 234 -184 231 -192 c 0
 221 -215 199 -218 194 -218 c 0
 184 -218 165 -212 165 -190 c 0
 165 -185 166 -183 170 -170 c 2
308 47 m 0
 462 47 591 169 591 282 c 0
 591 330 564 384 495 384 c 0
 406 384 328 288 297 160 c 0
 294 145 277 54 277 52 c 0
 277 49 278 48 290 48 c 0
 298 47 300 47 308 47 c 0
EndSplineSet
EndChar
StartChar: gamma
Encoding: 947 947 101
Width: 517
Flags: W
HStem: 370 72<198 215>
Fore
41 254 m 1
 37 249 l 1
 27 249 18 249 18 259 c 0
 18 290 88 442 213 442 c 0
 282 442 322 393 346 332 c 0
 385 235 386 159 387 128 c 1
 427 229 467 329 519 424 c 0
 522 431 528 431 531 431 c 0
 533 431 543 431 543 421 c 0
 543 417 531 395 524 383 c 0
 484 304 420 155 388 56 c 0
 384 43 382 30 380 17 c 0
 376 -14 366 -71 343 -155 c 0
 332 -193 324 -215 311 -215 c 0
 303 -215 298 -208 298 -197 c 0
 298 -171 328 -55 350 18 c 0
 357 38 362 55 362 116 c 0
 362 195 351 370 200 370 c 0
 189 370 80 369 41 254 c 1
EndSplineSet
EndChar
StartChar: eta
Encoding: 951 951 102
Width: 496
Flags: HMW
HStem: -216 21<324.5 348.5> 420 22<113 139.5 356.5 399.5>
VStem: 432 64<347.5 367.5>
Fore
488 277 m 1
 374 -176 l 2
 371 -187 364 -216 333 -216 c 0
 316 -216 305 -204 305 -189 c 0
 305 -187 305 -185 308 -173 c 2
 422 287 l 2
 432 327 432 345 432 350 c 0
 432 386 421 420 378 420 c 0
 335 420 304 401 282 385 c 0
 248 358 217 302 214 293 c 0
 213 287 205 254 203 248 c 0
 198 225 192 203 186 181 c 0
 179 151 171 121 164 91 c 0
 158 66 146 19 145 17 c 0
 138 -3 120 -11 108 -11 c 0
 93 -11 79 -2 79 16 c 0
 79 21 85 44 88 59 c 1
 146 290 l 2
 159 342 162 353 162 374 c 0
 162 412 148 420 131 420 c 0
 95 420 75 372 58 301 c 0
 52 279 51 278 41 278 c 0
 39 278 29 278 29 288 c 0
 29 291 42 351 60 385 c 0
 69 403 88 442 134 442 c 0
 179 442 221 412 226 355 c 1
 250 390 302 442 381 442 c 0
 456 442 496 400 496 335 c 0
 496 308 493 295 488 277 c 1
EndSplineSet
EndChar
StartChar: iota
Encoding: 953 953 103
Width: 353
Flags: W
HStem: -11 22<131 155> 422 20G<185.5 199.5>
VStem: 56 60<44 71>
Fore
324 143 m 0
 324 110 254 -11 140 -11 c 0
 84 -11 56 30 56 71 c 0
 56 103 80 150 88 178 c 0
 90 188 99 213 102 223 c 0
 105 236 130 324 132 329 c 0
 138 348 147 397 154 416 c 0
 162 435 180 442 191 442 c 0
 208 442 220 432 220 415 c 0
 220 407 179 239 134 118 c 0
 124 91 116 68 116 44 c 0
 116 14 128 11 142 11 c 0
 185 11 268 44 299 142 c 0
 301 149 303 153 312 153 c 0
 315 153 324 153 324 143 c 0
EndSplineSet
EndChar
StartChar: phi1
Encoding: 981 981 104
Width: 595
Flags: W
HStem: -205 21<205.5 210.5> -10 20<246 246 272 272> 421 21<349 349 375 375> 674 20
VStem: 49 65<121.5 208> 508 65<224 301.5>
Fore
437 670 m 1
 381 443 l 1
 520 433 573 341 573 262 c 0
 573 128 428 -7 267 -12 c 1
 254 -62 242 -112 229 -161 c 0
 226 -175 220 -199 218 -201 c 0
 215 -204 213 -205 208 -205 c 0
 203 -205 196 -204 196 -194 c 0
 196 -191 206 -153 218 -106 c 0
 226 -75 233 -43 241 -12 c 1
 119 -5 49 74 49 169 c 0
 49 305 196 438 355 443 c 1
 413 674 l 1
 417 691 418 694 428 694 c 0
 440 694 440 685 440 684 c 0
 440 683 437 672 437 670 c 1
246 10 m 1
 349 421 l 1
 200 408 114 268 114 148 c 0
 114 48 186 13 246 10 c 1
375 421 m 1
 272 10 l 1
 422 22 508 165 508 283 c 0
 508 371 451 417 375 421 c 1
EndSplineSet
EndChar
StartChar: kappa
Encoding: 954 954 105
Width: 576
Flags: HMW
HStem: -11 22<422.5 447> 342 89<444.5 476>
VStem: 346 68<142.5 177.5> 422 92
Fore
59 39 m 1
 151 406 l 2
 160 442 188 442 191 442 c 0
 208 442 220 432 220 415 c 0
 220 410 208 363 202 337 c 0
 197 320 185 270 182 259 c 1
 218 271 242 286 310 344 c 0
 354 381 413 431 474 431 c 0
 510 431 514 405 514 396 c 0
 514 371 492 342 460 342 c 0
 429 342 422 365 422 377 c 0
 422 382 425 394 427 399 c 1
 387 382 358 358 312 319 c 0
 285 296 253 269 220 251 c 1
 276 249 414 242 414 148 c 0
 414 137 411 124 409 115 c 0
 405 98 401 74 401 59 c 0
 401 24 412 11 433 11 c 0
 478 11 501 66 520 135 c 0
 523 149 524 153 534 153 c 0
 537 153 546 153 546 143 c 0
 546 141 534 83 509 41 c 0
 489 7 463 -11 431 -11 c 0
 379 -11 339 29 339 88 c 0
 339 96 340 107 344 123 c 0
 346 133 346 138 346 145 c 0
 346 210 259 227 175 230 c 1
 132 62 138 81 128 45 c 0
 120 13 114 -11 84 -11 c 0
 69 -11 55 -2 55 16 c 0
 55 23 55 25 59 39 c 1
EndSplineSet
EndChar
StartChar: lambda
Encoding: 955 955 106
Width: 583
Flags: HMW
HStem: -13 21 674 20<191.5 217.5>
VStem: 53 494
Fore
357 292 m 1
 116 8 l 2
 108 -2 99 -13 83 -13 c 0
 67 -13 53 -1 53 16 c 0
 53 29 59 35 71 47 c 2
 347 321 l 1
 331 368 276 521 250 593 c 0
 225 661 218 667 185 673 c 0
 184 673 176 675 176 683 c 0
 176 694 189 694 194 694 c 0
 241 694 295 681 316 623 c 2
 520 54 l 2
 527 34 533 19 543 8 c 0
 546 4 548 2 548 -1 c 0
 548 -4 547 -10 537 -11 c 2
 515 -11 l 2
 488 -11 478 -11 462 11 c 0
 446 34 398 187 357 292 c 1
EndSplineSet
EndChar
StartChar: uni03BC
Encoding: 956 956 107
Width: 602
Flags: W
HStem: -11 22<237 255 461 479> 411 20G<488.5 498.5>
DStem: 177 406 231 351 33 -173 189 183 452 396 488 269 405 209 460 161
Fore
231 351 m 2
 189 183 l 2
 182 155 175 127 175 98 c 0
 175 44 199 11 249 11 c 0
 330 11 378 102 379 107 c 0
 382 117 393 159 405 209 c 0
 420 271 439 346 452 396 c 0
 460 430 486 431 491 431 c 0
 506 431 520 422 520 404 c 0
 520 398 510 360 505 337 c 0
 501 322 491 284 488 269 c 0
 479 233 469 197 460 161 c 0
 452 126 440 79 440 57 c 0
 440 37 443 11 470 11 c 0
 511 11 529 70 546 135 c 0
 549 149 550 153 560 153 c 0
 563 153 572 153 572 143 c 0
 572 141 559 80 542 44 c 0
 526 12 503 -11 468 -11 c 0
 424 -11 387 17 378 62 c 1
 354 34 315 -11 245 -11 c 0
 225 -11 180 -7 148 20 c 1
 110 -134 97 -186 93 -195 c 0
 91 -198 79 -216 58 -216 c 0
 41 -216 30 -204 30 -189 c 0
 30 -187 30 -185 33 -173 c 2
 177 406 l 1
 186 441 214 442 217 442 c 0
 234 442 246 432 246 415 c 0
 246 410 236 372 231 351 c 2
EndSplineSet
EndChar
StartChar: nu
Encoding: 957 957 108
Width: 493
Flags: W
HStem: 0 21G<69 83> 400 42<94 211>
VStem: 70 154<412 431>
DStem: 125 302 224 431 64 57 126 33
Fore
224 431 m 1
 126 33 l 1
 240 70 392 182 456 409 c 0
 464 438 487 442 495 442 c 0
 512 442 524 432 524 415 c 0
 524 406 497 270 365 147 c 0
 262 51 153 12 83 0 c 1
 69 0 l 2
 63 0 53 1 53 12 c 0
 53 14 60 42 64 57 c 1
 125 302 l 1
 132 329 144 376 144 383 c 0
 144 393 142 400 94 400 c 0
 79 400 70 400 70 412 c 0
 70 430 81 431 89 432 c 0
 115 434 188 442 211 442 c 0
 224 442 224 432 224 431 c 1
EndSplineSet
EndChar
StartChar: omicron
Encoding: 959 959 109
Width: 484
Flags: HMW
HStem: -11 22<180.5 225> 420 22<294 337>
VStem: 41 74<108.5 144.5> 396 73<292.5 325>
Fore
469 273 m 0
 469 127 334 -11 201 -11 c 0
 108 -11 41 59 41 158 c 0
 41 300 175 442 309 442 c 0
 399 442 469 377 469 273 c 0
202 11 m 0
 248 11 303 45 338 103 c 0
 376 168 396 273 396 312 c 0
 396 372 366 420 308 420 c 0
 280 420 223 405 173 328 c 0
 141 277 115 169 115 120 c 0
 115 42 159 11 202 11 c 0
EndSplineSet
EndChar
StartChar: pi
Encoding: 960 960 110
Width: 570
Flags: W
HStem: -11 21G<125.5 147 372.5 390> 373 58<170 239 192 378 192 529>
VStem: 336 50<115 214>
Fore
265 373 m 1
 209 152 l 1
 196 102 196 100 182 54 c 0
 170 17 162 -11 132 -11 c 0
 119 -11 103 -3 103 16 c 0
 103 23 103 25 111 40 c 0
 153 131 207 252 239 373 c 1
 182 373 l 2
 162 373 104 373 55 296 c 0
 49 288 47 284 39 284 c 0
 27 284 27 293 27 294 c 0
 27 299 53 345 88 384 c 0
 132 431 170 431 192 431 c 2
 527 431 l 2
 546 431 567 431 567 407 c 0
 567 373 531 373 518 373 c 2
 404 373 l 1
 393 321 386 267 386 214 c 0
 386 186 386 121 415 49 c 0
 421 35 421 33 421 27 c 0
 421 7 400 -11 380 -11 c 0
 365 -11 354 -5 344 39 c 0
 336 73 336 100 336 115 c 0
 336 182 345 225 378 373 c 1
 265 373 l 1
EndSplineSet
EndChar
StartChar: theta
Encoding: 952 952 111
Width: 591
Flags: W
HStem: -11 22<211 274.5> 420 22<113 139.5> 683 22<384 431.5>
VStem: 107 64<76.5 104> 272 25<477.5 554> 471 60
CounterMasks: 1 00
Fore
511 356 m 1
 540 350 l 2
 554 347 561 346 561 338 c 0
 561 329 555 326 551 326 c 0
 545 326 516 333 506 335 c 1
 455 147 348 -11 242 -11 c 0
 177 -11 107 9 107 104 c 0
 107 133 113 158 121 188 c 0
 126 210 135 244 139 261 c 0
 148 298 162 352 162 374 c 0
 162 412 148 420 131 420 c 0
 95 420 75 372 58 301 c 0
 52 279 51 278 41 278 c 0
 39 278 29 278 29 288 c 0
 29 291 42 351 60 385 c 0
 69 403 88 442 134 442 c 0
 180 442 225 410 225 350 c 0
 225 335 220 314 215 297 c 1
 203 249 l 1
 196 219 190 197 184 172 c 0
 179 149 171 117 171 91 c 0
 171 62 177 11 245 11 c 0
 304 11 352 110 365 138 c 0
 398 206 414 264 436 354 c 1
 366 377 272 425 272 522 c 0
 272 600 337 705 420 705 c 0
 525 705 531 543 531 506 c 0
 531 494 531 440 511 356 c 1
442 376 m 1
 455 433 471 501 471 564 c 0
 471 668 444 683 419 683 c 0
 349 683 297 585 297 523 c 0
 297 432 393 393 442 376 c 1
EndSplineSet
EndChar
StartChar: rho
Encoding: 961 961 112
Width: 517
Flags: W
HStem: -175 58<185 240> -11 22<255 267> 420 22<355 371>
VStem: 74 30<-77 -50> 430 72<279 322>
Fore
127 96 m 1
 104 -4 104 -42 104 -50 c 0
 104 -117 150 -117 240 -117 c 0
 340 -117 384 -117 384 -166 c 0
 384 -190 378 -194 369 -194 c 0
 358 -194 358 -188 357 -182 c 0
 356 -174 352 -173 337 -172 c 0
 331 -171 329 -171 311 -171 c 0
 271 -171 251 -175 214 -175 c 0
 92 -175 74 -128 74 -77 c 0
 74 12 134 233 138 244 c 0
 184 372 283 442 363 442 c 0
 436 442 502 385 502 279 c 0
 502 132 375 -11 255 -11 c 0
 191 -11 144 32 127 96 c 1
255 11 m 0
 293 11 341 43 374 106 c 0
 401 155 430 267 430 322 c 0
 430 391 398 420 361 420 c 0
 328 420 278 395 237 325 c 0
 211 279 182 179 182 116 c 0
 182 34 223 11 255 11 c 0
EndSplineSet
EndChar
StartChar: sigma
Encoding: 963 963 113
Width: 571
Flags: W
HStem: -11 22<181 199> 373 58<281 300 300 535>
VStem: 38 62<119 147> 375 64<260 278>
Fore
518 373 m 2
 408 373 l 1
 439 329 439 281 439 264 c 0
 439 110 306 -11 188 -11 c 0
 97 -11 38 59 38 147 c 0
 38 266 149 431 300 431 c 2
 528 431 l 2
 546 431 567 431 567 407 c 0
 567 373 531 373 518 373 c 2
189 11 m 0
 228 11 282 37 321 96 c 0
 355 147 375 229 375 276 c 0
 375 307 367 373 283 373 c 0
 249 373 189 359 147 290 c 0
 112 231 100 149 100 119 c 0
 100 47 140 11 189 11 c 0
EndSplineSet
EndChar
StartChar: tau
Encoding: 964 964 114
Width: 437
Flags: HMW
HStem: -12 21<175 202.5> 373 58<191 265 294 462 294 294>
Fore
294 373 m 1
 227 31 l 2
 224 16 219 -12 186 -12 c 0
 164 -12 157 4 157 15 c 0
 157 19 163 40 167 52 c 0
 177 86 217 213 265 373 c 1
 182 373 l 2
 161 373 104 373 55 296 c 0
 49 288 47 284 39 284 c 0
 27 284 27 293 27 294 c 0
 27 300 55 348 88 384 c 0
 132 431 171 431 191 431 c 2
 471 431 l 2
 490 431 511 431 511 407 c 0
 511 373 475 373 462 373 c 2
 294 373 l 1
EndSplineSet
EndChar
StartChar: upsilon
Encoding: 965 965 115
Width: 540
Flags: W
HStem: -11 22<268 286> 420 22<156 163>
VStem: 110 65<105 123> 183 60<360 388> 430 94<372 394>
Fore
524 372 m 0
 524 356 513 219 443 107 c 0
 420 71 360 -11 270 -11 c 0
 197 -11 110 17 110 121 c 0
 110 151 118 191 160 302 c 0
 173 337 183 362 183 388 c 0
 183 420 166 420 158 420 c 0
 124 420 84 391 57 296 c 0
 52 280 51 278 41 278 c 0
 39 278 29 278 29 288 c 0
 29 297 66 442 161 442 c 0
 211 442 243 405 243 360 c 0
 243 341 237 324 232 313 c 0
 191 203 175 151 175 109 c 0
 175 88 179 58 200 36 c 0
 221 15 254 11 273 11 c 0
 399 11 481 216 481 282 c 0
 481 330 456 356 445 367 c 0
 436 375 430 381 430 394 c 0
 430 416 455 442 480 442 c 0
 497 442 524 428 524 372 c 0
EndSplineSet
EndChar
StartChar: omega1
Encoding: 982 982 116
Width: 828
Flags: HMW
HStem: -11 58<188 242 499.5 586> 373 58<192 217 248 248 248 718 744 752.5>
VStem: 113 30<108.5 159> 416 32<128.5 130.5 153 153> 730 25<250 307>
Fore
192 431 m 2
 777 431 l 2
 796 431 817 431 817 407 c 0
 817 390 803 379 794 375 c 0
 788 373 761 373 744 373 c 1
 751 349 755 324 755 299 c 0
 755 201 666 -11 520 -11 c 0
 439 -11 416 55 416 126 c 0
 416 135 416 146 417 152 c 1
 416 153 l 1
 369 69 298 -11 201 -11 c 0
 127 -11 113 54 113 105 c 0
 113 213 160 302 217 373 c 1
 154 373 143 373 114 355 c 0
 88 340 70 320 55 297 c 0
 49 287 47 284 39 284 c 0
 27 284 27 293 27 294 c 0
 27 299 53 345 88 384 c 0
 132 431 170 431 192 431 c 2
718 373 m 1
 248 373 l 1
 189 303 143 220 143 138 c 0
 143 79 165 47 211 47 c 0
 273 47 384 97 440 283 c 0
 442 292 445 294 453 294 c 0
 455 294 465 294 465 284 c 0
 465 283 465 281 461 265 c 0
 449 211 448 176 448 163 c 0
 448 94 469 47 530 47 c 0
 642 47 730 195 730 299 c 0
 730 315 726 349 718 373 c 1
EndSplineSet
EndChar
StartChar: omega
Encoding: 969 969 117
Width: 622
Flags: HMW
HStem: -11 72<100 150 367.5 387.5> 423 20
VStem: 13 32 267 69 512 93<387.5 405>
Fore
264 82 m 1
 232 35 184 -11 119 -11 c 0
 43 -11 13 51 13 131 c 0
 13 140 14 222 51 311 c 0
 65 343 111 431 127 431 c 0
 133 431 139 427 139 419 c 0
 139 416 139 414 129 400 c 0
 82 333 45 250 45 175 c 0
 45 116 67 61 133 61 c 0
 167 61 213 77 257 138 c 1
 264 145 264 147 266 165 c 0
 273 217 285 261 287 266 c 0
 295 282 304 291 315 291 c 0
 329 291 336 280 336 268 c 0
 336 255 322 200 303 155 c 1
 297 144 297 142 297 139 c 0
 297 119 305 100 317 84 c 0
 335 61 363 61 372 61 c 0
 477 61 562 195 562 280 c 0
 562 302 559 334 527 367 c 1
 518 375 512 381 512 394 c 0
 512 416 537 442 562 442 c 0
 568 442 605 442 605 371 c 0
 605 337 586 186 511 82 c 0
 471 27 417 -11 358 -11 c 0
 307 -11 273 19 264 82 c 1
EndSplineSet
EndChar
StartChar: xi
Encoding: 958 958 118
Width: 437
Flags: HMW
HStem: -205 22<253 290.5> 289 22<276.5 300> 325 22<289 312.5> 561 22<348.5 369.5> 597 22<358.5 381> 677 20<279 291.5>
VStem: 24 51 103 80 270 30 324 55<-122.5 -115.5>
Fore
154 306 m 1
 167 316 l 1
 120 343 102 385 102 422 c 0
 102 499 170 579 277 609 c 1
 276 613 270 628 270 648 c 0
 270 651 270 697 288 697 c 0
 295 697 300 692 300 684 c 0
 300 682 295 661 295 647 c 0
 295 630 297 623 300 614 c 1
 326 619 350 619 363 619 c 0
 402 619 446 618 446 592 c 0
 446 561 382 561 357 561 c 0
 334 561 311 561 293 583 c 1
 218 546 182 469 182 413 c 0
 182 394 186 361 212 335 c 1
 249 347 278 347 296 347 c 0
 335 347 378 345 378 320 c 0
 378 289 315 289 285 289 c 0
 264 289 234 289 197 302 c 1
 113 260 74 173 74 132 c 0
 74 90 104 61 149 43 c 2
 209 19 l 1
 230 12 250 4 270 -4 c 0
 283 -9 317 -22 331 -27 c 0
 342 -32 379 -50 379 -98 c 0
 379 -147 337 -205 275 -205 c 0
 219 -205 166 -169 166 -157 c 0
 166 -153 168 -146 176 -146 c 0
 180 -146 181 -147 187 -151 c 0
 198 -159 231 -183 275 -183 c 0
 306 -183 324 -153 324 -130 c 0
 324 -101 304 -94 289 -87 c 0
 230 -64 228 -64 168 -40 c 0
 93 -12 84 -8 52 25 c 0
 50 28 23 56 23 104 c 0
 23 140 45 234 154 306 c 1
316 592 m 1
 327 583 339 583 358 583 c 0
 402 583 412 588 420 591 c 1
 402 596 398 597 364 597 c 0
 353 597 332 597 316 592 c 1
238 319 m 1
 256 311 265 311 288 311 c 0
 334 311 344 315 352 319 c 1
 334 324 330 325 295 325 c 0
 283 325 261 325 238 319 c 1
EndSplineSet
EndChar
StartChar: psi
Encoding: 968 968 119
Width: 651
Flags: HMW
HStem: -205 21<247 254> -11 22<317 330.5> 420 22<141 162> 674 20
VStem: 112 66<92 135> 183 60<375 382.5> 541 94<387.5 400>
Fore
482 668 m 2
 317 11 l 1
 353 11 417 11 505 100 c 0
 540 136 592 218 592 282 c 0
 592 330 567 356 556 367 c 0
 547 375 541 381 541 394 c 0
 541 416 566 442 591 442 c 0
 608 442 635 428 635 372 c 0
 635 328 613 241 604 216 c 0
 593 186 572 142 531 96 c 0
 437 -11 349 -11 312 -11 c 1
 299 -61 287 -111 274 -160 c 0
 271 -174 265 -199 262 -201 c 1
 260 -205 255 -205 253 -205 c 0
 241 -205 241 -196 241 -195 c 0
 241 -192 261 -111 264 -100 c 0
 278 -47 278 -45 286 -9 c 1
 190 -3 112 38 112 133 c 0
 112 150 112 176 160 302 c 0
 173 337 183 362 183 388 c 0
 183 420 166 420 158 420 c 0
 124 420 84 391 57 296 c 0
 52 280 51 278 41 278 c 0
 39 278 29 278 29 288 c 0
 29 297 66 442 161 442 c 0
 211 442 243 405 243 360 c 0
 243 340 236 323 232 311 c 0
 178 171 178 145 178 125 c 0
 178 59 216 22 292 13 c 1
 458 674 l 1
 462 692 463 694 473 694 c 0
 478 694 485 693 485 683 c 0
 485 678 483 672 482 668 c 2
EndSplineSet
EndChar
StartChar: zeta
Encoding: 950 950 120
Width: 437
Flags: HMW
HStem: -205 22<263 294.5> 561 22<375.5 397.5> 597 22<388.5 409.5> 677 20<307 319.5>
VStem: 47 55 298 25<639.5 649.5> 332 53<-112.5 -93.5>
Fore
324 579 m 1
 223 525 101 350 101 195 c 0
 101 176 101 119 143 81 c 0
 167 60 183 55 263 28 c 0
 322 8 341 2 358 -17 c 0
 366 -25 385 -46 385 -84 c 0
 385 -141 338 -205 276 -205 c 0
 223 -205 180 -167 180 -157 c 0
 180 -150 185 -146 190 -146 c 0
 194 -146 195 -147 202 -153 c 0
 223 -171 250 -183 276 -183 c 0
 313 -183 332 -144 332 -117 c 0
 332 -70 291 -56 270 -49 c 0
 241 -39 239 -39 209 -28 c 0
 137 -4 46 26 46 167 c 0
 46 361 204 545 309 598 c 1
 301 613 298 631 298 648 c 0
 298 651 298 697 316 697 c 0
 323 697 328 692 328 684 c 0
 328 682 323 661 323 647 c 0
 323 626 325 621 330 609 c 1
 356 619 383 619 394 619 c 0
 434 619 474 617 474 592 c 0
 474 561 410 561 385 561 c 0
 365 561 342 561 324 579 c 1
347 590 m 1
 358 583 365 583 386 583 c 0
 430 583 440 588 448 591 c 1
 430 596 426 597 393 597 c 0
 380 597 362 597 347 590 c 1
EndSplineSet
EndChar
StartChar: braceleft
Encoding: 123 123 121
Width: 500
Flags: HMW
HStem: -250 21<391.5 413> 237 24 730 20<357 413>
VStem: 216 67<-83 56 444 563>
Fore
283 563 m 2
 283 383 l 2
 283 355 283 284 165 250 c 1
 204 239 268 213 281 147 c 0
 283 137 283 86 283 56 c 2
 283 -94 l 2
 283 -129 283 -131 286 -142 c 0
 295 -178 332 -223 411 -228 c 0
 421 -229 427 -229 427 -239 c 0
 427 -250 419 -250 407 -250 c 0
 376 -250 311 -242 268 -212 c 0
 216 -175 216 -141 216 -83 c 2
 216 115 l 2
 216 215 131 236 88 239 c 0
 78 240 72 240 72 250 c 0
 72 260 79 261 86 261 c 0
 149 265 176 292 190 306 c 0
 216 334 216 350 216 444 c 2
 216 627 l 1
 218 699 307 750 407 750 c 0
 419 750 427 750 427 739 c 0
 427 733 423 729 418 728 c 0
 348 724 325 700 307 682 c 0
 283 657 283 635 283 563 c 2
EndSplineSet
EndChar
StartChar: bar
Encoding: 124 124 122
Width: 277
Flags: HMW
HStem: -250 21<129 149> 730 20<129 149>
VStem: 119 40<-217 717>
Fore
159 717 m 2
 159 -217 l 2
 159 -231 159 -250 139 -250 c 0
 119 -250 119 -231 119 -217 c 2
 119 717 l 2
 119 731 119 750 139 750 c 0
 159 750 159 731 159 717 c 2
EndSplineSet
EndChar
StartChar: braceright
Encoding: 125 125 123
Width: 500
Flags: HMW
HStem: -250 21<87 142> 239 21<413 416.5> 729 21
VStem: 216 67<-63 56 444 583>
Fore
283 583 m 2
 283 385 l 2
 283 285 368 264 411 261 c 0
 421 260 427 260 427 250 c 0
 427 240 420 239 413 239 c 0
 350 235 323 208 309 194 c 0
 283 166 283 150 283 56 c 2
 283 -127 l 1
 281 -199 192 -250 92 -250 c 0
 82 -250 72 -250 72 -239 c 0
 72 -233 76 -229 81 -228 c 0
 151 -224 174 -200 192 -182 c 0
 216 -157 216 -135 216 -63 c 2
 216 117 l 2
 216 145 216 216 334 250 c 1
 295 261 231 287 218 353 c 0
 216 363 216 414 216 444 c 2
 216 594 l 2
 216 629 216 631 213 642 c 0
 204 678 167 723 88 728 c 0
 78 729 72 729 72 739 c 0
 72 750 82 750 92 750 c 0
 124 750 188 741 231 712 c 0
 283 675 283 641 283 583 c 2
EndSplineSet
LCarets2: 1 0 
Ligature2: "'liga' Standard Ligatures lookup 0 subtable" space uni030B
EndChar
StartChar: similar
Encoding: 8764 8764 124
Width: 777
Flags: HMW
HStem: 133 56<531.5 585.5> 311 56<195.5 245.5>
VStem: 56 665
Fore
721 334 m 0
 721 239 659 133 555 133 c 0
 508 133 464 152 400 209 c 0
 326 275 285 311 222 311 c 0
 169 311 89 273 84 157 c 0
 84 154 81 134 70 134 c 0
 63 134 56 142 56 166 c 0
 56 261 118 367 222 367 c 0
 269 367 313 348 377 291 c 0
 451 225 492 189 555 189 c 0
 616 189 688 237 693 340 c 0
 694 350 697 366 707 366 c 0
 716 366 721 355 721 334 c 0
EndSplineSet
Ligature2: "'liga' Standard Ligatures lookup 0 subtable" space tildecomb
EndChar
StartChar: circlemultiply
Encoding: 8855 8855 125
Width: 777
Flags: W
HStem: -83 25<369 408> 558 25<369 408>
VStem: 56 25<250 270> 696 25<250 270>
DStem: 162 459 180 476 371 250 389 268 388 232 406 250 597 24 615 41 597 477 614 459 162 41 180 23
Fore
721 250 m 0
 721 68 573 -83 388 -83 c 0
 207 -83 56 65 56 250 c 0
 56 432 204 583 389 583 c 0
 570 583 721 435 721 250 c 0
180 476 m 1
 389 268 l 1
 597 477 l 1
 536 531 462 558 388 558 c 0
 305 558 231 523 180 476 c 1
162 41 m 1
 371 250 l 1
 162 459 l 1
 112 403 81 330 81 250 c 0
 81 179 106 104 162 41 c 1
614 459 m 1
 406 250 l 1
 615 41 l 1
 665 97 696 170 696 250 c 0
 696 343 654 417 614 459 c 1
597 24 m 1
 388 232 l 1
 180 23 l 1
 241 -31 315 -58 389 -58 c 0
 472 -58 546 -23 597 24 c 1
EndSplineSet
Ligature2: "'liga' Standard Ligatures lookup 0 subtable" space uni0308
EndChar
StartChar: Upsilon1
Encoding: 978 978 126
Width: 777
Flags: W
HStem: 0 31<216 228 549 561> 535 170<72 187> 628 77<171.246 201 583 601>
VStem: 344 89<79 369>
Fore
433 351 m 2xb0
 433 79 l 2
 433 44 433 31 528 31 c 2
 561 31 l 1
 561 0 l 1
 525 3 429 3 388 3 c 0
 347 3 252 3 216 0 c 1
 216 31 l 1
 249 31 l 2
 344 31 344 45 344 79 c 2
 344 351 l 2
 344 431 324 628 186 628 c 0xb0
 181 628 95 628 87 548 c 0
 86 543 86 535 72 535 c 0
 56 535 56 544 56 552 c 0
 56 612 96 705 187 705 c 0xd0
 346 705 381 505 388 462 c 1
 389 462 l 1
 413 614 486 705 590 705 c 0xb0
 681 705 721 612 721 552 c 0
 721 544 721 535 705 535 c 0xd0
 692 535 691 542 690 551 c 0
 683 613 622 628 591 628 c 0
 459 628 433 446 433 351 c 2xb0
EndSplineSet
EndChar
StartChar: arrowboth
Encoding: 8596 8596 127
Width: 1000
Flags: W
HStem: 230 40<141 858>
Fore
858 230 m 1
 141 230 l 1
 216 175 249 92 249 84 c 0
 249 75 241 72 234 72 c 0
 223 72 221 77 217 86 c 0
 190 144 152 198 69 237 c 0
 62 241 57 243 57 250 c 0
 57 257 60 258 71 264 c 0
 171 311 203 383 218 418 c 0
 220 422 222 428 234 428 c 0
 241 428 249 425 249 416 c 0
 249 408 216 325 141 270 c 1
 858 270 l 1
 783 325 750 408 750 416 c 0
 750 425 758 428 765 428 c 0
 776 428 778 423 782 414 c 0
 823 322 881 285 935 260 c 0
 936 260 942 257 942 250 c 0
 942 243 940 242 928 236 c 0
 828 189 796 116 781 82 c 0
 779 78 777 72 765 72 c 0
 758 72 750 75 750 84 c 0
 750 92 783 175 858 230 c 1
EndSplineSet
EndChar
StartChar: arrowleft
Encoding: 8592 8592 128
Width: 1000
Flags: W
HStem: 230 40<141 922>
Fore
910 230 m 2
 141 230 l 1
 216 175 249 92 249 84 c 0
 249 75 241 72 234 72 c 0
 223 72 221 77 217 86 c 0
 190 144 152 198 69 237 c 0
 62 241 57 243 57 250 c 0
 57 257 60 258 71 264 c 0
 171 311 203 383 218 418 c 0
 220 422 222 428 234 428 c 0
 241 428 249 425 249 416 c 0
 249 408 216 325 141 270 c 1
 910 270 l 2
 925 270 943 270 943 250 c 0
 943 230 925 230 910 230 c 2
EndSplineSet
EndChar
StartChar: circleplus
Encoding: 8853 8853 129
Width: 777
Flags: W
HStem: 238 25<81 376 401 696>
VStem: 376 25<-58 238 263 558>
Fore
721 250 m 0
 721 68 573 -83 388 -83 c 0
 207 -83 56 65 56 250 c 0
 56 432 204 583 389 583 c 0
 570 583 721 435 721 250 c 0
81 263 m 1
 376 263 l 1
 376 558 l 1
 207 548 89 417 81 263 c 1
401 558 m 1
 401 263 l 1
 696 263 l 1
 688 417 570 548 401 558 c 1
376 -58 m 1
 376 238 l 1
 81 238 l 1
 89 81 209 -48 376 -58 c 1
696 238 m 1
 401 238 l 1
 401 -58 l 1
 568 -48 688 81 696 238 c 1
EndSplineSet
EndChar
StartChar: emptyset
Encoding: 8709 8709 130
Width: 500
Flags: W
HStem: -22 22<249 256> 694 22<250 256>
VStem: 47 67<289 403> 385 67<289 403>
DStem: 322 666 352 626 147 70 178 29
Fore
383 734 m 1
 365 669 l 1
 451 584 452 427 452 345 c 0
 452 273 449 190 423 120 c 0
 405 72 361 -22 249 -22 c 0
 222 -22 192 -14 168 -1 c 1
 166 -7 156 -43 155 -46 c 0
 149 -68 146 -78 131 -78 c 0
 120 -78 111 -69 111 -58 c 0
 111 -56 115 -43 134 25 c 1
 47 100 47 284 47 345 c 0
 47 438 52 528 91 609 c 0
 128 686 193 716 250 716 c 0
 287 716 319 701 331 695 c 1
 333 701 343 737 344 740 c 0
 350 762 353 772 368 772 c 0
 379 772 388 763 388 752 c 0
 388 751 383 735 383 734 c 1
147 70 m 1
 322 666 l 1
 296 688 270 694 250 694 c 0
 205 694 147 664 128 571 c 0
 114 507 114 438 114 357 c 0
 114 262 114 139 147 70 c 1
352 626 m 1
 178 29 l 1
 202 8 226 0 249 0 c 0
 302 0 355 38 373 143 c 0
 385 210 385 284 385 357 c 0
 385 452 385 568 352 626 c 1
EndSplineSet
EndChar
StartChar: intersection
Encoding: 8745 8745 131
Width: 666
Flags: W
HStem: -22 21G<66 86 580 600> 558 40<333 345>
VStem: 56 40<-5.30468 395> 570 40<-5.30468 395>
Fore
610 381 m 2
 610 11 l 2
 610 -3 610 -22 590 -22 c 0
 570 -22 570 -3 570 11 c 2
 570 378 l 2
 570 512 428 558 333 558 c 0
 237 558 96 511 96 378 c 2
 96 11 l 2
 96 -3 96 -22 76 -22 c 0
 56 -22 56 -3 56 11 c 2
 56 381 l 2
 56 526 202 598 333 598 c 0
 464 598 610 527 610 381 c 2
EndSplineSet
EndChar
StartChar: union
Encoding: 8746 8746 132
Width: 666
Flags: W
HStem: -22 40<333 345>
VStem: 56 40<185 571> 570 40<185 571>
Fore
610 565 m 2
 610 195 l 2
 610 50 464 -22 333 -22 c 0
 202 -22 56 49 56 195 c 2
 56 565 l 2
 56 579 56 598 76 598 c 0
 96 598 96 579 96 565 c 2
 96 198 l 2
 96 64 238 18 333 18 c 0
 429 18 570 65 570 198 c 2
 570 565 l 2
 570 579 570 598 590 598 c 0
 610 598 610 579 610 565 c 2
EndSplineSet
EndChar
StartChar: propersuperset
Encoding: 8835 8835 133
Width: 777
Flags: W
HStem: -40 40<99.6953 404> 500 40<99.6953 404>
VStem: 654 40<250 265>
Fore
387 500 m 2
 116 500 l 2
 102 500 83 500 83 520 c 0
 83 540 102 540 116 540 c 2
 390 540 l 2
 550 540 694 418 694 250 c 0
 694 82 550 -40 390 -40 c 2
 116 -40 l 2
 102 -40 83 -40 83 -20 c 0
 83 0 102 0 116 0 c 2
 387 0 l 2
 537 0 654 111 654 250 c 0
 654 389 536 500 387 500 c 2
EndSplineSet
EndChar
StartChar: reflexsuperset
Encoding: 8839 8839 134
Width: 777
Flags: W
HStem: -137 40<99.6953 656> 57 40<99.6953 404> 596 40<99.6953 404>
VStem: 654 40<326 360>
Fore
386 596 m 2
 116 596 l 2
 102 596 83 596 83 616 c 0
 83 636 102 636 116 636 c 2
 389 636 l 2
 552 636 694 513 694 346 c 0
 694 181 551 57 390 57 c 2
 116 57 l 2
 102 57 83 57 83 77 c 0
 83 97 102 97 116 97 c 2
 387 97 l 2
 535 97 654 207 654 347 c 0
 654 482 540 596 386 596 c 2
641 -137 m 2
 116 -137 l 2
 102 -137 83 -137 83 -117 c 0
 83 -97 102 -97 116 -97 c 2
 641 -97 l 2
 655 -97 674 -97 674 -117 c 0
 674 -137 655 -137 641 -137 c 2
EndSplineSet
EndChar
StartChar: notsubset
Encoding: 8836 8836 135
Width: 777
Flags: W
HStem: -40 40<370 676> 500 40<370 484 387 676>
VStem: 83 40<250 265>
DStem: 596 698 631 678 146 -178 181 -198
Fore
631 678 m 2
 181 -198 l 2
 175 -210 169 -216 159 -216 c 0
 145 -216 139 -203 139 -196 c 0
 139 -192 140 -190 146 -178 c 2
 596 698 l 2
 602 710 608 716 618 716 c 0
 632 716 638 703 638 696 c 0
 638 692 637 690 631 678 c 2
661 500 m 2
 390 500 l 2
 240 500 123 389 123 250 c 0
 123 111 241 0 390 0 c 2
 661 0 l 2
 675 0 694 0 694 -20 c 0
 694 -40 675 -40 661 -40 c 2
 387 -40 l 2
 227 -40 83 82 83 250 c 0
 83 418 227 540 387 540 c 2
 661 540 l 2
 675 540 694 540 694 520 c 0
 694 500 675 500 661 500 c 2
EndSplineSet
EndChar
StartChar: propersubset
Encoding: 8834 8834 136
Width: 777
Flags: W
HStem: -40 40<370 676> 500 40<370 676>
VStem: 83 40<250 265>
Fore
661 500 m 2
 390 500 l 2
 240 500 123 389 123 250 c 0
 123 111 241 0 390 0 c 2
 661 0 l 2
 675 0 694 0 694 -20 c 0
 694 -40 675 -40 661 -40 c 2
 387 -40 l 2
 227 -40 83 82 83 250 c 0
 83 418 227 540 387 540 c 2
 661 540 l 2
 675 540 694 540 694 520 c 0
 694 500 675 500 661 500 c 2
EndSplineSet
EndChar
StartChar: reflexsubset
Encoding: 8838 8838 137
Width: 777
Flags: W
HStem: -137 40<136 676> 57 40<370 676> 596 40<370 676>
VStem: 83 40<326 360>
Fore
661 596 m 2
 390 596 l 2
 242 596 123 486 123 346 c 0
 123 211 237 97 391 97 c 2
 661 97 l 2
 675 97 694 97 694 77 c 0
 694 57 675 57 661 57 c 2
 388 57 l 2
 226 57 83 180 83 347 c 0
 83 512 226 636 387 636 c 2
 661 636 l 2
 675 636 694 636 694 616 c 0
 694 596 675 596 661 596 c 2
136 -97 m 2
 661 -97 l 2
 675 -97 694 -97 694 -117 c 0
 694 -137 675 -137 661 -137 c 2
 136 -137 l 2
 122 -137 103 -137 103 -117 c 0
 103 -97 122 -97 136 -97 c 2
EndSplineSet
EndChar
StartChar: element
Encoding: 8712 8712 138
Width: 666
Flags: W
HStem: -40 40<370 564> 230 40<124 564> 500 40<370 564>
CounterMasks: 1 00
Fore
550 230 m 2
 124 230 l 1
 136 96 251 0 391 0 c 2
 550 0 l 2
 564 0 583 0 583 -20 c 0
 583 -40 564 -40 550 -40 c 2
 388 -40 l 2
 225 -40 83 84 83 250 c 0
 83 418 227 540 387 540 c 2
 550 540 l 2
 564 540 583 540 583 520 c 0
 583 500 564 500 550 500 c 2
 390 500 l 2
 254 500 136 406 124 270 c 1
 550 270 l 2
 564 270 583 270 583 250 c 0
 583 230 564 230 550 230 c 2
EndSplineSet
EndChar
StartChar: notelement
Encoding: 8713 8713 139
Width: 666
Flags: W
HStem: -40 40<367 566> 230 40<124 566> 500 40<367 436 387 566>
DStem: 542 698 577 678 92 -178 127 -198
CounterMasks: 1 00
Fore
550 230 m 2
 124 230 l 1
 136 96 251 0 391 0 c 2
 550 0 l 2
 564 0 583 0 583 -20 c 0
 583 -40 564 -40 550 -40 c 2
 388 -40 l 2
 225 -40 83 84 83 250 c 0
 83 418 227 540 387 540 c 2
 550 540 l 2
 564 540 583 540 583 520 c 0
 583 500 564 500 550 500 c 2
 390 500 l 2
 254 500 136 406 124 270 c 1
 550 270 l 2
 564 270 583 270 583 250 c 0
 583 230 564 230 550 230 c 2
577 678 m 2
 127 -198 l 2
 121 -210 115 -216 105 -216 c 0
 91 -216 85 -203 85 -196 c 0
 85 -192 86 -190 92 -178 c 2
 542 698 l 2
 548 710 554 716 564 716 c 0
 578 716 584 703 584 696 c 0
 584 692 583 690 577 678 c 2
EndSplineSet
EndChar
StartChar: angle
Encoding: 8736 8736 140
Width: 768
Flags: W
HStem: -1 58<169 701>
DStem: 693 672 738 632 26 0 169 57
Fore
26 0 m 1
 693 672 l 1
 738 632 l 1
 169 57 l 1
 703 57 l 1
 701 -1 l 1
 26 0 l 1
EndSplineSet
EndChar
StartChar: gradient
Encoding: 8711 8711 141
Width: 833
Flags: W
HStem: 612 71<69 720>
DStem: 52 663 170 612 390 -15 445 61 720 612 780 663 446 61 442 -15
Fore
780 663 m 1
 442 -15 l 1
 435 -28 433 -33 416 -33 c 0
 399 -33 397 -28 390 -15 c 1
 52 663 l 1
 47 672 47 674 47 675 c 0
 47 683 53 683 69 683 c 2
 763 683 l 2
 779 683 785 683 785 675 c 0
 785 674 785 672 780 663 c 1
170 612 m 1
 445 61 l 1
 446 61 l 1
 720 612 l 1
 170 612 l 1
EndSplineSet
EndChar
StartChar: registered
Encoding: 174 174 142
Width: 790
Flags: W
HStem: -13 45<395 419> 158 18<214 229.333 373 388 588 601> 333 28<336 362> 514 30<214 394> 526 18<214 229.333> 645 45<394 419>
VStem: 50 51<322 363> 267 69<224 333 224 494> 464 72<434 452> 689 51<322 361>
DStem: 362 333 434 341 502 158 539 214
Fore
502 158 m 1xf7c0
 362 333 l 1
 336 333 l 1
 336 224 l 2
 336 186 343 179 388 176 c 1
 388 158 l 1
 214 158 l 1
 214 176 l 1
 260 179 267 186 267 224 c 2
 267 479 l 2
 267 516 260 523 214 526 c 1xefc0
 214 544 l 1
 372 544 l 2
 426 544 452 540 477 529 c 0
 515 512 536 480 536 440 c 0
 536 388 497 350 434 341 c 1
 539 214 l 1
 564 185 575 178 601 176 c 1
 601 158 l 1
 502 158 l 1xf7c0
336 492 m 2
 336 362 l 1
 343 361 348 361 352 361 c 0
 431 361 464 384 464 439 c 0
 464 490 435 514 373 514 c 0xf7c0
 338 514 336 513 336 492 c 2
394 690 m 0
 588 690 740 533 740 334 c 0
 740 145 583 -13 395 -13 c 0
 205 -13 50 145 50 339 c 0
 50 532 205 690 394 690 c 0
394 645 m 0
 233 645 101 507 101 338 c 0
 101 170 233 32 395 32 c 0
 555 32 689 169 689 335 c 0
 689 508 559 645 394 645 c 0
EndSplineSet
EndChar
StartChar: copyright
Encoding: 169 169 143
Width: 790
Flags: W
HStem: -13 45<396 420> 138 33<396 420> 508 31<393 420> 645 45<395 420>
VStem: 51 51<322 356> 200 76<322 356> 690 51<322 356>
Fore
558 403 m 1
 536 403 l 1
 519 472 476 508 411 508 c 0
 327 508 276 444 276 339 c 0
 276 235 329 171 415 171 c 0
 468 171 504 186 551 229 c 1
 566 213 l 1
 518 161 468 138 404 138 c 0
 282 138 200 218 200 335 c 0
 200 455 285 539 406 539 c 0
 435 539 462 534 491 523 c 0
 498 520 507 518 511 518 c 0
 522 518 525 521 533 539 c 1
 553 539 l 1
 558 403 l 1
395 690 m 0
 589 690 741 533 741 334 c 0
 741 145 584 -13 396 -13 c 0
 206 -13 51 145 51 339 c 0
 51 532 206 690 395 690 c 0
395 645 m 0
 234 645 102 507 102 338 c 0
 102 170 234 32 396 32 c 0
 556 32 690 169 690 335 c 0
 690 508 560 645 395 645 c 0
EndSplineSet
EndChar
StartChar: trademark
Encoding: 8482 8482 144
Width: 890
Flags: W
HStem: 269 22<82 114.37 275 275 356 376.45 356 400 453 491 685 855 841 855> 637 36<18 145 18 243> 651 22<364 395.641 721 855>
VStem: 145 69<321 636> 405 39<316 599> 737 69<325 615>
DStem: 444 599 484 673 576 269 603 382 721 673 737 615 603 382 598 269
Fore
855 673 m 1xbc
 855 651 l 1
 839 651 l 2
 812 651 806 648 806 634 c 2
 806 325 l 2
 806 299 813 294 855 291 c 1
 855 269 l 1
 685 269 l 1
 685 291 l 1
 726 292 737 299 737 325 c 2
 737 615 l 1
 598 269 l 1
 576 269 l 1
 444 599 l 1
 444 330 l 2
 444 299 453 292 491 291 c 1
 491 269 l 1
 356 269 l 1
 356 291 l 1
 400 292 405 296 405 331 c 2
 405 634 l 2
 405 651 405 651 364 651 c 1
 364 673 l 1
 484 673 l 1
 603 382 l 1
 721 673 l 1
 855 673 l 1xbc
343 673 m 1
 343 563 l 1
 320 563 l 1
 318 626 302 637 216 637 c 2
 214 637 l 1
 214 321 l 1
 213 294 219 291 275 291 c 1
 275 269 l 1
 82 269 l 1
 82 291 l 1
 137 291 145 295 145 323 c 2
 145 637 l 1
 139 637 l 2
 57 634 43 624 38 563 c 1
 18 563 l 1
 18 673 l 1xdc
 343 673 l 1
EndSplineSet
EndChar
StartChar: product
Encoding: 8719 8719 145
Width: 944
Flags: W
HStem: -200 40<56 79.8466 359 359 584 607.847 887 887> 760 40<56 79.8466 56 687 56 887>
VStem: 159 97<-102.415 697> 687 97<-102.415 697>
Fore
784 681 m 2
 784 -81 l 2
 784 -111 784 -160 887 -160 c 1
 887 -200 l 1
 584 -200 l 1
 584 -160 l 1
 687 -160 687 -111 687 -81 c 2
 687 760 l 1
 256 760 l 1
 256 -81 l 2
 256 -111 256 -160 359 -160 c 1
 359 -200 l 1
 56 -200 l 1
 56 -160 l 1
 159 -160 159 -111 159 -81 c 2
 159 681 l 2
 159 711 159 760 56 760 c 1
 56 800 l 1
 887 800 l 1
 887 760 l 1
 784 760 784 711 784 681 c 2
EndSplineSet
EndChar
StartChar: radical
Encoding: 8730 8730 146
Width: 549
Flags: W
DStem: 121 461 156 520 363 -35 353 123 156 520 121 461 10 449 26 414 480 913 515 908 353 123 363 -35
Fore
363 -35 m 1
 121 461 l 1
 26 414 l 1
 10 449 l 1
 156 520 l 1
 353 123 l 1
 480 913 l 1
 515 908 l 1
 363 -35 l 1
EndSplineSet
EndChar
StartChar: dotmath
Encoding: 8901 8901 147
Width: 277
Flags: W
Fore
192 250 m 0
 192 221 168 197 139 197 c 0
 110 197 86 221 86 250 c 0
 86 279 110 303 139 303 c 0
 168 303 192 279 192 250 c 0
EndSplineSet
EndChar
StartChar: logicalnot
Encoding: 172 172 148
Width: 666
Flags: W
HStem: 316 40<72.6953 571>
VStem: 570 40<105.255 316>
Fore
610 323 m 2
 610 122 l 2
 610 107 610 89 590 89 c 0
 570 89 570 107 570 122 c 2
 570 316 l 1
 89 316 l 2
 75 316 56 316 56 336 c 0
 56 356 75 356 89 356 c 2
 577 356 l 2
 606 356 610 352 610 323 c 2
EndSplineSet
EndChar
StartChar: logicaland
Encoding: 8743 8743 149
Width: 666
Flags: W
HStem: -22 21G<70.5 79.5 583.5 595.5>
DStem: 311 579 333 529 62 15 98 -3 333 529 355 578 568 -2 604 15
Fore
355 578 m 2
 604 15 l 1
 610 3 610 1 610 -2 c 0
 610 -13 601 -22 590 -22 c 0
 577 -22 573 -13 568 -2 c 2
 333 529 l 1
 98 -3 l 1
 91 -20 83 -22 76 -22 c 0
 65 -22 56 -13 56 -2 c 0
 56 1 56 3 62 15 c 1
 311 579 l 2
 317 593 324 598 333 598 c 0
 346 598 351 588 355 578 c 2
EndSplineSet
EndChar
StartChar: logicalor
Encoding: 8744 8744 150
Width: 666
Flags: W
HStem: -22 21G<326.5 337.5>
DStem: 62 561 98 578 311 -2 333 47 568 579 604 561 333 47 355 -3
Fore
604 561 m 1
 355 -3 l 2
 349 -17 342 -22 333 -22 c 0
 320 -22 315 -12 311 -2 c 2
 62 561 l 1
 56 573 56 575 56 578 c 0
 56 589 65 598 76 598 c 0
 89 598 93 589 98 578 c 2
 333 47 l 1
 568 579 l 1
 575 596 583 598 590 598 c 0
 601 598 610 589 610 578 c 0
 610 575 610 573 604 561 c 1
EndSplineSet
EndChar
StartChar: arrowdblboth
Encoding: 8660 8660 151
Width: 1000
Flags: W
HStem: 133 40<216 743> 327 40<256 783>
Fore
256 367 m 1
 743 367 l 1
 684 437 657 508 657 513 c 0
 657 525 670 525 676 525 c 0
 691 525 692 524 700 506 c 0
 761 368 863 299 957 260 c 0
 958 260 964 258 964 250 c 0
 964 244 960 241 958 240 c 0
 909 220 775 163 700 -7 c 0
 692 -24 692 -25 676 -25 c 0
 670 -25 657 -25 657 -13 c 0
 657 -8 685 64 743 133 c 1
 256 133 l 1
 315 63 342 -8 342 -13 c 0
 342 -25 329 -25 323 -25 c 0
 308 -25 307 -24 299 -6 c 0
 238 132 136 201 42 240 c 0
 41 240 35 242 35 250 c 0
 35 256 39 259 41 260 c 0
 90 280 224 337 299 507 c 0
 307 524 307 525 323 525 c 0
 329 525 342 525 342 513 c 0
 342 508 314 436 256 367 c 1
216 173 m 1
 783 173 l 1
 816 206 858 233 888 250 c 1
 858 267 816 294 783 327 c 1
 216 327 l 1
 183 294 141 267 111 250 c 1
 141 233 183 206 216 173 c 1
EndSplineSet
EndChar
StartChar: arrowdblleft
Encoding: 8656 8656 152
Width: 1000
Flags: W
HStem: 133 40<293 922> 327 40<320 922>
Fore
910 133 m 2
 320 133 l 1
 401 44 420 -11 420 -13 c 0
 420 -25 409 -25 400 -25 c 0
 394 -25 389 -25 385 -22 c 0
 383 -21 383 -19 372 0 c 0
 323 91 233 192 73 237 c 0
 62 240 57 242 57 250 c 0
 57 258 62 260 74 263 c 0
 232 308 324 409 375 506 c 0
 385 524 385 525 400 525 c 0
 409 525 420 525 420 513 c 0
 420 510 401 455 320 367 c 1
 910 367 l 2
 924 367 943 367 943 347 c 0
 943 327 924 327 909 327 c 2
 293 327 l 2
 277 327 275 327 263 317 c 1
 215 282 169 259 148 250 c 1
 168 241 215 218 262 183 c 0
 275 173 277 173 293 173 c 2
 909 173 l 2
 924 173 943 173 943 153 c 0
 943 133 924 133 910 133 c 2
EndSplineSet
EndChar
StartChar: arrowdblup
Encoding: 8657 8657 153
Width: 611
Flags: W
HStem: -194 21G<198 218 392 412> 674 20G<301 309>
VStem: 188 40<-177.057 430> 382 40<-177.057 430>
Fore
422 430 m 1
 422 -161 l 2
 422 -175 422 -194 402 -194 c 0
 382 -194 382 -175 382 -160 c 2
 382 476 l 1
 337 529 307 596 305 602 c 1
 299 589 271 526 228 476 c 1
 228 -160 l 2
 228 -175 228 -194 208 -194 c 0
 188 -194 188 -175 188 -161 c 2
 188 430 l 1
 132 375 52 330 42 330 c 0
 30 330 30 341 30 350 c 0
 30 359 30 365 38 370 c 0
 181 444 255 548 293 681 c 0
 295 687 297 694 305 694 c 0
 313 694 315 687 317 681 c 0
 355 547 433 442 562 374 c 0
 579 365 580 365 580 350 c 0
 580 341 580 330 568 330 c 0
 559 330 479 374 422 430 c 1
EndSplineSet
EndChar
StartChar: arrowdblright
Encoding: 8658 8658 154
Width: 1000
Flags: W
HStem: 133 40<72.943 679> 327 40<72.943 679>
Fore
706 327 m 2
 90 327 l 2
 75 327 56 327 56 347 c 0
 56 367 75 367 89 367 c 2
 679 367 l 1
 598 456 579 511 579 513 c 0
 579 525 590 525 599 525 c 0
 605 525 610 525 614 522 c 0
 616 521 616 519 627 500 c 0
 676 409 766 308 926 263 c 0
 937 260 942 258 942 250 c 0
 942 242 937 240 925 237 c 0
 767 192 675 91 624 -6 c 0
 614 -24 614 -25 599 -25 c 0
 590 -25 579 -25 579 -13 c 0
 579 -10 598 45 679 133 c 1
 89 133 l 2
 75 133 56 133 56 153 c 0
 56 173 75 173 90 173 c 2
 706 173 l 2
 722 173 724 173 736 183 c 1
 784 218 830 241 851 250 c 1
 831 259 784 282 737 317 c 0
 724 327 722 327 706 327 c 2
EndSplineSet
EndChar
StartChar: arrowdbldown
Encoding: 8659 8659 155
Width: 611
Flags: W
HStem: -194 21G<301 309> 674 20G<198 218 392 412>
VStem: 188 40<70 671> 382 40<24 671>
Fore
422 661 m 2
 422 70 l 1
 478 125 558 170 568 170 c 0
 580 170 580 159 580 150 c 0
 580 141 580 135 572 130 c 0
 429 56 355 -48 317 -181 c 0
 315 -187 313 -194 305 -194 c 0
 297 -194 295 -187 293 -181 c 0
 255 -47 177 58 48 126 c 0
 31 135 30 135 30 150 c 0
 30 159 30 170 42 170 c 0
 51 170 131 126 188 70 c 1
 188 661 l 2
 188 675 188 694 208 694 c 0
 228 694 228 675 228 660 c 2
 228 24 l 1
 273 -29 303 -96 305 -102 c 1
 311 -89 339 -26 382 24 c 1
 382 660 l 2
 382 675 382 694 402 694 c 0
 422 694 422 675 422 661 c 2
EndSplineSet
EndChar
StartChar: uni22C4
Encoding: 8900 8900 156
Width: 500
Flags: W
HStem: 11 478<244 258 250 250 250 250>
VStem: 11 478<242 256 250 250 250 250>
Fore
476 229 m 2
 271 24 l 2
 260 13 258 11 250 11 c 0
 244 11 238 14 228 24 c 2
 24 229 l 2
 15 238 11 242 11 250 c 0
 11 256 14 262 24 272 c 2
 229 476 l 2
 238 485 242 489 250 489 c 0
 258 489 260 487 271 476 c 2
 476 271 l 2
 487 260 489 258 489 250 c 0
 489 242 487 240 476 229 c 2
60 250 m 1
 250 60 l 1
 440 250 l 1
 250 440 l 1
 60 250 l 1
EndSplineSet
EndChar
StartChar: angleleft
Encoding: 9001 9001 157
Width: 388
Flags: W
DStem: 115 232 151 250 290 -228 327 -212 291 730 327 712 115 268 151 250
Fore
327 712 m 1
 151 250 l 1
 327 -212 l 1
 332 -224 332 -229 332 -230 c 0
 332 -241 323 -250 312 -250 c 0
 298 -250 295 -240 290 -228 c 1
 115 232 l 1
 110 244 110 249 110 250 c 0
 110 251 110 256 115 268 c 1
 291 730 l 2
 295 741 299 750 312 750 c 0
 323 750 332 741 332 730 c 0
 332 729 332 724 327 712 c 1
EndSplineSet
EndChar
StartChar: uniF8E8
Encoding: 63720 63720 158
Width: 790
Flags: W
HStem: -12 38<395 419> 305 39<300 411> 486 41<249 419> 641 38<385 419>
VStem: 50 42<333 357> 249 51<137 305 137 486> 497 50<414 422> 698 42<333 357>
Fore
249 527 m 1
 409 527 l 2
 450 527 477 522 498 508 c 1
 530 490 547 458 547 420 c 0
 547 376 524 344 479 325 c 1
 529 307 541 284 543 200 c 0
 545 161 547 149 553 137 c 1
 503 137 l 1
 497 147 495 161 493 212 c 0
 488 289 470 305 387 305 c 2
 300 305 l 1
 300 137 l 1
 249 137 l 1
 249 527 l 1
300 486 m 1
 300 344 l 1
 391 344 l 2
 463 344 497 367 497 416 c 0
 497 463 465 486 398 486 c 2
 300 486 l 1
400 679 m 0
 586 679 740 522 740 333 c 0
 740 143 585 -12 395 -12 c 0
 205 -12 50 143 50 333 c 0
 50 526 204 679 400 679 c 0
399 641 m 0
 227 641 92 505 92 333 c 0
 92 164 229 26 395 26 c 0
 562 26 698 164 698 333 c 0
 698 501 562 641 399 641 c 0
EndSplineSet
EndChar
StartChar: uniF8E9
Encoding: 63721 63721 159
Width: 790
Flags: W
HStem: -12 38<394 418> 131 43<397 403> 496 43<384 402> 641 38<384 418>
VStem: 49 42<333 357> 206 51<334 341> 697 42<333 357>
Fore
527 296 m 1
 577 296 l 1
 569 197 498 131 397 131 c 0
 283 131 206 214 206 334 c 0
 206 455 285 539 400 539 c 0
 491 539 564 481 571 402 c 1
 522 402 l 1
 510 461 463 496 398 496 c 0
 314 496 257 431 257 334 c 0
 257 238 313 174 397 174 c 0
 470 174 517 219 527 296 c 1
399 679 m 0
 584 679 739 522 739 333 c 0
 739 143 584 -12 394 -12 c 0
 205 -12 49 143 49 333 c 0
 49 526 204 679 399 679 c 0
398 641 m 0
 227 641 91 505 91 333 c 0
 91 164 228 26 394 26 c 0
 561 26 697 164 697 333 c 0
 697 501 561 641 398 641 c 0
EndSplineSet
EndChar
StartChar: uniF8EA
Encoding: 63722 63722 160
Width: 786
Flags: W
HStem: 623 50<5 117 5 290>
VStem: 117 63<277 623> 320 55<277 623> 670 55<277 673>
DStem: 375 623 410 673 504 277 520 382 636 673 670 623 520 382 537 277
Fore
537 277 m 1
 504 277 l 1
 375 623 l 1
 375 277 l 1
 320 277 l 1
 320 673 l 1
 410 673 l 1
 520 382 l 1
 636 673 l 1
 725 673 l 1
 725 277 l 1
 670 277 l 1
 670 623 l 1
 537 277 l 1
180 623 m 1
 180 277 l 1
 117 277 l 1
 117 623 l 1
 5 623 l 1
 5 673 l 1
 290 673 l 1
 290 623 l 1
 180 623 l 1
EndSplineSet
EndChar
StartChar: summation
Encoding: 8721 8721 161
Width: 1055
Flags: W
HStem: -200 55<140 913> 760 40<84 617>
DStem: 56 768 164 760 421 266 489 314 421 266 487 284 66 -173 140 -145
Fore
487 284 m 2
 140 -145 l 1
 565 -145 l 2
 712 -145 781 -121 797 -116 c 0
 882 -87 949 -26 974 49 c 1
 999 49 l 1
 913 -200 l 1
 84 -200 l 2
 66 -200 57 -200 57 -189 c 0
 57 -185 58 -183 66 -173 c 2
 421 266 l 1
 56 768 l 1
 56 799 57 800 84 800 c 2
 913 800 l 1
 999 566 l 1
 974 566 l 1
 904 753 674 760 560 760 c 2
 164 760 l 1
 489 314 l 2
 495 305 496 304 496 300 c 0
 496 296 494 293 487 284 c 2
EndSplineSet
EndChar
StartChar: uniF8EB
Encoding: 63723 63723 162
Width: 384
Flags: W
VStem: 40 52<-293 172>
Fore
40 -293 m 1
 40 168 l 2
 40 409 110 636 228 776 c 0
 278 835 330 876 422 926 c 1
 436 915 l 1
 369 874 302 805 243 717 c 0
 153 581 92 348 92 138 c 2
 92 -293 l 1
 40 -293 l 1
EndSplineSet
EndChar
StartChar: uniF8EC
Encoding: 63724 63724 163
Width: 384
Flags: W
VStem: 40 52<-79 925>
Fore
40 -79 m 1
 40 925 l 1
 92 925 l 1
 92 -79 l 1
 40 -79 l 1
EndSplineSet
EndChar
StartChar: uniF8ED
Encoding: 63725 63725 164
Width: 384
Flags: W
VStem: 40 52<458 926>
Fore
40 926 m 1
 92 926 l 1
 92 495 l 2
 92 261 154 36 258 -111 c 0
 305 -177 357 -228 436 -282 c 1
 422 -293 l 1
 312 -232 258 -187 204 -113 c 0
 100 30 40 242 40 465 c 2
 40 926 l 1
EndSplineSet
EndChar
StartChar: uniF8EE
Encoding: 63726 63726 165
Width: 384
Flags: W
HStem: 871 55<0 341>
VStem: 0 55<-80 871>
Fore
0 -80 m 1
 0 926 l 1
 341 926 l 1
 341 871 l 1
 55 871 l 1
 55 -80 l 1
 0 -80 l 1
EndSplineSet
EndChar
StartChar: uniF8EF
Encoding: 63727 63727 166
Width: 384
Flags: W
VStem: 0 55<-85 925>
Fore
0 925 m 1
 55 925 l 1
 55 -85 l 1
 0 -85 l 1
 0 925 l 1
EndSplineSet
EndChar
StartChar: uniF8F0
Encoding: 63728 63728 167
Width: 384
Flags: W
HStem: -80 55<54 340>
VStem: 0 55<-80 926>
Fore
0 926 m 1
 55 926 l 1
 55 -25 l 1
 340 -25 l 1
 340 -80 l 1
 0 -80 l 1
 0 926 l 1
EndSplineSet
EndChar
StartChar: uniF8F1
Encoding: 63729 63729 168
Width: 494
Flags: W
VStem: 201 54<-75 662>
Fore
255 -75 m 1
 201 -75 l 1
 201 637 l 2
 201 768 229 837 302 882 c 0
 339 905 369 914 439 926 c 1
 439 904 l 1
 384 890 344 868 311 834 c 0
 270 790 255 732 255 619 c 2
 255 -75 l 1
EndSplineSet
EndChar
StartChar: uniF8F2
Encoding: 63730 63730 169
Width: 494
Flags: W
VStem: 201 54<-85 204 666 935>
Fore
255 935 m 1
 255 674 l 2
 255 587 239 537 197 494 c 0
 169 464 138 448 74 431 c 1
 145 410 178 392 207 356 c 0
 242 313 255 268 255 187 c 2
 255 -85 l 1
 201 -85 l 1
 201 166 l 2
 201 261 185 311 142 348 c 0
 109 377 75 391 14 400 c 1
 14 461 l 1
 80 471 119 488 153 523 c 0
 187 559 201 608 201 695 c 2
 201 935 l 1
 255 935 l 1
EndSplineSet
EndChar
StartChar: uniF8F3
Encoding: 63731 63731 170
Width: 494
Flags: W
VStem: 201 54<201 926>
Fore
255 926 m 1
 255 237 l 2
 255 116 272 59 320 13 c 1
 352 -16 389 -35 439 -48 c 1
 439 -70 l 1
 369 -58 339 -49 302 -26 c 0
 229 19 201 88 201 219 c 2
 201 926 l 1
 255 926 l 1
EndSplineSet
EndChar
StartChar: uniF8F4
Encoding: 63732 63732 171
Width: 494
Flags: W
VStem: 201 54<-79 925>
Fore
201 925 m 1
 255 925 l 1
 255 -79 l 1
 201 -79 l 1
 201 925 l 1
EndSplineSet
EndChar
StartChar: angleright
Encoding: 9002 9002 172
Width: 329
Flags: W
DStem: 21 733 73 757 236 303 302 303 236 303 302 303 21 -127 73 -152
Fore
73 757 m 1
 302 303 l 1
 73 -152 l 1
 21 -127 l 1
 236 303 l 1
 21 733 l 1
 73 757 l 1
EndSplineSet
EndChar
StartChar: integral
Encoding: 8747 8747 173
Width: 518
Flags: W
HStem: -216 22<126 135> -216 122<92.5 129.5> 594 122<388.5 425.5> 694 22<383 391>
Fore
427.5 675 m 1xa0
 425.5 678 412.5 694 389.5 694 c 0
 346.5 694 335.5 631 327.5 567 c 0
 325.5 553 319.5 501 311.5 420 c 0
 289.5 174 239.5 -71 230.5 -107 c 0
 216.5 -162 186.5 -216 129.5 -216 c 0x90
 80.5 -216 51.5 -173 51.5 -136 c 0
 51.5 -105 74.5 -94 92.5 -94 c 0x40
 112.5 -94 132.5 -109 132.5 -134 c 0
 132.5 -166 108.5 -174 90.5 -175 c 1
 92.5 -178 105.5 -194 128.5 -194 c 0
 170.5 -194 181.5 -133 188.5 -78 c 0
 191.5 -59 197.5 -11 206.5 80 c 0
 228.5 326 278.5 571 287.5 607 c 0
 301.5 662 331.5 716 388.5 716 c 0
 437.5 716 466.5 673 466.5 636 c 0
 466.5 605 443.5 594 425.5 594 c 0
 405.5 594 385.5 609 385.5 634 c 0
 385.5 666 409.5 674 427.5 675 c 1xa0
EndSplineSet
EndChar
StartChar: integraltp
Encoding: 8992 8992 174
Width: 686
Flags: W
HStem: 771 151<631 649>
VStem: 332 83<-83 387> 588 127<825 842>
Fore
332 -83 m 1
 332 333 l 2
 332 527 370 676 448 790 c 0
 506 874 572 922 631 922 c 0
 679 922 715 888 715 842 c 0
 715 801 687 771 649 771 c 0
 615 771 588 795 588 825 c 0
 588 842 594 853 609 866 c 1
 602 868 598 869 594 869 c 0
 563 869 528 842 498 796 c 0
 447 717 415 559 415 385 c 2
 415 -83 l 1
 332 -83 l 1
EndSplineSet
EndChar
StartChar: uniF8F5
Encoding: 63733 63733 175
Width: 686
Flags: W
VStem: 332 83<-88 975>
Fore
332 -88 m 1
 332 975 l 1
 415 975 l 1
 415 -88 l 1
 332 -88 l 1
EndSplineSet
EndChar
StartChar: integralbt
Encoding: 8993 8993 176
Width: 686
Flags: W
HStem: -81 151<98 117>
VStem: 39 120<-1 16> 332 83<454 921>
Fore
415 921 m 1
 415 508 l 2
 415 314 377 165 299 51 c 0
 241 -33 175 -81 117 -81 c 0
 72 -81 39 -47 39 -1 c 0
 39 40 64 70 98 70 c 0
 132 70 159 46 159 16 c 0
 159 -1 153 -12 138 -25 c 1
 145 -27 149 -28 153 -28 c 0
 184 -28 219 -1 249 45 c 0
 300 124 332 282 332 456 c 2
 332 921 l 1
 415 921 l 1
EndSplineSet
EndChar
StartChar: uniF8F6
Encoding: 63734 63734 177
Width: 384
Flags: W
VStem: 398 52<-293 188>
Fore
450 -293 m 1
 398 -293 l 1
 398 138 l 2
 398 289 370 449 320 579 c 0
 268 715 162 849 54 915 c 1
 68 926 l 1
 173 869 231 821 286 746 c 0
 389 605 450 391 450 168 c 2
 450 -293 l 1
EndSplineSet
EndChar
StartChar: uniF8F7
Encoding: 63735 63735 178
Width: 384
Flags: W
VStem: 398 52<-70 935>
Fore
450 935 m 1
 450 -70 l 1
 398 -70 l 1
 398 935 l 1
 450 935 l 1
EndSplineSet
EndChar
StartChar: uniF8F8
Encoding: 63736 63736 179
Width: 384
Flags: W
VStem: 398 52<458 926>
Fore
450 926 m 1
 450 465 l 2
 450 224 380 -3 262 -143 c 0
 211 -203 156 -246 68 -293 c 1
 54 -282 l 1
 124 -239 190 -172 248 -85 c 0
 341 54 398 273 398 495 c 2
 398 926 l 1
 450 926 l 1
EndSplineSet
EndChar
StartChar: uniF8F9
Encoding: 63737 63737 180
Width: 384
Flags: W
HStem: 871 55<22 305>
VStem: 305 55<-80 926>
Fore
360 -80 m 1
 305 -80 l 1
 305 871 l 1
 22 871 l 1
 22 926 l 1
 360 926 l 1
 360 -80 l 1
EndSplineSet
EndChar
StartChar: uniF8FA
Encoding: 63738 63738 181
Width: 384
Flags: W
VStem: 305 55<-85 925>
Fore
305 925 m 1
 360 925 l 1
 360 -85 l 1
 305 -85 l 1
 305 925 l 1
EndSplineSet
EndChar
StartChar: uniF8FB
Encoding: 63739 63739 182
Width: 384
Flags: W
HStem: -80 55<20 360>
VStem: 305 55<-25 926>
Fore
360 926 m 1
 360 -80 l 1
 20 -80 l 1
 20 -25 l 1
 305 -25 l 1
 305 926 l 1
 360 926 l 1
EndSplineSet
EndChar
StartChar: uniF8FC
Encoding: 63740 63740 183
Width: 494
Flags: W
VStem: 201 54<-75 662>
Fore
201 -75 m 1
 201 619 l 2
 201 740 184 797 136 843 c 1
 104 872 67 891 17 904 c 1
 17 926 l 1
 87 914 117 905 154 882 c 0
 227 837 255 768 255 637 c 2
 255 -75 l 1
 201 -75 l 1
EndSplineSet
EndChar
StartChar: uniF8FD
Encoding: 63741 63741 184
Width: 494
Flags: W
VStem: 201 54<-85 204 666 935>
Fore
201 935 m 1
 255 935 l 1
 255 695 l 2
 255 595 269 551 313 513 c 0
 347 483 381 470 442 461 c 1
 442 400 l 1
 375 390 336 373 303 338 c 0
 267 301 255 258 255 166 c 2
 255 -85 l 1
 201 -85 l 1
 201 187 l 2
 201 273 217 324 259 367 c 0
 288 396 319 412 383 431 c 1
 313 450 279 469 250 505 c 0
 214 548 201 594 201 674 c 2
 201 935 l 1
EndSplineSet
EndChar
StartChar: uniF8FE
Encoding: 63742 63742 185
Width: 494
Flags: W
VStem: 201 54<201 926>
Fore
201 926 m 1
 255 926 l 1
 255 219 l 2
 255 88 227 19 154 -26 c 0
 117 -49 87 -58 17 -70 c 1
 17 -48 l 1
 72 -34 112 -12 145 22 c 0
 186 66 201 124 201 237 c 2
 201 926 l 1
EndSplineSet
EndChar
StartChar: u1D7EC
Encoding: 120812 120812 186
Width: 500
Flags: W
HStem: -22 22<226.5 271.5> 431 22<236 313.5>
VStem: 40 81<198.5 246.5> 378 81<195.5 274.5>
Fore
459 213 m 0
 459 85 411 -22 249 -22 c 0
 86 -22 40 89 40 213 c 0
 40 341 86 453 250 453 c 0
 416 453 459 336 459 213 c 0
250 0 m 0
 293 0 346 18 363 71 c 0
 378 114 378 169 378 222 c 0
 378 330 378 431 249 431 c 0
 223 431 162 425 137 370 c 0
 121 333 121 271 121 222 c 0
 121 175 121 102 138 63 c 0
 158 19 203 0 250 0 c 0
EndSplineSet
EndChar
StartChar: u1D7ED
Encoding: 120813 120813 187
Width: 500
Flags: W
HStem: 0 31<117 131 390.5 399.5> 379 31<109.5 121> 433 20<280.5 288>
VStem: 223 70
Fore
294 425 m 2
 294 79 l 2
 294 39 294 31 385 31 c 0
 414 31 419 31 419 15 c 0
 419 0 409 0 402 0 c 0
 379 0 355 2 332 2 c 0
 308 2 283 3 258 3 c 0
 226 3 147 0 115 0 c 0
 108 0 98 0 98 15 c 0
 98 31 103 31 131 31 c 0
 223 31 223 39 223 79 c 2
 223 393 l 1
 178 379 125 379 119 379 c 0
 99 379 93 379 93 394 c 0
 93 410 98 410 121 410 c 0
 214 411 255 438 269 447 c 0
 276 451 279 453 282 453 c 0
 294 453 294 444 294 425 c 2
EndSplineSet
EndChar
StartChar: u1D7EE
Encoding: 120814 120814 188
Width: 500
Flags: W
HStem: 0 68 287 78 422 31<200.5 260>
VStem: 56 76 362 87<278.5 346>
Fore
270 144 m 1
 230 121 l 2
 211 110 164 80 145 69 c 1
 328 69 l 2
 353 69 390 69 402 72 c 0
 411 74 421 111 423 118 c 0
 425 127 427 134 436 134 c 0
 445 134 449 128 449 123 c 0
 449 118 424 21 421 10 c 0
 418 1 417 0 393 0 c 2
 72 0 l 2
 50 0 44 0 44 16 c 0
 44 21 44 24 47 28 c 0
 52 33 217 146 243 164 c 0
 299 202 362 245 362 312 c 0
 362 380 300 422 220 422 c 0
 181 422 123 409 96 364 c 1
 103 363 131 356 131 325 c 0
 131 302 112 287 93 287 c 0
 83 287 55 293 55 328 c 0
 55 394 124 453 238 453 c 0
 353 453 449 407 449 313 c 0
 449 234 385 202 270 144 c 1
EndSplineSet
EndChar
StartChar: u1D7EF
Encoding: 120815 120815 189
Width: 500
Flags: W
HStem: -216 28<233 251> -112 105<87 97> 132 23<182 203> 271 97<109 123> 428 25<233 251>
VStem: 42 106<-64 -55> 69 97<311 329> 342 88<311 329> 360 97<-41 -23>
Fore
235 132 m 2xfc80
 192 132 l 2
 172 132 166 132 166 143 c 0
 166 153 175 154 182 155 c 0
 189 155 191 155 217 157 c 0
 246 159 279 161 310 204 c 0
 329 231 342 273 342 319 c 0
 342 408 285 428 243 428 c 0
 236 428 149 428 109 368 c 1
 121 368 166 368 166 320 c 0
 166 286 140 271 118 271 c 0
 101 271 69 281 69 322 c 0
 69 394 144 453 247 453 c 0
 345 453 430 396 430 318 c 0xfb
 430 235 364 170 291 147 c 1
 382 131 457 60 457 -29 c 0
 457 -125 370 -216 245 -216 c 0
 134 -216 42 -150 42 -62 c 0
 42 -18 77 -7 95 -7 c 0
 123 -7 148 -27 148 -59 c 0
 148 -112 98 -112 87 -112 c 1
 133 -188 234 -188 243 -188 c 0
 287 -188 360 -160 360 -28 c 0
 360 62 324 132 235 132 c 2xfc80
EndSplineSet
EndChar
StartChar: u1D7F0
Encoding: 120816 120816 190
Width: 500
Flags: W
HStem: -191 28<215 333> 0 31<57 296 370 461>
VStem: 296 74<-117 1>
DStem: 332 451 302 370 28 31 57 31
Fore
370 436 m 2
 370 31 l 1
 443 31 l 2
 465 31 471 31 471 16 c 0
 471 0 465 0 443 0 c 2
 370 0 l 1
 370 -117 l 2
 370 -157 370 -163 442 -163 c 0
 461 -163 467 -163 467 -179 c 0
 467 -189 463 -194 451 -194 c 0
 425 -194 359 -191 333 -191 c 0
 294 -191 253 -194 215 -194 c 0
 202 -194 199 -189 199 -179 c 0
 199 -163 205 -163 225 -163 c 0
 296 -163 296 -157 296 -117 c 2
 296 0 l 1
 56 0 l 2
 29 0 28 1 28 31 c 1
 332 451 l 2
 340 462 341 464 353 464 c 0
 370 464 370 460 370 436 c 2
302 370 m 1
 57 31 l 1
 302 31 l 1
 302 370 l 1
EndSplineSet
EndChar
StartChar: u1D7F1
Encoding: 120817 120817 191
Width: 500
Flags: W
HStem: -216 28<217 243> -81 94<97 103> 192 22<241 262> 344 78<219 255>
VStem: 50 95<-41 -32> 101 31<143 357> 365 84<-9 15>
Fore
132 357 m 1xf6
 132 164 l 1xf6
 167 198 212 214 260 214 c 0
 367 214 449 116 449 1 c 0
 449 -121 349 -216 232 -216 c 0
 122 -216 50 -123 50 -38 c 0
 50 5 81 13 97 13 c 0
 132 13 145 -15 145 -34 c 0xfa
 145 -53 132 -81 97 -81 c 0
 93 -81 86 -80 82 -79 c 1
 103 -150 170 -188 230 -188 c 0
 278 -188 315 -162 335 -132 c 0
 362 -90 365 -44 365 6 c 0
 365 63 360 97 345 130 c 0
 332 158 304 192 259 192 c 0
 222 192 167 180 130 127 c 0
 125 119 122 115 114 115 c 0
 101 115 101 123 101 143 c 2
 101 427 l 2
 101 445 101 452 110 452 c 0
 112 452 114 452 121 449 c 0
 148 438 193 422 255 422 c 0
 323 422 369 441 392 450 c 0
 397 453 399 453 400 453 c 0
 407 453 410 448 410 442 c 0
 410 429 369 392 340 375 c 0
 285 344 239 344 219 344 c 0
 205 344 174 344 132 357 c 1xf6
EndSplineSet
EndChar
StartChar: u1D7F2
Encoding: 120818 120818 192
Width: 500
Flags: W
HStem: -22 28<236.642 267> 404 22<249 267> 513 88<385 395> 641 25<297 315>
VStem: 42 86<316 350.836> 343 89<553 562> 371 86<204 229>
Fore
128 328 m 1xfc
 144 364 180 426 257 426 c 0
 319 426 359 405 401 358 c 0
 442 311 457 265 457 204 c 0xfa
 457 128 434 86 396 45 c 0
 372 19 331 -22 252 -22 c 0
 156 -22 42 51 42 316 c 0
 42 537 177 666 305 666 c 0
 394 666 432 612 432 560 c 0
 432 531 414 513 387 513 c 0
 359 513 343 535 343 557 c 0
 343 590 368 601 395 601 c 1
 373 638 326 641 306 641 c 0
 228 641 181 576 162 538 c 0
 132 474 128 406 128 328 c 1xfc
251 6 m 0
 302 6 331 33 351 68 c 0
 371 106 371 152 371 204 c 0
 371 258 371 304 351 342 c 0
 319 404 274 404 256 404 c 0
 161 404 130 298 130 227 c 0
 130 167 137 115 149 83 c 0
 159 58 190 6 251 6 c 0
EndSplineSet
EndChar
StartChar: u1D7F3
Encoding: 120819 120819 193
Width: 500
Flags: W
HStem: -216 21<199 243.5> 358 73 443 20<96.5 107>
VStem: 178 89
Fore
233 431 m 2
 457 431 l 2
 479 431 485 431 485 415 c 0
 485 410 484 407 482 403 c 0
 455 366 427 329 400 292 c 0
 318 180 295 150 278 44 c 0
 269 -7 266 -74 266 -116 c 2
 266 -159 l 2
 266 -174 266 -216 221 -216 c 0
 177 -216 177 -173 177 -163 c 0
 177 32 287 185 323 236 c 0
 355 280 345 265 411 357 c 1
 198 357 l 2
 167 357 129 357 107 353 c 0
 96 352 88 309 83 285 c 0
 79 266 78 260 68 260 c 0
 60 260 55 265 55 272 c 1
 58 285 l 1
 87 440 l 1
 90 459 91 463 102 463 c 0
 112 463 113 456 114 450 c 0
 115 443 117 437 164 434 c 0
 185 432 211 431 233 431 c 2
EndSplineSet
EndChar
StartChar: u1D7F4
Encoding: 120820 120820 194
Width: 500
Flags: W
HStem: -22 28<233 267> 641 25<233 267>
VStem: 42 49<151 168> 69 43<501 536> 387 43<518 523> 408 49<133 166>
Fore
306 361 m 1xd8
 355 330 l 2
 383 311 457 264 457 166 c 0
 457 61 363 -22 249 -22 c 0
 142 -22 42 47 42 151 c 0xe4
 42 217 82 285 190 336 c 1
 177 344 155 359 151 361 c 0
 131 375 69 416 69 501 c 0
 69 591 150 666 250 666 c 0
 345 666 430 605 430 518 c 0
 430 446 373 395 306 361 c 1xd8
284 376 m 1
 348 411 387 459 387 518 c 0
 387 589 323 641 249 641 c 0
 180 641 112 601 112 536 c 0xd8
 112 487 149 463 178 444 c 0
 213 421 248 398 284 376 c 1
212 321 m 1
 112 270 91 196 91 151 c 0
 91 66 166 6 250 6 c 0
 332 6 408 58 408 133 c 0xe4
 408 195 362 225 334 243 c 0
 268 286 245 301 212 321 c 1
EndSplineSet
EndChar
StartChar: u1D7F5
Encoding: 120821 120821 195
Width: 500
Flags: W
HStem: -216 28<185 219> -216 151<112 206> -153 88<106 114> 17 22<233 255> 428 25<253 267>
VStem: 42 86<233 249> 67 89<-113 -103> 371 86<98 213>
Fore
371 114 m 1xbb
 341 46 295 17 242 17 c 0
 192 17 147 30 102 80 c 1
 74 109 42 150 42 233 c 0
 42 287 53 339 109 394 c 0
 149 433 193 453 253 453 c 0
 342 453 457 387 457 125 c 0
 457 -83 335 -216 206 -216 c 0xbd
 118 -216 67 -173 67 -111 c 0
 67 -85 83 -65 112 -65 c 0x5b
 140 -65 156 -87 156 -109 c 0
 156 -124 149 -153 106 -153 c 1
 133 -186 186 -188 205 -188 c 0
 275 -188 318 -135 340 -90 c 0
 371 -25 371 58 371 114 c 1xbb
243 39 m 0
 335 39 369 139 369 213 c 0
 369 229 369 308 350 355 c 0
 337 386 306 428 253 428 c 0
 212 428 178 412 152 370 c 0
 128 331 128 289 128 233 c 0
 128 181 128 138 148 100 c 0
 179 39 227 39 243 39 c 0
EndSplineSet
EndChar
StartChar: uni22C6
Encoding: 8902 8902 196
Width: 500
Flags: W
HStem: 16 21<101 106 394.5 399> 466 20
VStem: 4 492<302 306.5>
Fore
239 157 m 2
 120 27 l 2
 110 16 107 16 105 16 c 0
 97 16 94 23 94 27 c 0
 94 30 95 31 101 43 c 1
 194 209 l 1
 20 289 l 2
 9 294 4 296 4 304 c 0
 4 309 8 314 15 314 c 0
 18 314 25 313 30 312 c 2
 215 275 l 1
 237 463 l 2
 239 480 242 485 250 485 c 0
 259 485 260 481 262 463 c 1
 285 275 l 1
 435 305 484 314 485 314 c 0
 492 314 496 309 496 304 c 0
 496 300 495 296 481 289 c 2
 307 209 l 1
 320 185 326 173 346 137 c 0
 375 86 406 32 406 27 c 0
 406 23 403 16 395 16 c 0
 394 16 391 16 387 21 c 0
 357 51 328 83 299 115 c 0
 292 122 254 166 250 166 c 0
 247 166 240 159 239 157 c 2
EndSplineSet
EndChar
StartChar: uni2983
Encoding: 10627 10627 197
Width: 575
Flags: W
HStem: -250 35 232 35 715 35
VStem: 232 111<-111 -103 -103 99 99 117.5 417 606>
Fore
343 606 m 2
 343 396 l 2
 343 351 343 282 224 250 c 1
 310 227 342 176 343 134 c 1
 343 -103 l 2
 343 -120 343 -128 346 -138 c 0
 358 -174 395 -209 479 -214 c 0
 491 -215 496 -219 496 -232 c 0
 496 -250 487 -250 465 -250 c 0
 398 -250 232 -239 232 -111 c 2
 232 99 l 2
 232 136 232 138 230 146 c 0
 221 182 185 227 95 232 c 0
 83 233 78 237 78 250 c 0
 78 267 86 267 100 268 c 0
 141 270 176 284 199 305 c 0
 232 334 232 355 232 417 c 2
 232 623 l 1
 233 700 323 750 465 750 c 0
 487 750 496 750 496 732 c 0
 496 715 488 715 474 714 c 0
 422 711 393 693 382 686 c 0
 343 657 343 628 343 606 c 2
EndSplineSet
EndChar
StartChar: uni2984
Encoding: 10628 10628 198
Width: 575
Flags: W
VStem: 232 111<-125 119 364 615>
Fore
343 611 m 2
 343 401 l 2
 343 362 343 360 346 352 c 0
 363 297 415 271 479 268 c 0
 491 267 496 263 496 250 c 0
 496 233 488 233 474 232 c 0
 421 229 388 207 377 196 c 0
 343 165 343 148 343 83 c 2
 343 -123 l 1
 342 -196 259 -250 109 -250 c 0
 88 -250 78 -250 78 -232 c 0
 78 -215 86 -215 100 -214 c 0
 154 -211 185 -191 195 -184 c 0
 232 -155 232 -129 232 -106 c 2
 232 104 l 2
 232 150 232 218 351 250 c 1
 264 274 233 324 232 366 c 1
 232 603 l 2
 232 620 232 628 229 638 c 0
 217 677 176 710 95 714 c 0
 83 715 78 719 78 732 c 0
 78 750 88 750 109 750 c 0
 191 750 343 734 343 611 c 2
EndSplineSet
EndChar
StartChar: uni27E6
Encoding: 10214 10214 199
Width: 403
Flags: W
HStem: -250 40<156 373> 710 40<127 240 127 373>
VStem: 116 40<-239 710> 240 40<-210 710>
Fore
116 -239 m 2
 116 739 l 2
 116 745 121 750 127 750 c 2
 368 750 l 2
 375 750 380 745 380 739 c 2
 380 721 l 2
 380 715 375 710 368 710 c 2
 280 710 l 1
 280 -210 l 1
 368 -210 l 2
 375 -210 380 -215 380 -221 c 2
 380 -239 l 2
 380 -245 375 -250 368 -250 c 2
 127 -250 l 2
 121 -250 116 -245 116 -239 c 2
240 710 m 1
 156 710 l 1
 156 -210 l 1
 240 -210 l 1
 240 710 l 1
EndSplineSet
EndChar
StartChar: uni27E7
Encoding: 10215 10215 200
Width: 403
Flags: W
HStem: -250 40<35 120 160 274> 710 40<35 120 35 245>
VStem: 120 40<-210 710> 245 40<-210 739>
Fore
160 -210 m 1
 245 -210 l 1
 245 710 l 1
 160 710 l 1
 160 -210 l 1
285 -239 m 2
 285 -245 280 -250 274 -250 c 2
 35 -250 l 2
 29 -250 24 -245 24 -239 c 2
 24 -221 l 2
 24 -215 29 -210 35 -210 c 2
 120 -210 l 1
 120 710 l 1
 35 710 l 2
 29 710 24 715 24 721 c 2
 24 739 l 2
 24 745 29 750 35 750 c 2
 274 750 l 2
 280 750 285 745 285 739 c 2
 285 -239 l 2
EndSplineSet
EndChar
StartChar: uni2987
Encoding: 10631 10631 201
Width: 389
Flags: W
VStem: 99 57<250 279> 291 40<-194 740>
Fore
313 -248 m 0
 163 -131 99 60 99 250 c 0
 99 440 163 631 313 748 c 0
 315 749 317 750 319 750 c 0
 323 750 326 750 329 747 c 0
 331 745 331 743 331 740 c 2
 331 -240 l 2
 331 -243 331 -245 329 -247 c 0
 327 -249 324 -250 322 -250 c 0
 319 -250 316 -250 313 -248 c 0
291 694 m 1
 190 575 156 412 156 250 c 0
 156 88 190 -75 291 -194 c 1
 291 694 l 1
EndSplineSet
EndChar
StartChar: uni2988
Encoding: 10632 10632 202
Width: 389
Flags: W
VStem: 55 40<-240 694> 231 56<250 279>
Fore
95 -194 m 1
 197 -75 231 88 231 250 c 0
 231 412 197 575 95 694 c 1
 95 -194 l 1
74 -248 m 0
 71 -250 68 -250 65 -250 c 0
 62 -250 60 -249 58 -247 c 0
 56 -245 55 -243 55 -240 c 2
 55 740 l 2
 55 743 56 745 58 747 c 0
 60 749 62 750 65 750 c 0
 68 750 71 750 74 748 c 0
 224 631 287 440 287 250 c 0
 287 60 224 -131 74 -248 c 0
EndSplineSet
EndChar
StartChar: u1D539
Encoding: 120121 120121 203
Width: 666
Flags: W
HStem: 0 35<24 58 131 340> 337 35<262 286.226> 650 35<24 58 43 240 43 330>
VStem: 105 35<79 609> 227 35<79 337 86 609> 418 35<510 529> 449 35<187 209> 548 35<514 529> 586 35<187 193>
Fore
140 594 m 2xf980
 140 91 l 2
 140 78 140 53 131 35 c 1
 240 35 l 1
 227 51 227 71 227 86 c 2
 227 599 l 2
 227 614 227 634 240 650 c 1
 131 650 l 1
 140 632 140 607 140 594 c 2xf980
412 384 m 1
 478 398 548 450 548 514 c 0
 548 613 477 638 408 646 c 1
 431 622 453 579 453 510 c 0xfd80
 453 467 445 416 412 384 c 1
262 596 m 2
 262 372 l 1
 361 374 418 398 418 510 c 0
 418 615 363 650 319 650 c 0
 295 650 280 640 276 638 c 0
 262 627 262 616 262 596 c 2
472 367 m 1
 545 347 621 291 621 187 c 0
 621 48 463 0 340 0 c 2
 43 0 l 2
 25 0 9 0 9 18 c 0
 9 35 27 35 38 35 c 0
 101 35 105 43 105 93 c 2
 105 592 l 2
 105 640 102 650 42 650 c 0
 26 650 9 650 9 667 c 0
 9 685 25 685 43 685 c 2
 346 685 l 2
 468 685 583 653 583 514 c 0
 583 446 528 396 472 367 c 1
262 89 m 2
 262 70 262 35 321 35 c 0
 446 35 449 148 449 187 c 0xfb80
 449 219 446 284 407 314 c 0
 376 337 342 337 262 337 c 1
 262 89 l 2
440 47 m 1
 526 67 586 111 586 187 c 0
 586 274 521 326 429 341 c 1
 469 308 484 256 484 187 c 0
 484 142 477 89 440 47 c 1
EndSplineSet
EndChar
StartChar: uni2102
Encoding: 8450 8450 204
Width: 722
Flags: W
HStem: -19 48<387 409> 623 35<572 598> 669 35<387 408>
VStem: 37 35<316 366> 178 35<341 366> 622 35<568 671>
Fore
657 671 m 2
 657 504 l 2
 657 487 657 471 640 471 c 0
 627 471 624 481 621 490 c 0
 587 596 467 669 392 669 c 0
 285 669 213 538 213 341 c 0
 213 186 252 29 407 29 c 0
 496 29 585 69 643 135 c 0
 653 146 657 149 664 149 c 0
 670 149 685 143 685 129 c 0
 685 115 634 65 588 36 c 0
 515 -8 444 -19 391 -19 c 0
 218 -19 37 88 37 343 c 0
 37 599 222 704 389 704 c 0
 405 704 448 704 499 682 c 0
 519 673 554 658 589 658 c 0
 596 658 619 658 622 686 c 0
 624 704 639 704 640 704 c 0
 657 704 657 688 657 671 c 2
622 568 m 1
 622 630 l 1
 614 625 601 623 590 623 c 0
 585 623 577 623 572 624 c 1
 597 598 610 585 622 568 c 1
267 646 m 1
 267 647 l 1
 173 615 72 526 72 342 c 0
 72 220 119 85 283 32 c 1
 193 104 178 242 178 341 c 0
 178 537 244 623 267 646 c 1
EndSplineSet
EndChar
StartChar: uni2115
Encoding: 8469 8469 205
Width: 722
Flags: W
HStem: 0 35<40 61 212 219> 650 35<51 70 70 252 504 525 523 681>
VStem: 112 42<92 567> 589 35<51 579>
DStem: 154 567 154 626 586 -4 589 51 252 650 280 671 589 195 582 263
Fore
112 595 m 2
 112 609 112 611 114 619 c 1
 104 631 85 647 58 650 c 0
 52 650 37 652 37 667 c 0
 37 685 52 685 70 685 c 2
 244 685 l 2
 267 685 270 685 280 671 c 2
 582 263 l 1
 582 576 l 2
 582 629 574 649 518 650 c 0
 507 650 489 650 489 667 c 0
 489 685 505 685 523 685 c 2
 669 685 l 2
 687 685 702 685 702 667 c 0
 702 651 685 650 679 650 c 0
 633 649 624 635 624 579 c 2
 624 14 l 2
 624 -3 624 -19 607 -19 c 0
 600 -19 595 -16 586 -4 c 2
 154 567 l 1
 154 109 l 2
 154 57 162 36 217 35 c 0
 231 35 247 34 247 18 c 0
 247 0 232 0 214 0 c 2
 59 0 l 2
 41 0 25 0 25 18 c 0
 25 34 42 35 53 35 c 0
 104 36 112 54 112 107 c 2
 112 595 l 2
589 51 m 1
 589 195 l 1
 252 650 l 1
 133 650 l 1
 144 640 144 638 154 626 c 1
 589 51 l 1
EndSplineSet
EndChar
StartChar: uni211A
Encoding: 8474 8474 206
Width: 777
Flags: W
HStem: -179 35<547 571> -179 62<547 650> -19 35<369.91 402> 669 35<369.875 402>
VStem: 33 35<316 366> 174 35<300 382> 569 35<300 382> 578 154<-142 -126> 710 35<316 366>
Fore
478 -9 m 1xbc80
 501 -59 558 -117 650 -117 c 0
 666 -117 677 -117 705 -110 c 0
 712 -108 713 -108 715 -108 c 0
 723 -108 732 -114 732 -126 c 0x7d
 732 -138 722 -142 704 -149 c 0
 652 -169 597 -179 547 -179 c 0
 423 -179 324 -107 279 -4 c 1
 161 27 33 129 33 343 c 0
 33 589 206 704 389 704 c 0
 568 704 745 594 745 342 c 0
 745 132 619 20 478 -9 c 1xbc80
251 641 m 1
 250 642 l 1
 192 620 68 546 68 342 c 0
 68 148 183 68 252 42 c 1
 186 120 174 245 174 343 c 0
 174 453 190 570 251 641 c 1
528 642 m 1
 527 641 l 1
 592 565 604 440 604 342 c 0
 604 232 588 115 526 42 c 1
 586 65 710 139 710 343 c 0x3e80
 710 537 595 617 528 642 c 1
389 16 m 0
 549 16 569 223 569 343 c 0
 569 457 551 669 389 669 c 0
 229 669 209 462 209 342 c 0
 209 228 227 16 389 16 c 0
323 -14 m 1
 375 -104 462 -144 547 -144 c 0
 560 -144 578 -144 578 -142 c 0xbd
 578 -141 577 -141 567 -137 c 0
 517 -117 470 -79 443 -16 c 1
 415 -19 394 -19 389 -19 c 0
 388 -19 351 -19 323 -14 c 1
EndSplineSet
EndChar
StartChar: uni211D
Encoding: 8477 8477 207
Width: 722
Flags: W
HStem: 0 35<31 65 132 337 525 622> 314 35<268 304> 650 35<31 65 50 246 50 353>
VStem: 105 35<79 609> 233 35<79 314 90 609> 457 35<497 513> 594 35<498 513>
DStem: 304 314 345 314 454 82 525 35
Fore
268 314 m 1
 268 92 l 2
 268 43 272 35 329 35 c 0
 340 35 357 35 357 18 c 0
 357 0 342 0 324 0 c 2
 50 0 l 2
 32 0 16 0 16 18 c 0
 16 35 35 35 43 35 c 0
 100 35 105 42 105 92 c 2
 105 593 l 2
 105 643 100 650 43 650 c 0
 35 650 16 650 16 667 c 0
 16 685 32 685 50 685 c 2
 364 685 l 2
 482 685 629 637 629 498 c 0
 629 379 543 341 454 325 c 1
 521 217 571 151 578 141 c 0
 602 109 651 43 688 35 c 0
 697 33 703 26 703 18 c 0
 703 0 688 0 670 0 c 2
 532 0 l 2
 509 0 506 0 499 12 c 1
 488 27 464 66 454 82 c 0
 385 188 314 299 304 314 c 1
 268 314 l 1
461 363 m 1
 564 382 594 433 594 498 c 0
 594 599 495 630 454 639 c 1
 486 598 492 545 492 497 c 0
 492 453 489 400 461 363 c 1
268 596 m 2
 268 349 l 1
 426 349 457 368 457 497 c 0
 457 615 415 650 330 650 c 0
 268 650 268 617 268 596 c 2
132 35 m 1
 241 35 l 1
 233 53 233 80 233 90 c 2
 233 599 l 2
 233 614 233 634 246 650 c 1
 132 650 l 1
 140 632 140 605 140 595 c 2
 140 90 l 2
 140 81 140 53 132 35 c 1
345 314 m 1
 525 35 l 1
 622 35 l 1
 539 118 431 296 416 320 c 1
 401 318 379 316 364 316 c 0
 356 316 352 315 345 314 c 1
EndSplineSet
EndChar
StartChar: uni2124
Encoding: 8484 8484 208
Width: 666
Flags: W
HStem: 0 35<77 575> 650 35<113 166 114 413 114 556>
DStem: 79 656 113 650 64 521 108 605 413 650 454 650 37 36 77 35 556 650 596 649 179 35 220 35
Fore
596 649 m 1
 220 35 l 1
 362 35 l 2
 504 35 582 131 599 213 c 0
 602 233 604 243 619 243 c 0
 627 243 636 236 636 225 c 1
 609 28 l 1
 605 2 605 0 575 0 c 2
 62 0 l 2
 44 0 28 0 28 18 c 0
 28 21 28 23 37 36 c 1
 413 650 l 1
 332 650 l 2
 298 650 228 647 171 610 c 0
 110 572 101 528 97 504 c 0
 95 496 89 489 80 489 c 0
 73 489 62 494 62 508 c 1
 64 521 l 1
 79 656 l 2
 82 682 82 685 114 685 c 2
 572 685 l 2
 590 685 605 685 605 667 c 0
 605 664 605 662 596 649 c 1
113 650 m 1
 108 605 l 1
 120 616 139 634 166 649 c 1
 166 650 l 1
 113 650 l 1
454 650 m 1
 77 35 l 1
 179 35 l 1
 556 650 l 1
 454 650 l 1
507 36 m 1
 507 35 l 1
 575 35 l 1
 580 71 582 82 584 102 c 1
 561 74 535 52 507 36 c 1
EndSplineSet
EndChar
StartChar: uni219D
Encoding: 8605 8605 209
Width: 1000
Flags: W
HStem: 118 40<500 510> 230 40<733.409 859> 343 40<167 174>
Fore
747 270 m 2
 859 270 l 1
 811 305 775 353 752 413 c 0
 752 414 751 415 751 417 c 0
 751 423 756 428 763 428 c 2
 771 428 l 2
 775 428 780 425 781 421 c 0
 810 345 862 291 938 260 c 0
 942 259 944 255 944 250 c 0
 944 245 942 241 938 240 c 0
 862 209 810 155 781 79 c 0
 780 75 775 72 771 72 c 2
 762 72 l 2
 756 72 751 77 751 83 c 0
 751 85 752 86 752 87 c 0
 775 147 811 195 859 230 c 1
 747 230 l 2
 708 230 673 205 635 178 c 0
 595 148 552 118 500 118 c 0
 424 118 369 179 318 237 c 0
 270 292 224 343 167 343 c 0
 109 343 64 292 15 237 c 0
 11 232 6 230 0 230 c 0
 -10 230 -19 239 -19 250 c 0
 -19 255 -17 260 -14 263 c 0
 36 321 90 383 167 383 c 0
 243 383 297 321 348 263 c 0
 397 208 442 158 500 158 c 0
 539 158 574 183 612 210 c 0
 652 239 695 270 747 270 c 2
EndSplineSet
EndChar
StartChar: dagger
Encoding: 8224 8224 210
Width: 511
Flags: W
HStem: 388 111<121 129 390 401> 682 20G<245 265>
VStem: 200 111<140.151 270 643 654>
Fore
270 428 m 1
 273 405 281 380 288 359 c 0
 311 289 311 277 311 231 c 0
 311 20 281 -188 279 -200 c 0
 276 -211 266 -211 255 -211 c 0
 246 -211 238 -211 235 -204 c 0
 232 -200 228 -172 226 -156 c 0
 210 -28 200 102 200 231 c 0
 200 274 200 289 221 353 c 0
 228 373 238 401 241 428 c 1
 228 425 219 423 186 407 c 0
 166 397 142 388 121 388 c 0
 84 388 64 415 64 444 c 0
 64 469 80 499 121 499 c 0
 148 499 177 485 201 473 c 0
 220 464 231 461 241 459 c 1
 238 486 231 509 221 542 c 0
 211 574 200 610 200 643 c 0
 200 689 234 702 256 702 c 0
 274 702 311 692 311 643 c 0
 311 610 300 573 289 537 c 0
 280 510 273 487 270 459 c 1
 283 462 292 464 325 480 c 0
 345 490 369 499 390 499 c 0
 427 499 447 472 447 443 c 0
 447 418 431 388 390 388 c 0
 363 388 334 402 310 414 c 0
 291 423 280 426 270 428 c 1
EndSplineSet
EndChar
StartChar: daggerdbl
Encoding: 8225 8225 211
Width: 511
Flags: W
HStem: -202 21G<244.5 268> -32 111<121 129 390 401> 421 110<111 129 383 401> 682 20G<243 266.5>
VStem: 200 111<-144 -137 191 199 295.499 311 644 646>
Fore
271 460 m 1
 274 441 275 435 287 402 c 0
 297 375 311 339 311 308 c 0
 311 266 281 250 255 250 c 0
 234 250 200 264 200 308 c 0
 200 336 210 367 223 401 c 0
 236 434 237 442 240 460 c 1
 224 456 219 455 199 445 c 0
 150 421 134 421 121 421 c 0
 70 421 64 463 64 476 c 0
 64 504 83 531 120 531 c 0
 148 531 176 518 200 506 c 0
 219 497 225 496 240 492 c 1
 237 511 236 517 224 550 c 0
 214 577 200 613 200 644 c 0
 200 686 230 702 256 702 c 0
 277 702 311 688 311 644 c 0
 311 616 301 585 288 551 c 0
 275 518 274 510 271 492 c 1
 288 496 294 498 326 513 c 0
 350 525 373 531 391 531 c 0
 428 531 447 504 447 476 c 0
 447 463 441 421 390 421 c 0
 370 421 353 425 311 446 c 0
 292 455 286 456 271 460 c 1
271 8 m 1
 274 -11 275 -18 289 -55 c 0
 300 -85 311 -116 311 -144 c 0
 311 -186 281 -202 255 -202 c 0
 234 -202 200 -188 200 -144 c 0
 200 -123 206 -98 220 -62 c 0
 236 -18 237 -12 240 8 c 1
 224 4 208 -3 186 -13 c 0
 166 -23 142 -32 121 -32 c 0
 84 -32 64 -5 64 24 c 0
 64 49 80 79 121 79 c 0
 147 79 175 66 201 54 c 0
 216 46 227 42 240 39 c 1
 237 58 236 65 222 102 c 0
 211 132 200 163 200 191 c 0
 200 233 230 249 256 249 c 0
 277 249 311 235 311 191 c 0
 311 170 305 145 291 109 c 0
 275 65 274 59 271 39 c 1
 285 43 297 47 325 60 c 0
 345 70 369 79 390 79 c 0
 427 79 447 52 447 23 c 0
 447 -2 431 -32 390 -32 c 0
 369 -32 345 -23 327 -14 c 0
 304 -4 289 3 271 8 c 1
EndSplineSet
EndChar
StartChar: uni2219
Encoding: 8729 8729 212
Width: 500
Flags: W
HStem: 424 20G<195.5 302.5>
Fore
443 250 m 0
 443 145 358 56 249 56 c 0
 144 56 56 143 56 250 c 0
 56 355 141 444 250 444 c 0
 355 444 443 357 443 250 c 0
EndSplineSet
EndChar
StartChar: uni2237
Encoding: 8759 8759 213
Width: 477
Flags: W
HStem: 0 106<323.5 352.5> 325 106<323.5 352.5>
VStem: 85 106 285 106<38.5 67.5 363.5 392.5>
Fore
391.5 378 m 0
 391.5 349 367.5 325 338.5 325 c 0
 309.5 325 285.5 349 285.5 378 c 0
 285.5 407 309.5 431 338.5 431 c 0
 367.5 431 391.5 407 391.5 378 c 0
391.5 53 m 0
 391.5 24 367.5 0 338.5 0 c 0
 309.5 0 285.5 24 285.5 53 c 0
 285.5 82 309.5 106 338.5 106 c 0
 367.5 106 391.5 82 391.5 53 c 0
191.5 378 m 0
 191.5 349 167.5 325 138.5 325 c 0
 109.5 325 85.5 349 85.5 378 c 0
 85.5 407 109.5 431 138.5 431 c 0
 167.5 431 191.5 407 191.5 378 c 0
191.5 53 m 0
 191.5 24 167.5 0 138.5 0 c 0
 109.5 0 85.5 24 85.5 53 c 0
 85.5 82 109.5 106 138.5 106 c 0
 167.5 106 191.5 82 191.5 53 c 0
EndSplineSet
EndChar
StartChar: uni27F8
Encoding: 10232 10232 214
Width: 1650
Flags: W
HStem: 133 40<305 934 932.943 1557> 327 40<332 934 932.943 1557>
Fore
922 133 m 2
 332 133 l 1
 413 44 432 -11 432 -13 c 0
 432 -25 421 -25 412 -25 c 0
 406 -25 401 -25 397 -22 c 0
 395 -21 395 -19 384 0 c 0
 335 91 245 192 85 237 c 0
 74 240 69 242 69 250 c 0
 69 258 74 260 86 263 c 0
 244 308 336 409 387 506 c 0
 397 524 397 525 412 525 c 0
 421 525 432 525 432 513 c 0
 432 510 413 455 332 367 c 1
 922 367 l 2
 936 367 955 367 955 347 c 0
 955 327 936 327 921 327 c 2
 305 327 l 2
 289 327 287 327 275 317 c 1
 227 282 181 259 160 250 c 1
 180 241 227 218 274 183 c 0
 287 173 289 173 305 173 c 2
 921 173 l 2
 936 173 955 173 955 153 c 0
 955 133 936 133 922 133 c 2
1547 327 m 2
 950 327 l 2
 935 327 916 327 916 347 c 0
 916 367 935 367 949 367 c 2
 1548 367 l 2
 1562 367 1581 367 1581 347 c 0
 1581 327 1562 327 1547 327 c 2
1548 133 m 2
 949 133 l 2
 935 133 916 133 916 153 c 0
 916 173 935 173 950 173 c 2
 1547 173 l 2
 1562 173 1581 173 1581 153 c 0
 1581 133 1562 133 1548 133 c 2
EndSplineSet
EndChar
StartChar: uni27F9
Encoding: 10233 10233 215
Width: 1650
Flags: W
HStem: 133 40<87.943 712 709.943 1316> 327 40<87.943 712 709.943 1316>
Fore
1343 327 m 6
 727 327 l 6
 712 327 693 327 693 347 c 4
 693 367 712 367 726 367 c 6
 1316 367 l 5
 1235 456 1216 511 1216 513 c 4
 1216 525 1227 525 1236 525 c 4
 1242 525 1247 525 1251 522 c 4
 1253 521 1253 519 1264 500 c 4
 1313 409 1403 308 1563 263 c 4
 1574 260 1579 258 1579 250 c 4
 1579 242 1574 240 1562 237 c 4
 1404 192 1312 91 1261 -6 c 4
 1251 -24 1251 -25 1236 -25 c 4
 1227 -25 1216 -25 1216 -13 c 4
 1216 -10 1235 45 1316 133 c 5
 726 133 l 6
 712 133 693 133 693 153 c 4
 693 173 712 173 727 173 c 6
 1343 173 l 6
 1359 173 1361 173 1373 183 c 5
 1421 218 1467 241 1488 250 c 5
 1468 259 1421 282 1374 317 c 4
 1361 327 1359 327 1343 327 c 6
702 327 m 6
 105 327 l 6
 90 327 71 327 71 347 c 4
 71 367 90 367 104 367 c 6
 703 367 l 6
 717 367 736 367 736 347 c 4
 736 327 717 327 702 327 c 6
703 133 m 6
 104 133 l 6
 90 133 71 133 71 153 c 4
 71 173 90 173 105 173 c 6
 702 173 l 6
 717 173 736 173 736 153 c 4
 736 133 717 133 703 133 c 6
EndSplineSet
EndChar
StartChar: uni27F6
Encoding: 10230 10230 216
Width: 1650
Flags: W
HStem: 230 40<104.97 687 687 687 687 1470.5>
VStem: 668.5 38<230 270>
Fore
1470.5 230 m 5
 701.5 230 l 6
 686.5 230 668.5 230 668.5 250 c 4
 668.5 270 686.5 270 701.5 270 c 6
 1470.5 270 l 5
 1395.5 325 1362.5 408 1362.5 416 c 4
 1362.5 425 1370.5 428 1377.5 428 c 4
 1388.5 428 1390.5 423 1394.5 414 c 4
 1435.5 322 1493.5 285 1547.5 260 c 4
 1548.5 260 1554.5 257 1554.5 250 c 4
 1554.5 243 1552.5 242 1540.5 236 c 4
 1440.5 189 1408.5 116 1393.5 82 c 4
 1391.5 78 1389.5 72 1377.5 72 c 4
 1370.5 72 1362.5 75 1362.5 84 c 4
 1362.5 92 1395.5 175 1470.5 230 c 5
673.5 230 m 6
 128.5 230 l 6
 114.5 230 95.5 230 95.5 250 c 4
 95.5 270 114.5 270 128.5 270 c 6
 673.5 270 l 6
 687.5 270 706.5 270 706.5 250 c 4
 706.5 230 687.5 230 673.5 230 c 6
EndSplineSet
EndChar
StartChar: uni27F5
Encoding: 10229 10229 217
Width: 1650
Flags: W
HStem: 230 40<177.5 958.5 962.195 1538.5>
Fore
946.5 230 m 6
 177.5 230 l 5
 252.5 175 285.5 92 285.5 84 c 4
 285.5 75 277.5 72 270.5 72 c 4
 259.5 72 257.5 77 253.5 86 c 4
 226.5 144 188.5 198 105.5 237 c 4
 98.5 241 93.5 243 93.5 250 c 4
 93.5 257 96.5 258 107.5 264 c 4
 207.5 311 239.5 383 254.5 418 c 4
 256.5 422 258.5 428 270.5 428 c 4
 277.5 428 285.5 425 285.5 416 c 4
 285.5 408 252.5 325 177.5 270 c 5
 946.5 270 l 6
 961.5 270 979.5 270 979.5 250 c 4
 979.5 230 961.5 230 946.5 230 c 6
1523.5 230 m 6
 978.5 230 l 6
 964.5 230 945.5 230 945.5 250 c 4
 945.5 270 964.5 270 978.5 270 c 6
 1523.5 270 l 6
 1537.5 270 1556.5 270 1556.5 250 c 4
 1556.5 230 1537.5 230 1523.5 230 c 6
EndSplineSet
EndChar
StartChar: uni27F7
Encoding: 10231 10231 218
Width: 1650
Flags: W
HStem: 230 40<141 922 713.255 1498>
Fore
910 230 m 6
 141 230 l 5
 216 175 249 92 249 84 c 4
 249 75 241 72 234 72 c 4
 223 72 221 77 217 86 c 4
 190 144 152 198 69 237 c 4
 62 241 57 243 57 250 c 4
 57 257 60 258 71 264 c 4
 171 311 203 383 218 418 c 4
 220 422 222 428 234 428 c 4
 241 428 249 425 249 416 c 4
 249 408 216 325 141 270 c 5
 910 270 l 6
 925 270 943 270 943 250 c 4
 943 230 925 230 910 230 c 6
1499 230 m 5
 730 230 l 6
 715 230 697 230 697 250 c 4
 697 270 715 270 730 270 c 6
 1499 270 l 5
 1424 325 1391 408 1391 416 c 4
 1391 425 1399 428 1406 428 c 4
 1417 428 1419 423 1423 414 c 4
 1464 322 1522 285 1576 260 c 4
 1577 260 1583 257 1583 250 c 4
 1583 243 1581 242 1569 236 c 4
 1469 189 1437 116 1422 82 c 4
 1420 78 1418 72 1406 72 c 4
 1399 72 1391 75 1391 84 c 4
 1391 92 1424 175 1499 230 c 5
EndSplineSet
EndChar
StartChar: uni27FA
Encoding: 10234 10234 219
Width: 1650
Flags: W
HStem: 133 40<299.5 928.5 717.443 1323.5> 327 40<326.5 928.5 717.443 1323.5>
Fore
916.5 133 m 6
 326.5 133 l 5
 407.5 44 426.5 -11 426.5 -13 c 4
 426.5 -25 415.5 -25 406.5 -25 c 4
 400.5 -25 395.5 -25 391.5 -22 c 4
 389.5 -21 389.5 -19 378.5 0 c 4
 329.5 91 239.5 192 79.5 237 c 4
 68.5 240 63.5 242 63.5 250 c 4
 63.5 258 68.5 260 80.5 263 c 4
 238.5 308 330.5 409 381.5 506 c 4
 391.5 524 391.5 525 406.5 525 c 4
 415.5 525 426.5 525 426.5 513 c 4
 426.5 510 407.5 455 326.5 367 c 5
 916.5 367 l 6
 930.5 367 949.5 367 949.5 347 c 4
 949.5 327 930.5 327 915.5 327 c 6
 299.5 327 l 6
 283.5 327 281.5 327 269.5 317 c 5
 221.5 282 175.5 259 154.5 250 c 5
 174.5 241 221.5 218 268.5 183 c 4
 281.5 173 283.5 173 299.5 173 c 6
 915.5 173 l 6
 930.5 173 949.5 173 949.5 153 c 4
 949.5 133 930.5 133 916.5 133 c 6
1350.5 327 m 6
 734.5 327 l 6
 719.5 327 700.5 327 700.5 347 c 4
 700.5 367 719.5 367 733.5 367 c 6
 1323.5 367 l 5
 1242.5 456 1223.5 511 1223.5 513 c 4
 1223.5 525 1234.5 525 1243.5 525 c 4
 1249.5 525 1254.5 525 1258.5 522 c 4
 1260.5 521 1260.5 519 1271.5 500 c 4
 1320.5 409 1410.5 308 1570.5 263 c 4
 1581.5 260 1586.5 258 1586.5 250 c 4
 1586.5 242 1581.5 240 1569.5 237 c 4
 1411.5 192 1319.5 91 1268.5 -6 c 4
 1258.5 -24 1258.5 -25 1243.5 -25 c 4
 1234.5 -25 1223.5 -25 1223.5 -13 c 4
 1223.5 -10 1242.5 45 1323.5 133 c 5
 733.5 133 l 6
 719.5 133 700.5 133 700.5 153 c 4
 700.5 173 719.5 173 734.5 173 c 6
 1350.5 173 l 6
 1366.5 173 1368.5 173 1380.5 183 c 5
 1428.5 218 1474.5 241 1495.5 250 c 5
 1475.5 259 1428.5 282 1381.5 317 c 4
 1368.5 327 1366.5 327 1350.5 327 c 6
EndSplineSet
EndChar
StartChar: uni27FC
Encoding: 10236 10236 220
Width: 1650
Flags: W
HStem: 230 40<115.75 122.75 144.2 706.75 706.75 706.75 706.75 1490.25> 416 20G<85.75 105.75>
VStem: 75.75 40<73.4705 230 270 426.53> 115.25 28.5<230 270> 688.25 38<230 270>
Fore
693.25 230 m 6xd8
 148.25 230 l 6
 134.25 230 115.25 230 115.25 250 c 4
 115.25 270 134.25 270 148.25 270 c 6
 693.25 270 l 6
 707.25 270 726.25 270 726.25 250 c 4
 726.25 230 707.25 230 693.25 230 c 6xd8
1490.25 230 m 5
 721.25 230 l 6
 706.25 230 688.25 230 688.25 250 c 4
 688.25 270 706.25 270 721.25 270 c 6
 1490.25 270 l 5
 1415.25 325 1382.25 408 1382.25 416 c 4
 1382.25 425 1390.25 428 1397.25 428 c 4
 1408.25 428 1410.25 423 1414.25 414 c 4
 1455.25 322 1513.25 285 1567.25 260 c 4
 1568.25 260 1574.25 257 1574.25 250 c 4
 1574.25 243 1572.25 242 1560.25 236 c 4
 1460.25 189 1428.25 116 1413.25 82 c 4
 1411.25 78 1409.25 72 1397.25 72 c 4
 1390.25 72 1382.25 75 1382.25 84 c 4
 1382.25 92 1415.25 175 1490.25 230 c 5
115.75 230 m 5xe8
 115.75 97 l 6
 115.75 83 115.75 64 95.75 64 c 4
 75.75 64 75.75 83 75.75 97 c 6
 75.75 403 l 6
 75.75 417 75.75 436 95.75 436 c 4
 115.75 436 115.75 417 115.75 403 c 6
 115.75 270 l 5xe8
 122.75 270 143.75 270 143.75 250 c 4xd8
 143.75 230 122.75 230 115.75 230 c 5xe8
EndSplineSet
EndChar
StartChar: uni21A6
Encoding: 8614 8614 221
Width: 1000
Flags: W
HStem: 230 40<72.255 857 96 107.686> 416 20<66 86>
VStem: 56 40<80.6953 230 97 417> 56 68<97 257>
Fore
96 230 m 5xe0
 96 97 l 6
 96 83 96 64 76 64 c 4
 56 64 56 83 56 97 c 6
 56 403 l 6
 56 417 56 436 76 436 c 4
 96 436 96 417 96 403 c 6
 96 270 l 5xe0
 103 270 124 270 124 250 c 4xd0
 124 230 103 230 96 230 c 5xe0
858 230 m 5
 89 230 l 6
 74 230 56 230 56 250 c 4
 56 270 74 270 89 270 c 6
 858 270 l 5
 783 325 750 408 750 416 c 4
 750 425 758 428 765 428 c 4
 776 428 778 423 782 414 c 4
 823 322 881 285 935 260 c 4
 936 260 942 257 942 250 c 4
 942 243 940 242 928 236 c 4
 828 189 796 116 781 82 c 4
 779 78 777 72 765 72 c 4
 758 72 750 75 750 84 c 4
 750 92 783 175 858 230 c 5
EndSplineSet
EndChar
StartChar: uni21A9
Encoding: 8617 8617 222
Width: 1150
Flags: W
HStem: 230 40<152 933>
VStem: 1042 40<347 359>
Fore
921 230 m 6
 152 230 l 5
 227 175 260 92 260 84 c 4
 260 75 252 72 245 72 c 4
 234 72 232 77 228 86 c 4
 201 144 163 198 80 237 c 4
 73 241 68 243 68 250 c 4
 68 257 71 258 82 264 c 4
 182 311 214 383 229 418 c 4
 231 422 233 428 245 428 c 4
 252 428 260 425 260 416 c 4
 260 408 227 325 152 270 c 5
 921 270 l 6
 936 270 954 270 954 250 c 4
 954 230 936 230 921 230 c 6
1082 347 m 4
 1082 268 1000 230 940 230 c 4
 935 230 915 230 915 250 c 4
 915 251 915 269 936 270 c 4
 1010 273 1042 310 1042 347 c 4
 1042 377 1020 420 935 424 c 4
 921 425 915 435 915 444 c 4
 915 464 935 464 940 464 c 4
 1000 464 1082 426 1082 347 c 4
EndSplineSet
EndChar
StartChar: uni21AA
Encoding: 8618 8618 223
Width: 1150
Flags: W
HStem: 230 40<210.255 995>
VStem: 70 40<347 359>
Fore
996 230 m 5
 227 230 l 6
 212 230 194 230 194 250 c 4
 194 270 212 270 227 270 c 6
 996 270 l 5
 921 325 888 408 888 416 c 4
 888 425 896 428 903 428 c 4
 914 428 916 423 920 414 c 4
 961 322 1019 285 1073 260 c 4
 1074 260 1080 257 1080 250 c 4
 1080 243 1078 242 1066 236 c 4
 966 189 934 116 919 82 c 4
 917 78 915 72 903 72 c 4
 896 72 888 75 888 84 c 4
 888 92 921 175 996 230 c 5
237 250 m 4
 237 230 217 230 212 230 c 4
 152 230 70 268 70 347 c 4
 70 426 152 464 212 464 c 4
 217 464 237 464 237 444 c 4
 237 443 237 425 216 424 c 4
 142 421 110 384 110 347 c 4
 110 317 132 274 217 270 c 4
 231 269 237 259 237 250 c 4
EndSplineSet
EndChar
StartChar: uni21BD
Encoding: 8637 8637 224
Width: 1000
Flags: W
HStem: -11 21G<280 291.5> 230 40<83 920>
Fore
908 230 m 2
 148 230 l 1
 193 192 216 166 238 135 c 0
 285 72 307 6 307 0 c 0
 307 -11 295 -11 288 -11 c 0
 272 -11 271 -9 267 2 c 0
 242 61 197 159 65 238 c 0
 57 243 55 245 55 255 c 0
 55 270 61 270 83 270 c 2
 908 270 l 2
 926 270 944 270 944 250 c 0
 944 230 926 230 908 230 c 2
EndSplineSet
EndChar
StartChar: uni21BC
Encoding: 8636 8636 225
Width: 1000
Flags: W
HStem: 230 40<148 920>
Fore
908 230 m 2
 83 230 l 2
 61 230 55 230 55 245 c 0
 55 256 57 257 66 263 c 0
 135 304 213 369 262 488 c 0
 270 506 271 507 273 508 c 0
 277 511 281 511 288 511 c 0
 295 511 307 511 307 500 c 0
 307 493 285 427 238 365 c 0
 209 325 184 300 148 270 c 1
 908 270 l 2
 926 270 944 270 944 250 c 0
 944 230 926 230 908 230 c 2
EndSplineSet
EndChar
StartChar: uni21C0
Encoding: 8640 8640 226
Width: 1000
Flags: W
HStem: 230 40<71.9596 851>
Fore
916 230 m 2
 91 230 l 2
 73 230 55 230 55 250 c 0
 55 270 73 270 91 270 c 2
 851 270 l 1
 806 308 783 334 761 365 c 0
 714 428 692 494 692 500 c 0
 692 511 704 511 711 511 c 0
 727 511 728 509 733 497 c 0
 748 459 795 346 925 268 c 1
 943 256 944 255 944 246 c 0
 944 230 938 230 916 230 c 2
EndSplineSet
EndChar
StartChar: uni21C1
Encoding: 8641 8641 227
Width: 1000
Flags: W
HStem: -11 21G<707.5 714.5> 230 40<71.9596 851>
Fore
851 230 m 1
 91 230 l 2
 73 230 55 230 55 250 c 0
 55 270 73 270 91 270 c 2
 916 270 l 2
 938 270 944 270 944 254 c 0
 944 244 941 242 935 239 c 0
 880 206 791 144 736 12 c 0
 729 -6 728 -7 726 -8 c 0
 722 -11 718 -11 711 -11 c 0
 704 -11 692 -11 692 0 c 0
 692 7 714 73 761 135 c 0
 790 175 815 200 851 230 c 1
EndSplineSet
EndChar
StartChar: uni21CC
Encoding: 8652 8652 228
Width: 1000
Flags: W
HStem: -110 21<280 291.5> 131 40<83 920> 326 40<71.9596 851>
Fore
908 131 m 6
 148 131 l 5
 193 93 216 67 238 36 c 4
 285 -27 307 -93 307 -99 c 4
 307 -110 295 -110 288 -110 c 4
 272 -110 271 -108 267 -97 c 4
 242 -38 197 60 65 139 c 4
 57 144 55 146 55 156 c 4
 55 171 61 171 83 171 c 6
 908 171 l 6
 926 171 944 171 944 151 c 4
 944 131 926 131 908 131 c 6
916 326 m 6
 91 326 l 6
 73 326 55 326 55 346 c 4
 55 366 73 366 91 366 c 6
 851 366 l 5
 806 404 783 430 761 461 c 4
 714 524 692 590 692 596 c 4
 692 607 704 607 711 607 c 4
 727 607 728 605 733 593 c 4
 748 555 795 442 925 364 c 5
 943 352 944 351 944 342 c 4
 944 326 938 326 916 326 c 6
EndSplineSet
EndChar
StartChar: uni2308
Encoding: 8968 8968 229
Width: 444
Flags: W
HStem: 710 40<208 399>
VStem: 174 40<-232.615 710>
Fore
389 710 m 2
 214 710 l 1
 214 -217 l 2
 214 -231 214 -250 194 -250 c 0
 174 -250 174 -230 174 -216 c 2
 174 716 l 2
 174 746 178 750 208 750 c 2
 389 750 l 2
 404 750 422 750 422 730 c 0
 422 710 404 710 389 710 c 2
EndSplineSet
EndChar
StartChar: uni2309
Encoding: 8969 8969 230
Width: 444
Flags: W
HStem: 710 40<37.255 229>
VStem: 229 40<-232.615 710>
Fore
269 717 m 2
 269 -217 l 2
 269 -231 269 -250 249 -250 c 0
 229 -250 229 -230 229 -216 c 2
 229 710 l 1
 54 710 l 2
 39 710 21 710 21 730 c 0
 21 750 39 750 54 750 c 2
 236 750 l 2
 265 750 269 746 269 717 c 2
EndSplineSet
EndChar
StartChar: uni230A
Encoding: 8970 8970 231
Width: 444
Flags: W
HStem: -250 40<213 399>
VStem: 174 40<-216 727>
Fore
389 -250 m 2
 208 -250 l 2
 178 -250 174 -246 174 -216 c 2
 174 716 l 2
 174 730 174 750 194 750 c 0
 214 750 214 731 214 717 c 2
 214 -210 l 1
 389 -210 l 2
 404 -210 422 -210 422 -230 c 0
 422 -250 404 -250 389 -250 c 2
EndSplineSet
EndChar
StartChar: uni230B
Encoding: 8971 8971 232
Width: 444
Flags: W
HStem: -250 40<37.255 229>
VStem: 229 40<-211 727>
Fore
269 717 m 2
 269 -217 l 2
 269 -246 265 -250 236 -250 c 2
 54 -250 l 2
 39 -250 21 -250 21 -230 c 0
 21 -210 39 -210 54 -210 c 2
 229 -210 l 1
 229 716 l 2
 229 730 229 750 249 750 c 0
 269 750 269 731 269 717 c 2
EndSplineSet
EndChar
StartChar: uni27E8
Encoding: 10216 10216 233
Width: 388
Flags: W
VStem: 110 222
Fore
327 712 m 1
 151 250 l 1
 327 -212 l 1
 332 -224 332 -229 332 -230 c 0
 332 -241 323 -250 312 -250 c 0
 298 -250 295 -240 290 -228 c 1
 115 232 l 1
 110 244 110 249 110 250 c 0
 110 251 110 256 115 268 c 1
 291 730 l 2
 295 741 299 750 312 750 c 0
 323 750 332 741 332 730 c 0
 332 729 332 724 327 712 c 1
EndSplineSet
EndChar
StartChar: uni27E9
Encoding: 10217 10217 234
Width: 329
Flags: W
VStem: 21 281<-127 303 -127 -127>
Fore
73 757 m 1
 302 303 l 1
 73 -152 l 1
 21 -127 l 1
 236 303 l 1
 21 733 l 1
 73 757 l 1
EndSplineSet
EndChar
StartChar: uni22A4
Encoding: 8868 8868 235
Width: 777
Flags: W
HStem: 0 21G<379 399> 626 40<73.3851 369 90 697>
VStem: 369 40<17.3851 627>
Fore
409 626 m 1
 409 33 l 2
 409 19 409 0 389 0 c 0
 369 0 369 20 369 34 c 2
 369 626 l 1
 90 626 l 2
 76 626 56 626 56 646 c 0
 56 666 75 666 90 666 c 2
 689 666 l 2
 703 666 722 666 722 646 c 0
 722 626 703 626 689 626 c 2
 409 626 l 1
EndSplineSet
EndChar
StartChar: uni2127
Encoding: 8487 8487 236
Width: 722
Flags: W
HStem: -21 21<361 381> 611 72<78 232 471 605>
VStem: 56 207<228 248.51> 569 98<228 236>
Fore
644 683 m 1
 678 514 l 1
 653 514 l 1
 632 620 641 611 552 611 c 2
 491 611 l 1
 527 479 667 367 667 228 c 0
 667 30 491 -21 361 -21 c 0
 231 -21 56 30 56 228 c 0
 56 367 195 479 232 611 c 1
 170 611 l 2
 81 611 90 620 69 514 c 1
 44 514 l 1
 78 683 l 1
 251 683 l 2
 258 683 263 678 263 672 c 0
 263 520 153 380 153 228 c 0
 153 73 259 0 361 0 c 0
 463 0 569 73 569 228 c 0
 569 380 460 520 460 672 c 0
 460 678 465 683 471 683 c 2
 644 683 l 1
EndSplineSet
EndChar
StartChar: uni2210
Encoding: 8720 8720 237
Width: 944
VWidth: 1800
Flags: W
HStem: -200 40<56 79.8466 256 887> 760 40<56 79.8466 56 359 584 607.847 584 887>
VStem: 159 97<-102.415 697> 687 97<-160 697>
Fore
784 681 m 2
 784 -81 l 2
 784 -111 784 -160 887 -160 c 1
 887 -200 l 1
 56 -200 l 1
 56 -160 l 1
 159 -160 159 -111 159 -81 c 2
 159 681 l 2
 159 711 159 760 56 760 c 1
 56 800 l 1
 359 800 l 1
 359 760 l 1
 256 760 256 711 256 681 c 2
 256 -160 l 1
 687 -160 l 1
 687 681 l 2
 687 711 687 760 584 760 c 1
 584 800 l 1
 887 800 l 1
 887 760 l 1
 784 760 784 711 784 681 c 2
EndSplineSet
EndChar
StartChar: SF100000
Encoding: 9472 9472 238
Width: 777
Flags: W
HStem: 230 40<99.6953 676>
Fore
661 230 m 2
 116 230 l 2
 102 230 83 230 83 250 c 0
 83 270 102 270 116 270 c 2
 661 270 l 2
 675 270 694 270 694 250 c 0
 694 230 675 230 661 230 c 2
EndSplineSet
EndChar
StartChar: SF430000
Encoding: 9552 9552 239
Width: 777
Flags: W
HStem: 133 40<72.943 697> 327 40<72.943 697>
Fore
687 327 m 2
 90 327 l 2
 75 327 56 327 56 347 c 0
 56 367 75 367 89 367 c 2
 688 367 l 2
 702 367 721 367 721 347 c 0
 721 327 702 327 687 327 c 2
688 133 m 2
 89 133 l 2
 75 133 56 133 56 153 c 0
 56 173 75 173 90 173 c 2
 687 173 l 2
 702 173 721 173 721 153 c 0
 721 133 702 133 688 133 c 2
EndSplineSet
EndChar
StartChar: uni266D
Encoding: 9837 9837 240
Width: 388
Flags: W
HStem: -22 21G<61.5 73> 424 36<182 198>
VStem: 55 25<6 363 6 731> 252 81<321 331>
Fore
80 722 m 2
 80 418 l 1
 100 437 140 460 196 460 c 0
 278 460 333 395 333 321 c 0
 333 238 292 168 237 109 c 0
 182 50 78 -22 68 -22 c 0
 55 -22 55 -14 55 6 c 2
 55 722 l 2
 55 742 55 750 68 750 c 0
 80 750 80 741 80 722 c 2
80 343 m 2
 80 16 l 1
 104 36 252 163 252 321 c 0
 252 370 234 424 188 424 c 0
 187 424 144 424 113 406 c 0
 80 387 80 366 80 343 c 2
EndSplineSet
EndChar
StartChar: uni266E
Encoding: 9838 9838 241
Width: 388
Flags: W
VStem: 79 25<-53 355 -53 712> 284 25<-202 -6 75 484>
Fore
309 484 m 2
 309 -188 l 2
 309 -207 309 -217 295 -217 c 0
 284 -217 284 -208 284 -189 c 2
 284 -6 l 1
 106 -76 l 2
 96 -80 94 -80 90 -80 c 0
 79 -80 79 -71 79 -53 c 2
 79 699 l 2
 79 718 79 728 93 728 c 0
 104 728 104 719 104 700 c 2
 104 437 l 1
 282 507 l 2
 292 511 294 511 298 511 c 0
 309 511 309 502 309 484 c 2
104 6 m 1
 284 76 l 1
 284 425 l 1
 104 355 l 1
 104 6 l 1
EndSplineSet
EndChar
StartChar: uni266F
Encoding: 9839 9839 242
Width: 388
Flags: W
VStem: 98 25<-201 -71 10 368 441 649> 265 25<-153 -19 63 421 494 697> 265 68<53 71 484 502>
Fore
265 -19 m 1xc0
 123 -63 l 1
 123 -188 l 2
 123 -207 123 -216 109 -216 c 0
 98 -216 98 -207 98 -189 c 2
 98 -71 l 1
 93 -73 71 -80 66 -80 c 0
 55 -80 55 -71 55 -53 c 2
 55 -28 l 2
 55 -4 56 -3 68 1 c 0
 70 2 94 9 98 10 c 1
 98 360 l 1
 93 358 71 351 66 351 c 0
 55 351 55 360 55 378 c 2
 55 403 l 2
 55 427 56 428 68 432 c 0
 70 433 94 440 98 441 c 1
 98 635 l 2
 98 654 98 663 112 663 c 0
 123 663 123 655 123 636 c 2
 123 450 l 1
 265 494 l 1
 265 688 l 2
 265 707 265 716 279 716 c 0
 290 716 290 707 290 689 c 2
 290 502 l 1xc0
 295 504 317 511 322 511 c 0
 333 511 333 502 333 484 c 2
 333 459 l 2xa0
 333 435 332 434 320 430 c 0
 318 429 294 422 290 421 c 1
 290 71 l 1xc0
 295 73 317 80 322 80 c 0
 333 80 333 71 333 53 c 2
 333 28 l 2xa0
 333 4 332 3 320 -1 c 0
 318 -2 294 -9 290 -10 c 1
 290 -135 l 2
 290 -154 290 -163 276 -163 c 0
 265 -163 265 -155 265 -136 c 2
 265 -19 l 1xc0
265 412 m 1
 123 368 l 1
 123 19 l 1
 265 63 l 1
 265 412 l 1
EndSplineSet
EndChar
StartChar: Euro
Encoding: 8364 8364 243
Width: 762
Flags: W
HStem: -4 57<468 502> 249 57<77 156 203 588> 361 57<76 147 215 635> 614 57<483 502>
VStem: 145 57<334 349>
Fore
53 361 m 1
 77 418 l 1
 156 418 l 1
 198 569 329 671 483 671 c 0
 573 671 653 638 722 570 c 1
 698 513 l 1
 641 579 567 614 483 614 c 0
 360 614 251 534 215 418 c 1
 583 418 l 1
 658 418 l 1
 635 361 l 1
 203 361 l 1
 202 347 202 341 202 334 c 0
 202 327 202 321 203 306 c 1
 612 306 l 1
 588 249 l 1
 215 249 l 1
 249 135 361 53 482 53 c 0
 566 53 643 89 698 154 c 1
 698 74 l 1
 630 21 561 -4 483 -4 c 0
 329 -4 198 98 156 249 c 1
 54 249 l 1
 78 306 l 1
 147 306 l 1
 145 321 145 328 145 334 c 0
 145 341 145 346 147 361 c 1
 53 361 l 1
EndSplineSet
EndChar
StartChar: uni2423
Encoding: 9251 9251 244
Width: 525
Flags: W
HStem: -132 43<86 445>
VStem: 44 43<-97 221> 437 43<-89 221>
Fore
480 206 m 2
 480 -97 l 2
 480 -127 475 -132 445 -132 c 2
 79 -132 l 2
 49 -132 44 -127 44 -97 c 2
 44 206 l 2
 44 223 44 240 65 240 c 0
 87 240 87 224 87 206 c 2
 87 -89 l 1
 437 -89 l 1
 437 206 l 2
 437 223 437 240 458 240 c 0
 480 240 480 224 480 206 c 2
EndSplineSet
EndChar
StartChar: uni2240
Encoding: 8768 8768 245
Width: 277
Flags: W
VStem: 56 56<89 94> 165 56<411 430>
Fore
220 -69 m 0
 220 -76 212 -83 190 -83 c 0
 97 -83 56 5 56 89 c 0
 56 140 73 181 108 247 c 0
 140 306 165 353 165 411 c 0
 165 491 126 551 88 555 c 0
 73 556 57 558 57 569 c 0
 57 577 68 583 87 583 c 0
 180 583 221 495 221 411 c 0
 221 360 204 319 169 253 c 0
 137 194 112 147 112 89 c 0
 112 39 132 -50 197 -55 c 0
 204 -56 220 -59 220 -69 c 0
EndSplineSet
EndChar
StartChar: uni2A06
Encoding: 10758 10758 246
Width: 833
Flags: W
HStem: -200 69<124 727>
VStem: 56 69<-151 761> 707 69<-131 761>
Fore
707 -131 m 1
 707 752 l 2
 707 767 707 800 742 800 c 0
 776 800 776 766 776 752 c 2
 776 -151 l 2
 776 -188 769 -200 727 -200 c 2
 105 -200 l 2
 66 -200 56 -190 56 -151 c 2
 56 752 l 2
 56 767 56 800 91 800 c 0
 125 800 125 766 125 752 c 2
 125 -131 l 1
 707 -131 l 1
EndSplineSet
EndChar
StartChar: uni2A05
Encoding: 10757 10757 247
Width: 833
VWidth: 1800
Flags: W
HStem: -200 21G<79.5 98 733.5 752> 733 67<89 709>
VStem: 55 67<-167 733> 709 67<-167 733>
Fore
122 -167 m 2
 122 -185 107 -200 89 -200 c 0
 70 -200 55 -185 55 -167 c 2
 55 767 l 2
 55 785 70 800 89 800 c 2
 743 800 l 2
 761 800 776 785 776 767 c 2
 776 -167 l 2
 776 -185 761 -200 743 -200 c 0
 724 -200 709 -185 709 -167 c 2
 709 733 l 1
 122 733 l 1
 122 -167 l 2
EndSplineSet
EndChar
StartChar: uni2294
Encoding: 8852 8852 248
Width: 666
Flags: W
HStem: 0 40<100 571>
VStem: 61 40<34 577> 565 40<40 577>
Fore
605 565 m 2
 605 33 l 2
 605 4 601 0 571 0 c 2
 95 0 l 2
 65 0 61 4 61 34 c 2
 61 565 l 2
 61 579 61 598 81 598 c 0
 101 598 101 579 101 565 c 2
 101 40 l 1
 565 40 l 1
 565 565 l 2
 565 579 565 598 585 598 c 0
 605 598 605 579 605 565 c 2
EndSplineSet
EndChar
StartChar: uni2293
Encoding: 8851 8851 249
Width: 666
Flags: W
HStem: 0 21G<71 91 575 595> 558 40<94 565>
VStem: 61 40<17.3851 558> 565 40<17.3851 558>
Fore
605 565 m 2
 605 33 l 2
 605 19 605 0 585 0 c 0
 565 0 565 20 565 34 c 2
 565 558 l 1
 101 558 l 1
 101 33 l 2
 101 19 101 0 81 0 c 0
 61 0 61 20 61 34 c 2
 61 565 l 2
 61 594 65 598 94 598 c 2
 572 598 l 2
 601 598 605 594 605 565 c 2
EndSplineSet
EndChar
StartChar: uni228F
Encoding: 8847 8847 250
Width: 777
Flags: W
HStem: -40 40<123 676> 499 40<119 676>
VStem: 83 40<-5 499>
Fore
659 499 m 2
 123 499 l 1
 123 0 l 1
 658 0 l 2
 675 0 694 0 694 -20 c 0
 694 -40 676 -40 659 -40 c 2
 118 -40 l 2
 86 -40 83 -36 83 -5 c 2
 83 503 l 2
 83 536 87 539 119 539 c 2
 659 539 l 2
 676 539 694 539 694 519 c 0
 694 499 676 499 659 499 c 2
EndSplineSet
EndChar
StartChar: uni2290
Encoding: 8848 8848 251
Width: 777
Flags: W
HStem: -40 40<80.409 674> 499 40<79.7511 674>
VStem: 674 40<-1 504>
Fore
714 504 m 2
 714 -5 l 2
 714 -37 710 -40 679 -40 c 2
 98 -40 l 2
 81 -40 63 -40 63 -20 c 0
 63 0 82 0 99 0 c 2
 674 0 l 1
 674 499 l 1
 98 499 l 2
 81 499 63 499 63 519 c 0
 63 539 81 539 98 539 c 2
 679 539 l 2
 711 539 714 535 714 504 c 2
EndSplineSet
EndChar
StartChar: uni2292
Encoding: 8850 8850 252
Width: 777
Flags: W
HStem: -137 40<80.3851 672> 57 40<79.943 643> 596 40<79.6953 643>
VStem: 643 40<96 603>
Fore
683 603 m 2
 683 90 l 2
 683 61 679 57 650 57 c 2
 96 57 l 2
 82 57 63 57 63 77 c 0
 63 97 82 97 97 97 c 2
 643 97 l 1
 643 596 l 1
 96 596 l 2
 82 596 63 596 63 616 c 0
 63 636 82 636 96 636 c 2
 650 636 l 2
 679 636 683 632 683 603 c 2
97 -97 m 2
 660 -97 l 2
 675 -97 694 -97 694 -117 c 0
 694 -137 675 -137 661 -137 c 2
 96 -137 l 2
 82 -137 63 -137 63 -117 c 0
 63 -97 83 -97 97 -97 c 2
EndSplineSet
EndChar
StartChar: uni2291
Encoding: 8849 8849 253
Width: 777
Flags: W
HStem: -137 40<99.943 692> 57 40<134 692> 596 40<128 692>
VStem: 94 40<90 596>
Fore
681 596 m 2
 134 596 l 1
 134 97 l 1
 680 97 l 2
 695 97 714 97 714 77 c 0
 714 57 695 57 681 57 c 2
 127 57 l 2
 98 57 94 61 94 90 c 2
 94 602 l 2
 94 632 98 636 128 636 c 2
 681 636 l 2
 695 636 714 636 714 616 c 0
 714 596 695 596 681 596 c 2
681 -137 m 2
 116 -137 l 2
 102 -137 83 -137 83 -117 c 0
 83 -97 102 -97 117 -97 c 2
 680 -97 l 2
 695 -97 714 -97 714 -117 c 0
 714 -137 695 -137 681 -137 c 2
EndSplineSet
EndChar
StartChar: uni228E
Encoding: 8846 8846 254
Width: 666
Flags: W
HStem: -22 40<333 355> 285 40<153.385 313 352 505>
VStem: 56 40<185 571> 313 40<125.623 285 324 475> 570 40<185 571>
Fore
353 285 m 1
 353 142 l 2
 353 128 353 109 333 109 c 0
 313 109 313 128 313 142 c 2
 313 285 l 1
 170 285 l 2
 156 285 136 285 136 305 c 0
 136 325 155 325 170 325 c 2
 313 325 l 1
 313 469 l 2
 313 484 313 502 333 502 c 0
 353 502 353 484 353 469 c 2
 353 325 l 1
 496 325 l 2
 510 325 530 325 530 305 c 0
 530 285 511 285 496 285 c 2
 353 285 l 1
610 565 m 2
 610 195 l 2
 610 50 464 -22 333 -22 c 0
 202 -22 56 49 56 195 c 2
 56 565 l 2
 56 579 56 598 76 598 c 0
 96 598 96 579 96 565 c 2
 96 198 l 2
 96 64 238 18 333 18 c 0
 429 18 570 65 570 198 c 2
 570 565 l 2
 570 579 570 598 590 598 c 0
 610 598 610 579 610 565 c 2
EndSplineSet
EndChar
StartChar: uni227A
Encoding: 8826 8826 255
Width: 777
Flags: W
HStem: 229 40<99.6953 180>
Fore
116 269 m 2
 133 269 l 2
 225 269 343 280 417 300 c 0
 619 353 644 452 654 521 c 0
 657 536 670 539 674 539 c 0
 684 539 694 531 694 518 c 0
 694 513 690 469 670 430 c 0
 631 353 558 285 373 249 c 1
 525 219 619 165 667 76 c 0
 689 34 694 -12 694 -19 c 0
 694 -33 684 -40 674 -40 c 0
 657 -40 655 -26 653 -14 c 0
 640 70 590 148 440 192 c 0
 340 221 236 229 133 229 c 2
 116 229 l 2
 102 229 83 229 83 249 c 0
 83 269 102 269 116 269 c 2
EndSplineSet
EndChar
StartChar: uni227B
Encoding: 8827 8827 256
Width: 777
Flags: W
HStem: 229 40<644 676>
Fore
661 229 m 2
 644 229 l 2
 546 229 448 222 353 196 c 0
 298 181 148 137 125 -4 c 0
 122 -29 120 -40 103 -40 c 0
 93 -40 83 -33 83 -19 c 0
 83 17 101 61 120 92 c 0
 177 186 295 228 401 248 c 1
 401 249 l 1
 310 267 236 295 178 341 c 0
 86 414 83 516 83 518 c 0
 83 531 93 539 103 539 c 0
 120 539 123 522 124 516 c 0
 136 432 181 347 358 300 c 0
 434 280 552 269 644 269 c 2
 661 269 l 2
 675 269 694 269 694 249 c 0
 694 229 675 229 661 229 c 2
EndSplineSet
EndChar
StartChar: uni227C
Encoding: 8828 8828 257
Width: 777
Flags: W
HStem: -137 40<99.6953 677> 326 40<99.6953 180>
Fore
116 366 m 2
 133 366 l 2
 225 366 343 377 417 397 c 0
 619 450 644 549 654 618 c 0
 657 633 670 636 674 636 c 0
 684 636 694 628 694 615 c 0
 694 610 690 566 670 527 c 0
 631 450 558 382 373 346 c 1
 525 316 619 262 667 173 c 0
 689 131 694 85 694 78 c 0
 694 64 684 57 674 57 c 0
 657 57 655 71 653 83 c 0
 641 158 601 242 440 289 c 0
 340 318 236 326 133 326 c 2
 116 326 l 2
 102 326 83 326 83 346 c 0
 83 366 102 366 116 366 c 2
661 -137 m 2
 116 -137 l 2
 102 -137 83 -137 83 -117 c 0
 83 -97 102 -97 116 -97 c 2
 661 -97 l 2
 675 -97 694 -97 694 -117 c 0
 694 -137 675 -137 661 -137 c 2
EndSplineSet
EndChar
StartChar: uni227D
Encoding: 8829 8829 258
Width: 777
Flags: W
HStem: -137 40<116 676> 326 40<644 676>
Fore
661 326 m 2
 644 326 l 2
 434 326 158 288 126 93 c 0
 122 68 120 57 103 57 c 0
 93 57 83 64 83 78 c 0
 83 114 101 158 120 189 c 0
 177 283 295 325 401 345 c 1
 401 346 l 1
 310 364 236 392 178 438 c 0
 86 511 83 613 83 615 c 0
 83 628 93 636 103 636 c 0
 120 636 123 619 124 613 c 0
 136 529 181 444 358 397 c 0
 434 377 552 366 644 366 c 2
 661 366 l 2
 675 366 694 366 694 346 c 0
 694 326 675 326 661 326 c 2
116 -97 m 2
 661 -97 l 2
 675 -97 694 -97 694 -117 c 0
 694 -137 675 -137 661 -137 c 2
 116 -137 l 2
 102 -137 83 -137 83 -117 c 0
 83 -97 102 -97 116 -97 c 2
EndSplineSet
EndChar
StartChar: uni2322
Encoding: 8994 8994 259
Width: 1000
Flags: W
HStem: 336 45<470 520>
Fore
944 143 m 0
 944 136 938 130 931 130 c 0
 925 130 922 135 919 138 c 0
 898 168 852 233 753 281 c 0
 663 324 572 336 499 336 c 0
 342 336 181 278 88 150 c 0
 76 135 75 134 74 133 c 0
 72 131 70 130 68 130 c 0
 61 130 55 136 55 143 c 0
 55 154 200 381 500 381 c 0
 798 381 944 154 944 143 c 0
EndSplineSet
EndChar
StartChar: uni2323
Encoding: 8995 8995 260
Width: 1000
Flags: W
HStem: 133 45<470 520>
Fore
944 358 m 0
 944 348 801 133 499 133 c 0
 200 133 55 347 55 358 c 0
 55 365 61 371 68 371 c 0
 74 371 77 366 79 363 c 0
 102 334 151 269 259 223 c 0
 362 181 457 178 500 178 c 0
 689 178 833 250 911 351 c 0
 923 366 924 367 925 368 c 0
 927 370 929 371 931 371 c 0
 938 371 944 365 944 358 c 0
EndSplineSet
EndChar
StartChar: uni2A04
Encoding: 10756 10756 261
Width: 833
Flags: W
HStem: -200 69<416 441> 293 69<231 382 450 601>
VStem: 56 69<135 761> 382 69<143 293 361 505> 707 69<135 761>
Fore
451 293 m 1
 451 158 l 2
 451 141 451 106 416 106 c 0
 382 106 382 138 382 152 c 2
 382 293 l 1
 246 293 l 2
 229 293 194 293 194 328 c 0
 194 362 227 362 241 362 c 2
 382 362 l 1
 382 503 l 2
 382 517 382 550 416 550 c 0
 451 550 451 515 451 497 c 2
 451 362 l 1
 591 362 l 2
 605 362 638 362 638 328 c 0
 638 293 603 293 586 293 c 2
 451 293 l 1
776 752 m 2
 776 145 l 2
 776 -49 611 -200 416 -200 c 0
 221 -200 56 -49 56 145 c 2
 56 752 l 2
 56 767 56 800 91 800 c 0
 125 800 125 766 125 752 c 2
 125 149 l 2
 125 -21 267 -131 416 -131 c 0
 565 -131 707 -20 707 149 c 2
 707 752 l 2
 707 767 707 800 742 800 c 0
 776 800 776 766 776 752 c 2
EndSplineSet
EndChar
StartChar: uni22C3
Encoding: 8899 8899 262
Width: 833
Flags: W
HStem: -200 69<416 441>
VStem: 56 69<135 761> 707 69<135 761>
Fore
707 149 m 2
 707 752 l 2
 707 767 707 800 742 800 c 0
 776 800 776 766 776 752 c 2
 776 145 l 2
 776 -49 611 -200 416 -200 c 0
 221 -200 56 -49 56 145 c 2
 56 752 l 2
 56 767 56 800 91 800 c 0
 125 800 125 766 125 752 c 2
 125 149 l 2
 125 -21 267 -131 416 -131 c 0
 565 -131 707 -20 707 149 c 2
EndSplineSet
EndChar
StartChar: uni22C2
Encoding: 8898 8898 263
Width: 833
Flags: W
HStem: -200 21G<73 107.5 724 758.5> 731 69<416 441>
VStem: 56 69<-152 473> 707 69<-152 473>
Fore
776 455 m 2
 776 -152 l 2
 776 -167 776 -200 741 -200 c 0
 707 -200 707 -166 707 -152 c 2
 707 451 l 2
 707 621 565 731 416 731 c 0
 267 731 125 620 125 451 c 2
 125 -152 l 2
 125 -167 125 -200 90 -200 c 0
 56 -200 56 -166 56 -152 c 2
 56 455 l 2
 56 649 221 800 416 800 c 0
 611 800 776 649 776 455 c 2
EndSplineSet
EndChar
StartChar: uni22C0
Encoding: 8896 8896 264
Width: 833
Flags: W
HStem: -200 21G<81.5 99 729.5 750.5>
DStem: 381 768 416 661 61 -144 126 -170 416 661 452 767 705 -165 771 -144
Fore
416 661 m 1
 126 -170 l 2
 119 -190 108 -200 90 -200 c 0
 73 -200 56 -186 56 -165 c 0
 56 -164 56 -158 61 -144 c 2
 381 768 l 2
 386 783 392 800 416 800 c 0
 441 800 447 781 452 767 c 2
 771 -144 l 2
 776 -158 776 -164 776 -165 c 0
 776 -186 759 -200 742 -200 c 0
 717 -200 711 -182 705 -165 c 2
 416 661 l 1
EndSplineSet
EndChar
StartChar: uni22C1
Encoding: 8897 8897 265
Width: 833
Flags: W
HStem: -200 21G<405 428>
DStem: 61 744 127 765 379 -166 416 -61 706 770 771 744 416 -61 451 -168
Fore
416 -61 m 1
 706 770 l 2
 713 790 724 800 742 800 c 0
 759 800 776 786 776 765 c 0
 776 764 776 758 771 744 c 2
 451 -168 l 2
 446 -183 440 -200 416 -200 c 0
 394 -200 385 -184 379 -166 c 2
 61 744 l 2
 56 758 56 763 56 765 c 0
 56 786 73 800 90 800 c 0
 115 800 121 782 127 765 c 2
 416 -61 l 1
EndSplineSet
EndChar
StartChar: lozenge
Encoding: 9674 9674 266
Width: 666
Flags: W
HStem: -133 58<331 335>
DStem: 63 274 100 291 311 -116 332 -75 311 699 333 659 65 311 100 291 333 659 355 699 566 292 603 309 566 292 601 272 334 -75 355 -116
Fore
601 272 m 1
 355 -116 l 2
 349 -125 344 -133 333 -133 c 0
 322 -133 317 -125 311 -116 c 2
 63 274 l 1
 63 275 56 285 56 291 c 0
 56 296 56 298 65 311 c 1
 311 699 l 2
 317 708 322 716 333 716 c 0
 344 716 349 708 355 699 c 2
 603 309 l 1
 603 308 610 298 610 292 c 0
 610 287 610 285 601 272 c 1
100 291 m 1
 332 -75 l 1
 334 -75 l 1
 566 292 l 1
 333 659 l 1
 100 291 l 1
EndSplineSet
EndChar
StartChar: dotlessi
Encoding: 305 305 267
Width: 322
Flags: W
HStem: -11 22<156 175> -11 164<162 281> 420 22<156 167>
VStem: 80 60<44 71> 183 60<360 388>
Fore
208 249 m 1xb8
 169 144 l 2
 146 83 140 69 140 44 c 0
 140 21 147 11 164 11 c 0xb8
 215 11 248 72 266 135 c 0
 271 150 271 153 281 153 c 0x78
 284 153 293 153 293 143 c 0
 293 134 256 -11 162 -11 c 0
 114 -11 80 24 80 71 c 0
 80 92 93 125 103 151 c 0
 119 194 164 310 172 336 c 0
 176 346 183 367 183 388 c 0
 183 420 166 420 158 420 c 0
 124 420 84 390 57 296 c 0
 52 280 51 278 41 278 c 0
 39 278 29 278 29 288 c 0
 29 297 67 442 161 442 c 0
 211 442 243 405 243 360 c 0
 243 341 238 327 230 307 c 0
 220 280 220 278 208 249 c 1xb8
EndSplineSet
EndChar
StartChar: uni2A3F
Encoding: 10815 10815 268
Width: 750
Flags: W
HStem: 0 31<62 85 222 698> 652 28<181 308 569 696>
VStem: 139 83<63 625> 527 83<31 625>
Fore
610 606 m 2
 610 77 l 2
 610 38 610 31 684 31 c 0
 707 31 713 31 713 15 c 0
 713 0 706 0 687 0 c 2
 62 0 l 2
 43 0 36 0 36 15 c 0
 36 31 42 31 62 31 c 0
 139 31 139 38 139 77 c 2
 139 606 l 2
 139 645 139 652 65 652 c 0
 42 652 36 652 36 668 c 0
 36 683 45 683 53 683 c 0
 95 683 139 680 181 680 c 0
 223 680 267 683 308 683 c 0
 316 683 325 683 325 668 c 0
 325 652 319 652 299 652 c 0
 222 652 222 645 222 606 c 2
 222 31 l 1
 527 31 l 1
 527 606 l 2
 527 645 527 652 453 652 c 0
 430 652 424 652 424 668 c 0
 424 683 433 683 441 683 c 0
 483 683 527 680 569 680 c 0
 611 680 655 683 696 683 c 0
 704 683 713 683 713 668 c 0
 713 652 707 652 687 652 c 0
 610 652 610 645 610 606 c 2
EndSplineSet
EndChar
StartChar: uni03F1
Encoding: 1009 1009 269
Width: 517
Flags: W
HStem: -11 22<241.834 258> 420 22<349 367>
VStem: 430 72<279 322>
Fore
33 -173 m 2
 131 220 l 1
 161 342 266 442 363 442 c 0
 436 442 502 385 502 279 c 0
 502 130 373 -11 256 -11 c 0
 209 -11 177 16 157 56 c 1
 130 -52 98 -186 93 -195 c 0
 91 -198 79 -216 58 -216 c 0
 41 -216 30 -204 30 -189 c 0
 30 -187 30 -185 33 -173 c 2
255 11 m 0
 293 11 341 43 374 106 c 0
 401 155 430 267 430 322 c 0
 430 391 398 420 361 420 c 0
 330 420 280 398 237 325 c 1
 215 285 205 249 177 137 c 0
 174 124 169 104 169 100 c 0
 169 91 185 11 255 11 c 0
EndSplineSet
EndChar
StartChar: uni03F5
Encoding: 1013 1013 270
Width: 405
Flags: W
HStem: -11 22<201 248.5> 226 31<141 298> 400 31<311 312 312 343>
VStem: 47 75<123 158.5>
Fore
298 226 m 2
 133 226 l 1
 130 214 122 176 122 141 c 0
 122 53 172 11 230 11 c 0
 267 11 304 28 335 48 c 0
 344 54 346 54 348 54 c 0
 357 54 358 43 358 40 c 0
 358 29 293 -11 228 -11 c 0
 122 -11 47 68 47 178 c 0
 47 331 181 431 311 431 c 2
 346 431 l 2
 363 431 376 431 376 417 c 0
 376 400 360 400 343 400 c 2
 312 400 l 2
 221 400 165 342 141 257 c 1
 303 257 l 2
 320 257 332 257 332 243 c 0
 332 226 314 226 298 226 c 2
EndSplineSet
EndChar
StartChar: arrowupdn
Encoding: 8597 8597 271
Width: 500
Flags: W
HStem: -272 21<246.5 252> 752 20<247 253.5>
VStem: 230 40<-187 687>
Fore
270 687 m 1
 270 -187 l 1
 330 -108 411 -79 416 -79 c 0
 426 -79 428 -88 428 -94 c 0
 428 -106 424 -108 417 -111 c 0
 324 -151 287 -207 260 -265 c 0
 258 -269 254 -272 250 -272 c 0
 243 -272 241 -268 237 -259 c 0
 192 -163 128 -130 82 -110 c 0
 75 -107 72 -104 72 -94 c 0
 72 -88 74 -79 84 -79 c 0
 90 -79 171 -109 230 -187 c 1
 230 687 l 1
 170 608 89 579 84 579 c 0
 74 579 72 588 72 594 c 0
 72 606 76 608 83 611 c 0
 111 623 188 656 234 752 c 0
 243 771 244 772 250 772 c 0
 257 772 259 768 263 759 c 0
 310 657 384 625 418 610 c 0
 425 607 428 604 428 594 c 0
 428 588 426 579 416 579 c 0
 410 579 329 609 270 687 c 1
EndSplineSet
EndChar
StartChar: uni21D5
Encoding: 8661 8661 272
Width: 611
Flags: W
VStem: 188 40<-50 590> 382 40<-90 550>
Fore
422 550 m 1
 422 -50 l 1
 483 2 560 36 568 36 c 0
 580 36 580 24 580 16 c 0
 580 6 580 1 570 -4 c 0
 478 -44 380 -111 319 -255 c 0
 313 -269 312 -272 305 -272 c 0
 302 -272 297 -271 294 -264 c 0
 274 -216 218 -83 51 -8 c 0
 31 1 30 2 30 16 c 0
 30 24 30 36 42 36 c 0
 50 36 127 2 188 -50 c 1
 188 550 l 1
 127 498 50 464 42 464 c 0
 30 464 30 476 30 484 c 0
 30 494 30 499 40 504 c 0
 132 544 230 611 291 755 c 0
 297 769 298 772 305 772 c 0
 308 772 313 771 316 764 c 0
 336 716 392 583 559 508 c 0
 579 499 580 498 580 484 c 0
 580 476 580 464 568 464 c 0
 560 464 483 498 422 550 c 1
228 590 m 1
 228 -90 l 1
 253 -116 277 -147 305 -195 c 1
 333 -147 357 -115 382 -90 c 1
 382 590 l 1
 357 616 333 647 305 695 c 1
 277 647 253 615 228 590 c 1
EndSplineSet
EndChar
StartChar: uni2216
Encoding: 8726 8726 273
Width: 500
Flags: W
VStem: 56 387<-108.96 564.96 564.96 564.96>
Fore
401 -107.556 m 6
 61 552.324 l 6
 56 561.45 56 563.556 56 564.96 c 4
 56 572.682 65 579 76 579 c 4
 90 579 94 571.278 98 563.556 c 6
 438 -96.3242 l 6
 443 -105.45 443 -107.556 443 -108.96 c 4
 443 -116.682 434 -123 423 -123 c 4
 409 -123 405 -115.278 401 -107.556 c 6
EndSplineSet
EndChar
StartChar: uni2218
Encoding: 8728 8728 274
Width: 500
Flags: W
HStem: 56 40<232.239 265> 404 40<232.239 265>
VStem: 56 40<232.404 265> 403 40<232.316 265>
Fore
443 250 m 0
 443 145 358 56 249 56 c 0
 144 56 56 143 56 250 c 0
 56 355 141 444 250 444 c 0
 355 444 443 357 443 250 c 0
250 96 m 0
 334 96 403 165 403 250 c 0
 403 335 334 404 250 404 c 0
 163 404 96 333 96 250 c 0
 96 167 163 96 250 96 c 0
EndSplineSet
EndChar
StartChar: uni22B2
Encoding: 8882 8882 275
Width: 777
Flags: W
HStem: -38 50 488 51
VStem: 654 40<12 488 488 488>
Fore
95 268 m 2
 666 537 l 2
 669 538 671 539 674 539 c 0
 686 539 694 530 694 519 c 2
 694 -18 l 2
 694 -29 686 -38 674 -38 c 0
 671 -38 669 -37 666 -36 c 2
 95 232 l 2
 88 235 83 242 83 250 c 0
 83 258 88 265 95 268 c 2
150 250 m 1
 654 12 l 1
 654 488 l 1
 150 250 l 1
EndSplineSet
EndChar
StartChar: uni22B3
Encoding: 8883 8883 276
Width: 777
Flags: W
HStem: -38 50 488 51
VStem: 83 40<12 488>
Fore
683 232 m 2
 112 -36 l 2
 109 -37 106 -38 103 -38 c 0
 92 -38 83 -29 83 -18 c 2
 83 519 l 2
 83 530 92 539 103 539 c 0
 106 539 109 538 112 537 c 2
 683 268 l 2
 690 265 694 258 694 250 c 0
 694 242 690 235 683 232 c 2
628 250 m 1
 123 488 l 1
 123 12 l 1
 628 250 l 1
EndSplineSet
EndChar
StartChar: uni22B4
Encoding: 8884 8884 277
Width: 777
Flags: W
HStem: -135 40<103 674> 58 51 584 52
VStem: 654 40<109 584 584 584>
Fore
95 365 m 2
 666 634 l 2
 669 635 671 636 674 636 c 0
 686 636 694 627 694 616 c 2
 694 78 l 2
 694 67 686 58 674 58 c 0
 671 58 669 58 666 60 c 2
 95 329 l 2
 88 332 83 339 83 347 c 0
 83 355 88 362 95 365 c 2
150 347 m 1
 654 109 l 1
 654 584 l 1
 150 347 l 1
103 -95 m 2
 674 -95 l 2
 686 -95 694 -104 694 -115 c 0
 694 -126 686 -135 674 -135 c 2
 103 -135 l 2
 92 -135 83 -126 83 -115 c 0
 83 -104 92 -95 103 -95 c 2
EndSplineSet
EndChar
StartChar: uni22B5
Encoding: 8885 8885 278
Width: 777
Flags: W
HStem: -135 40<103 674> 58 51 584 52
VStem: 83 40<109 584>
Fore
683 329 m 2
 112 60 l 2
 109 58 106 58 103 58 c 0
 92 58 83 67 83 78 c 2
 83 616 l 2
 83 627 92 636 103 636 c 0
 106 636 109 635 112 634 c 2
 683 365 l 2
 690 362 694 355 694 347 c 0
 694 339 690 332 683 329 c 2
628 347 m 1
 123 584 l 1
 123 109 l 1
 628 347 l 1
674 -135 m 2
 103 -135 l 2
 92 -135 83 -126 83 -115 c 0
 83 -104 92 -95 103 -95 c 2
 674 -95 l 2
 686 -95 694 -104 694 -115 c 0
 694 -126 686 -135 674 -135 c 2
EndSplineSet
EndChar
StartChar: uni226A
Encoding: 8810 8810 279
Width: 1000
Flags: W
Fore
619 525 m 2
 118 250 l 1
 619 -25 l 2
 632 -32 638 -35 638 -46 c 0
 638 -55 632 -66 618 -66 c 0
 611 -66 605 -63 600 -60 c 2
 74 228 l 2
 64 233 56 238 56 250 c 0
 56 261 61 264 74 271 c 2
 601 560 l 2
 605 562 613 566 618 566 c 0
 627 566 638 559 638 546 c 0
 638 535 632 532 619 525 c 2
924 525 m 2
 423 250 l 1
 924 -25 l 2
 937 -32 943 -35 943 -46 c 0
 943 -55 937 -66 923 -66 c 0
 916 -66 910 -63 905 -60 c 2
 379 228 l 2
 369 233 361 238 361 250 c 0
 361 261 366 264 379 271 c 2
 906 560 l 2
 910 562 918 566 923 566 c 0
 932 566 943 559 943 546 c 0
 943 535 937 532 924 525 c 2
EndSplineSet
EndChar
StartChar: uni226B
Encoding: 8811 8811 280
Width: 1000
Flags: W
Fore
620 229 m 2
 82 -66 l 1
 75 -66 56 -66 56 -46 c 0
 56 -35 62 -32 75 -25 c 2
 576 250 l 1
 75 525 l 2
 62 532 56 535 56 546 c 0
 56 559 67 566 76 566 c 0
 81 566 89 562 93 560 c 2
 620 272 l 2
 630 267 638 262 638 250 c 0
 638 239 633 236 620 229 c 2
925 229 m 2
 387 -66 l 1
 380 -66 361 -66 361 -46 c 0
 361 -35 367 -32 380 -25 c 2
 881 250 l 1
 380 525 l 2
 367 532 361 535 361 546 c 0
 361 559 372 566 381 566 c 0
 386 566 394 562 398 560 c 2
 925 272 l 2
 935 267 943 262 943 250 c 0
 943 239 938 236 925 229 c 2
EndSplineSet
EndChar
StartChar: uni2272
Encoding: 8818 8818 281
Width: 777
Flags: W
HStem: -226 56<537.825 569> -225 232<70 222> -49 56<222 233>
VStem: 56 28<-204 -193> 693 28<-26 -17>
DStem: 103 420 150 442 656 160 674 195 656 726 675 690 103 465 150 442
Fore
675 690 m 2x18
 150 442 l 1
 674 195 l 2
 685 190 694 186 694 173 c 0
 694 162 685 153 674 153 c 0
 671 153 669 153 656 160 c 2
 103 420 l 2
 87 427 83 434 83 442 c 0
 83 450 86 457 103 465 c 2
 656 726 l 2
 660 728 669 732 674 732 c 0
 685 732 694 723 694 712 c 0
 694 701 687 696 675 690 c 2x18
721 -26 m 0
 721 -119 660 -226 555 -226 c 0
 485 -226 433 -180 378 -131 c 0
 333 -91 286 -49 222 -49 c 0xb8
 169 -49 89 -87 84 -202 c 0
 84 -206 81 -225 70 -225 c 0
 62 -225 56 -216 56 -193 c 0
 56 -100 117 7 222 7 c 0x58
 292 7 344 -39 399 -88 c 0
 444 -128 491 -170 555 -170 c 0x98
 627 -170 689 -110 693 -24 c 0
 693 -18 694 6 707 6 c 0
 714 6 721 -3 721 -26 c 0
EndSplineSet
EndChar
StartChar: uni2273
Encoding: 8819 8819 282
Width: 777
Flags: W
HStem: -226 56<537.825 569> -225 232<70 222> -49 56<222 233>
VStem: 56 28<-204 -193> 693 28<-26 -17>
DStem: 103 690 123 725 627 443 674 465 627 443 674 420 102 195 121 160
Fore
674 420 m 2x18
 121 160 l 2
 108 153 106 153 103 153 c 0
 92 153 83 162 83 173 c 0
 83 182 87 188 102 195 c 2
 627 443 l 1
 103 690 l 2
 91 696 83 699 83 712 c 0
 83 723 92 732 103 732 c 0
 105 732 109 732 123 725 c 2
 674 465 l 2
 690 457 694 451 694 442 c 0
 694 434 690 427 674 420 c 2x18
721 -26 m 0
 721 -119 660 -226 555 -226 c 0
 485 -226 433 -180 378 -131 c 0
 333 -91 286 -49 222 -49 c 0xb8
 169 -49 89 -87 84 -202 c 0
 84 -206 81 -225 70 -225 c 0
 62 -225 56 -216 56 -193 c 0
 56 -100 117 7 222 7 c 0x58
 292 7 344 -39 399 -88 c 0
 444 -128 491 -170 555 -170 c 0x98
 627 -170 689 -110 693 -24 c 0
 693 -18 694 6 707 6 c 0
 714 6 721 -3 721 -26 c 0
EndSplineSet
EndChar
StartChar: uni2A85
Encoding: 10885 10885 283
Width: 777
Flags: W
HStem: -287 56<536.126 569> -286 193<70 222> -149 56<222 233> -54 56<536.126 569> -53 193<70 222> 84 56<222 233>
VStem: 56 28<-265 -256 -32 -23>
DStem: 105 480 155 502 655 249 673 285 656 756 671 719 105 525 155 502
Fore
671 719 m 2x02
 155 502 l 1
 673 285 l 2
 684 280 694 276 694 263 c 0
 694 252 685 243 674 243 c 0
 671 243 669 243 655 249 c 2
 105 480 l 2
 94 485 83 489 83 502 c 0
 83 516 93 520 105 525 c 2
 656 756 l 2
 667 760 670 762 674 762 c 0
 685 762 694 753 694 742 c 0
 694 729 685 725 671 719 c 2x02
721 -125 m 0
 721 -213 649 -287 555 -287 c 0
 491 -287 438 -252 395 -224 c 0
 327 -179 282 -149 222 -149 c 0xa2
 169 -149 89 -181 84 -263 c 0
 84 -268 80 -286 70 -286 c 0
 63 -286 56 -278 56 -256 c 0
 56 -165 130 -93 222 -93 c 0x42
 286 -93 339 -128 382 -156 c 0
 450 -201 495 -231 555 -231 c 0x82
 628 -231 688 -181 693 -126 c 0
 694 -111 696 -94 707 -94 c 0
 714 -94 721 -104 721 -125 c 0
721 108 m 0
 721 20 649 -54 555 -54 c 0
 491 -54 438 -19 395 9 c 0
 327 54 282 84 222 84 c 0x16
 169 84 89 52 84 -30 c 0
 84 -35 80 -53 70 -53 c 0
 63 -53 56 -45 56 -23 c 0
 56 68 130 140 222 140 c 0x0a
 286 140 339 105 382 77 c 0
 450 32 495 2 555 2 c 0x12
 628 2 688 52 693 107 c 0
 694 122 696 139 707 139 c 0
 714 139 721 129 721 108 c 0
EndSplineSet
EndChar
StartChar: uni2A86
Encoding: 10886 10886 284
Width: 777
Flags: W
HStem: -287 56<536.126 569> -286 193<70 222> -149 56<222 233> -54 56<536.126 569> -53 193<70 222> 84 56<222 233>
VStem: 56 28<-265 -256 -32 -23>
DStem: 104 720 121 756 622 503 672 525 622 503 672 480 106 286 122 249
Fore
672 480 m 2x02
 122 249 l 2
 108 243 106 243 103 243 c 0
 92 243 83 252 83 263 c 0
 83 276 93 280 106 286 c 2
 622 503 l 1
 104 720 l 2
 92 725 83 729 83 742 c 0
 83 753 92 762 103 762 c 0
 107 762 110 760 121 756 c 2
 672 525 l 2
 684 520 694 516 694 502 c 0
 694 489 683 485 672 480 c 2x02
721 -125 m 0
 721 -213 649 -287 555 -287 c 0
 491 -287 438 -252 395 -224 c 0
 327 -179 282 -149 222 -149 c 0xa2
 169 -149 89 -181 84 -263 c 0
 84 -268 80 -286 70 -286 c 0
 63 -286 56 -278 56 -256 c 0
 56 -165 130 -93 222 -93 c 0x42
 286 -93 339 -128 382 -156 c 0
 450 -201 495 -231 555 -231 c 0x82
 628 -231 688 -181 693 -126 c 0
 694 -111 696 -94 707 -94 c 0
 714 -94 721 -104 721 -125 c 0
721 108 m 0
 721 20 649 -54 555 -54 c 0
 491 -54 438 -19 395 9 c 0
 327 54 282 84 222 84 c 0x16
 169 84 89 52 84 -30 c 0
 84 -35 80 -53 70 -53 c 0
 63 -53 56 -45 56 -23 c 0
 56 68 130 140 222 140 c 0x0a
 286 140 339 105 382 77 c 0
 450 32 495 2 555 2 c 0x12
 628 2 688 52 693 107 c 0
 694 122 696 139 707 139 c 0
 714 139 721 129 721 108 c 0
EndSplineSet
EndChar
StartChar: uni25C3
Encoding: 9667 9667 285
Width: 500
Flags: W
HStem: -5 21G<450.5 463>
VStem: 433 40<50 469>
DStem: 45 227 86 250 434 3 433 50 436 498 433 450 47 273 86 250
Fore
47 273 m 2
 436 498 l 2
 443 502 448 505 453 505 c 0
 473 505 473 487 473 469 c 2
 473 31 l 2
 473 13 473 -5 453 -5 c 0
 448 -5 443 -2 434 3 c 2
 45 227 l 2
 30 235 26 243 26 250 c 0
 26 261 33 265 47 273 c 2
86 250 m 1
 433 50 l 1
 433 450 l 1
 86 250 l 1
EndSplineSet
EndChar
StartChar: uni25B9
Encoding: 9657 9657 286
Width: 500
Flags: W
HStem: -4 21 484 20
VStem: 27 40
Fore
456 228 m 2
 64 2 l 2
 52 -5 49 -5 46 -5 c 0
 26 -5 26 16 26 31 c 2
 26 469 l 2
 26 484 26 505 46 505 c 0
 49 505 53 505 66 497 c 2
 456 272 l 2
 472 263 473 256 473 250 c 0
 473 244 472 237 456 228 c 2
413 250 m 1
 66 450 l 1
 66 50 l 1
 413 250 l 1
EndSplineSet
EndChar
StartChar: uni25B3
Encoding: 9651 9651 287
Width: 722
Flags: W
HStem: -20 40<135 602>
DStem: 338 556 360 509 90 18 135 20 360 509 382 556 586 20 632 16
Fore
382 556 m 2
 632 16 l 2
 636 8 637 4 637 0 c 0
 637 -20 618 -20 602 -20 c 2
 119 -20 l 2
 103 -20 84 -20 84 0 c 0
 84 4 84 6 90 18 c 2
 338 556 l 2
 346 574 354 576 361 576 c 0
 373 576 376 568 382 556 c 2
360 509 m 1
 135 20 l 1
 586 20 l 1
 360 509 l 1
EndSplineSet
EndChar
StartChar: uni225C
Encoding: 8796 8796 288
Width: 777
Flags: W
HStem: 133 40<73.409 697> 327 40<73.409 697> 482 40<229 567>
DStem: 367 842 389 799 183 523 229 522 389 799 411 842 549 522 603 508
Fore
411 842 m 2
 603 508 l 1
 603 482 590 482 567 482 c 2
 211 482 l 2
 193 482 175 482 175 502 c 0
 175 506 175 509 183 523 c 2
 367 842 l 2
 375 856 382 859 389 859 c 0
 396 859 403 856 411 842 c 2
389 799 m 1
 229 522 l 1
 549 522 l 1
 389 799 l 1
92 173 m 2
 686 173 l 2
 704 173 722 173 722 153 c 0
 722 133 704 133 687 133 c 2
 91 133 l 2
 74 133 56 133 56 153 c 0
 56 173 75 173 92 173 c 2
91 367 m 2
 687 367 l 2
 704 367 722 367 722 347 c 0
 722 327 704 327 686 327 c 2
 92 327 l 2
 75 327 56 327 56 347 c 0
 56 367 74 367 91 367 c 2
EndSplineSet
EndChar
StartChar: H22073
Encoding: 9633 9633 289
Width: 747
Flags: W
HStem: 59 40<131 636> 584 40<111 616>
VStem: 91 40<79 584> 616 40<99 604>
Fore
656 604 m 2
 656 79 l 2
 656 68 647 59 636 59 c 2
 111 59 l 2
 100 59 91 68 91 79 c 2
 91 604 l 2
 91 615 100 624 111 624 c 2
 636 624 l 2
 647 624 656 615 656 604 c 2
131 584 m 1
 131 99 l 1
 616 99 l 1
 616 584 l 1
 131 584 l 1
EndSplineSet
EndChar
StartChar: uni22EF
Encoding: 8943 8943 290
Width: 1000
Flags: W
HStem: 199 113<123.764 210.236 456.764 543.236 789.764 876.236>
VStem: 111 112<211.306 299.236> 444 112<211.306 299.236> 777 112<211.306 299.236>
CounterMasks: 1 70
Fore
168 312 m 0
 197 312 223 286 223 256 c 0
 223 225 198 199 167 199 c 0
 136 199 111 225 111 256 c 0
 111 287 137 312 168 312 c 0
501 312 m 0
 530 312 556 286 556 256 c 0
 556 225 531 199 500 199 c 0
 469 199 444 225 444 256 c 0
 444 287 470 312 501 312 c 0
834 312 m 0
 863 312 889 286 889 256 c 0
 889 225 864 199 833 199 c 0
 802 199 777 225 777 256 c 0
 777 287 803 312 834 312 c 0
EndSplineSet
EndChar
StartChar: uni222E
Encoding: 8750 8750 291
Width: 472
VWidth: 1800
Flags: W
HStem: -311 22<166 168> -311 126<98 166> 674 21G<557.5 577> 778 22<487 505>
VStem: 56 83<-232 -225> 153 40<245 250> 486 40<232 250> 526 83<712 719>
DStem: 314 389 393 381 285 108 365 100
Fore
359 58 m 1xbf
 343 -78 336 -134 314 -190 c 0
 289 -252 244 -311 166 -311 c 0xbf
 106 -311 56 -276 56 -228 c 0
 56 -198 78 -185 98 -185 c 0x7f
 117 -185 139 -198 139 -227 c 0
 139 -241 131 -264 102 -268 c 1
 123 -286 153 -289 166 -289 c 0
 243 -289 261 -197 271 -88 c 0
 273 -68 276 -36 283 67 c 1
 198 95 153 171 153 245 c 0
 153 327 211 415 320 431 c 1
 341 604 348 635 361 674 c 0
 381 732 419 800 499 800 c 0
 559 800 609 765 609 717 c 0
 609 687 587 674 567 674 c 0
 548 674 526 687 526 716 c 0
 526 730 534 753 563 757 c 1
 541 776 510 778 500 778 c 0
 433 778 418 693 408 583 c 0
 407 564 403 527 396 422 c 1
 481 394 526 318 526 244 c 0
 526 162 468 74 359 58 c 1xbf
285 108 m 1
 314 389 l 1
 243 375 193 313 193 245 c 0
 193 176 239 128 285 108 c 1
393 381 m 1
 365 100 l 1
 434 113 486 173 486 245 c 0
 486 308 445 360 393 381 c 1
EndSplineSet
EndChar
StartChar: uni2662
Encoding: 9826 9826 292
Width: 777
Flags: W
Fore
722 282 m 0
 722 275 718 270 714 265 c 1
 709 261 698 251 694 247 c 0
 620 178 504 45 412 -141 c 0
 404 -157 401 -163 389 -163 c 0
 377 -163 372 -154 370 -149 c 0
 255 85 119 214 64 265 c 0
 59 270 56 276 56 282 c 0
 56 288 59 294 64 299 c 0
 69 303 80 313 84 317 c 0
 158 386 274 519 366 705 c 0
 374 721 377 727 389 727 c 0
 401 727 406 718 408 713 c 0
 524 477 662 347 713 300 c 0
 718 295 722 290 722 282 c 0
389 -98 m 1
 521 151 666 277 672 282 c 1
 667 287 521 413 389 662 c 1
 257 413 112 287 106 282 c 1
 111 277 257 151 389 -98 c 1
EndSplineSet
EndChar
StartChar: uni2661
Encoding: 9825 9825 293
Width: 777
Flags: W
HStem: 676 40<222 238 556 569>
VStem: 56 40<489 516> 682 40<489 516>
Fore
389 605 m 1
 429 684 497 716 556 716 c 0
 672 716 722 616 722 489 c 0
 722 338 611 231 508 133 c 0
 451 80 432 42 409 -16 c 0
 407 -22 403 -33 389 -33 c 0
 379 -33 373 -26 371 -21 c 0
 331 77 310 97 238 163 c 0
 143 252 56 359 56 489 c 0
 56 611 103 716 222 716 c 0
 279 716 348 686 389 605 c 1
389 40 m 1
 428 113 446 131 485 168 c 0
 591 268 682 361 682 489 c 0
 682 552 669 676 556 676 c 0
 484 676 425 617 410 541 c 0
 408 527 405 514 389 514 c 0
 373 514 371 526 368 542 c 0
 351 623 290 676 222 676 c 0
 109 676 96 551 96 489 c 0
 96 363 183 270 300 160 c 0
 336 126 354 106 389 40 c 1
EndSplineSet
EndChar
StartChar: uni2299
Encoding: 8857 8857 294
Width: 777
Flags: W
HStem: -83 25<375 409> 181 138<386 393> 558 25<375 409>
VStem: 56 25<250 270> 320 137<238.433 253> 696 25<250 270>
Fore
721 250 m 0
 721 68 573 -83 388 -83 c 0
 207 -83 56 65 56 250 c 0
 56 432 204 583 389 583 c 0
 570 583 721 435 721 250 c 0
389 -58 m 0
 556 -58 696 79 696 250 c 0
 696 419 559 558 388 558 c 0
 221 558 81 421 81 250 c 0
 81 81 218 -58 389 -58 c 0
457 250 m 0
 457 214 428 181 388 181 c 0
 351 181 320 212 320 250 c 0
 320 286 349 319 389 319 c 0
 426 319 457 288 457 250 c 0
EndSplineSet
EndChar
StartChar: uni2296
Encoding: 8854 8854 295
Width: 777
Flags: W
HStem: -83 25<375 409> 238 25<81 696> 558 25<375 409>
Fore
721 250 m 0
 721 68 573 -83 388 -83 c 0
 207 -83 56 65 56 250 c 0
 56 432 204 583 389 583 c 0
 570 583 721 435 721 250 c 0
81 263 m 1
 696 263 l 1
 687 433 549 558 388 558 c 0
 230 558 90 435 81 263 c 1
696 238 m 1
 81 238 l 1
 90 65 230 -58 389 -58 c 0
 545 -58 687 63 696 238 c 1
EndSplineSet
EndChar
StartChar: uni2298
Encoding: 8856 8856 296
Width: 777
Flags: W
HStem: -83 25<352 472.5> 558 25<304.5 425>
VStem: 56 25<214.5 335.5> 696 25<164.5 296.5>
Fore
721 250 m 0
 721 68 573 -83 388 -83 c 0
 207 -83 56 65 56 250 c 0
 56 432 204 583 389 583 c 0
 570 583 721 435 721 250 c 0
162 41 m 1
 597 477 l 1
 536 531 462 558 388 558 c 0
 221 558 81 421 81 250 c 0
 81 179 106 104 162 41 c 1
614 459 m 1
 180 23 l 1
 241 -31 315 -58 389 -58 c 0
 556 -58 696 79 696 250 c 0
 696 343 654 417 614 459 c 1
EndSplineSet
EndChar
StartChar: uni2A01
Encoding: 10753 10753 297
Width: 1111
VWidth: 1800
Flags: W
HStem: -200 21G<417.5 692.5> 266 69<127 521 590 984>
VStem: 521 69<-130 266 335 729>
Fore
1054 300 m 0
 1054 23 830 -200 555 -200 c 0
 280 -200 56 23 56 300 c 0
 56 577 280 800 555 800 c 0
 830 800 1054 577 1054 300 c 0
127 335 m 1
 521 335 l 1
 521 730 l 1
 317 715 142 548 127 335 c 1
590 729 m 1
 590 335 l 1
 983 335 l 1
 968 547 792 716 590 729 c 1
984 266 m 1
 590 266 l 1
 590 -129 l 1
 790 -116 967 49 984 266 c 1
521 -130 m 1
 521 266 l 1
 126 266 l 1
 143 49 319 -115 521 -130 c 1
EndSplineSet
EndChar
StartChar: uni2A02
Encoding: 10754 10754 298
Width: 1111
Flags: W
HStem: -200 69<555 569> 731 69<555 569>
VStem: 56 69<300 329> 985 69<300 329>
DStem: 227 579 277 628 833 -28 883 21 833 628 882 579 227 21 277 -28
Fore
1054 300 m 0
 1054 23 830 -200 555 -200 c 0
 280 -200 56 23 56 300 c 0
 56 577 280 800 555 800 c 0
 830 800 1054 577 1054 300 c 0
277 628 m 1
 555 350 l 1
 833 628 l 1
 758 694 656 731 555 731 c 0
 455 731 353 695 277 628 c 1
227 21 m 1
 506 300 l 1
 227 579 l 1
 147 482 125 379 125 300 c 0
 125 229 142 124 227 21 c 1
882 579 m 1
 604 300 l 1
 883 21 l 1
 963 118 985 221 985 300 c 0
 985 402 949 501 882 579 c 1
833 -28 m 1
 555 250 l 1
 277 -28 l 1
 352 -94 454 -131 555 -131 c 0
 655 -131 757 -95 833 -28 c 1
EndSplineSet
EndChar
StartChar: uni2A00
Encoding: 10752 10752 299
Width: 1111
VWidth: 1800
Flags: W
HStem: -200 69<555 585> 231 138<555 557> 731 69<555 585>
VStem: 56 69<300 329> 486 138<300 313> 985 69<300 329>
Fore
1054 300 m 0
 1054 23 830 -200 555 -200 c 0
 280 -200 56 23 56 300 c 0
 56 577 280 800 555 800 c 0
 830 800 1054 577 1054 300 c 0
555 -131 m 0
 792 -131 985 62 985 300 c 0
 985 538 792 731 555 731 c 0
 318 731 125 538 125 300 c 0
 125 62 318 -131 555 -131 c 0
624 300 m 0
 624 261 594 231 555 231 c 0
 516 231 486 261 486 300 c 0
 486 339 516 369 555 369 c 0
 594 369 624 339 624 300 c 0
EndSplineSet
EndChar
StartChar: uni25C7
Encoding: 9671 9671 300
Width: 500
Flags: W
HStem: 11 21<247 254> 469 20<246 254>
VStem: 11 478<246 253>
Fore
476 229 m 2
 271 24 l 2
 260 13 258 11 250 11 c 0
 244 11 238 14 228 24 c 2
 24 229 l 2
 15 238 11 242 11 250 c 0
 11 256 14 262 24 272 c 2
 229 476 l 2
 238 485 242 489 250 489 c 0
 258 489 260 487 271 476 c 2
 476 271 l 2
 487 260 489 258 489 250 c 0
 489 242 487 240 476 229 c 2
60 250 m 1
 250 60 l 1
 440 250 l 1
 250 440 l 1
 60 250 l 1
EndSplineSet
EndChar
StartChar: uni2243
Encoding: 8771 8771 301
Width: 777
Flags: W
HStem: 36 40<82 697> 250 56<537.206 569> 408 56<223 233>
VStem: 56 28<272 283>
Fore
721 432 m 0
 721 341 656 250 554 250 c 0
 488 250 438 289 372 339 c 0
 334 369 283 408 223 408 c 0
 166 408 89 369 84 274 c 0
 84 271 81 251 70 251 c 0
 63 251 56 259 56 283 c 0
 56 370 120 464 223 464 c 0
 289 464 339 425 405 375 c 0
 443 345 494 306 554 306 c 0
 622 306 689 355 693 436 c 0
 694 448 697 463 707 463 c 0
 714 463 721 455 721 432 c 0
90 76 m 2
 687 76 l 2
 702 76 721 76 721 56 c 0
 721 36 702 36 688 36 c 2
 89 36 l 2
 75 36 56 36 56 56 c 0
 56 76 75 76 90 76 c 2
EndSplineSet
EndChar
StartChar: uni2250
Encoding: 8784 8784 302
Width: 777
Flags: W
HStem: -29 40<72.943 697> 165 40<72.943 697>
Fore
438 380 m 4
 438 351 414 327 385 327 c 4
 356 327 332 351 332 380 c 4
 332 409 356 433 385 433 c 4
 414 433 438 409 438 380 c 4
687 165 m 6
 90 165 l 6
 75 165 56 165 56 185 c 4
 56 205 75 205 89 205 c 6
 688 205 l 6
 702 205 721 205 721 185 c 4
 721 165 702 165 687 165 c 6
688 -29 m 6
 89 -29 l 6
 75 -29 56 -29 56 -9 c 4
 56 11 75 11 90 11 c 6
 687 11 l 6
 702 11 721 11 721 -9 c 4
 721 -29 702 -29 688 -29 c 6
EndSplineSet
EndChar
StartChar: uni2A1D
Encoding: 10781 10781 303
Width: 1000
Flags: W
HStem: -5 21G<95 106.5 892.5 905>
VStem: 85 40<50 450> 875 40<50 450>
Fore
515 228 m 6
 123 2 l 6
 111 -5 108 -5 105 -5 c 4
 85 -5 85 16 85 31 c 6
 85 469 l 6
 85 484 85 505 105 505 c 4
 108 505 112 505 125 497 c 6
 515 272 l 6
 531 263 532 256 532 250 c 4
 532 244 531 237 515 228 c 6
472 250 m 5
 125 450 l 5
 125 50 l 5
 472 250 l 5
489 273 m 2
 878 498 l 2
 885 502 890 505 895 505 c 0
 915 505 915 487 915 469 c 2
 915 31 l 2
 915 13 915 -5 895 -5 c 0
 890 -5 885 -2 876 3 c 2
 487 227 l 2
 472 235 468 243 468 250 c 0
 468 261 475 265 489 273 c 2
528 250 m 1
 875 50 l 1
 875 450 l 1
 528 250 l 1
EndSplineSet
EndChar
StartChar: uni22C8
Encoding: 8904 8904 304
Width: 722
Flags: W
VStem: 63 40<67 569> 619 40<115 617>
DStem: 103 569 97 631 625 52 619 115 625 631 619 569 103 115 97 52
Fore
361 370 m 1
 625 631 l 2
 629 635 634 637 639 637 c 0
 650 637 659 628 659 617 c 2
 659 67 l 2
 659 56 650 47 639 47 c 0
 634 47 629 49 625 52 c 2
 361 314 l 1
 97 52 l 2
 94 49 89 47 83 47 c 0
 72 47 63 56 63 67 c 2
 63 617 l 2
 63 628 72 637 83 637 c 0
 89 637 94 635 97 631 c 1
 361 370 l 1
333 342 m 1
 103 569 l 1
 103 115 l 1
 333 342 l 1
390 342 m 1
 619 115 l 1
 619 569 l 1
 390 342 l 1
EndSplineSet
EndChar
StartChar: uni2225
Encoding: 8741 8741 305
Width: 500
Flags: W
VStem: 132 40<-231.813 727> 327 40<-231.813 727>
Fore
172 718 m 2
 172 -218 l 2
 172 -232 172 -250 152 -250 c 0
 132 -250 132 -229 132 -214 c 2
 132 714 l 2
 132 729 132 750 152 750 c 0
 172 750 172 732 172 718 c 2
367 714 m 2
 367 -214 l 2
 367 -229 367 -250 347 -250 c 0
 327 -250 327 -232 327 -218 c 2
 327 718 l 2
 327 732 327 750 347 750 c 0
 367 750 367 729 367 714 c 2
EndSplineSet
EndChar
StartChar: uni224D
Encoding: 8781 8781 306
Width: 777
Flags: W
HStem: 144 40<375 409> 316 40<375 409>
Fore
721 464 m 0
 721 436 590 367 587 366 c 0
 499 322 429 316 389 316 c 0
 285 316 189 357 105 416 c 0
 70 441 56 451 56 464 c 0
 56 475 65 484 76 484 c 0
 83 484 87 480 97 473 c 0
 136 442 247 356 388 356 c 0
 527 356 635 437 678 472 c 0
 690 481 694 484 701 484 c 0
 712 484 721 475 721 464 c 0
721 36 m 0
 721 25 712 16 701 16 c 0
 694 16 690 20 680 27 c 0
 634 64 526 144 388 144 c 0
 247 144 135 57 99 28 c 0
 87 19 83 16 76 16 c 0
 65 16 56 25 56 36 c 0
 56 64 187 133 190 134 c 0
 283 181 355 184 389 184 c 0
 489 184 585 145 672 84 c 0
 707 59 721 49 721 36 c 0
EndSplineSet
EndChar
StartChar: uni2213
Encoding: 8723 8723 307
Width: 777
Flags: W
HStem: 147 40<72.6953 369 409 697> 460 40<72.6953 369 89 697>
VStem: 369 40<-147.813 147 186 460>
Fore
409 147 m 1
 409 -130 l 2
 409 -145 409 -166 389 -166 c 0
 369 -166 369 -148 369 -134 c 2
 369 147 l 1
 89 147 l 2
 75 147 56 147 56 167 c 0
 56 187 75 187 89 187 c 2
 369 187 l 1
 369 460 l 1
 89 460 l 2
 75 460 56 460 56 480 c 0
 56 500 75 500 89 500 c 2
 688 500 l 2
 702 500 721 500 721 480 c 0
 721 460 702 460 688 460 c 2
 409 460 l 1
 409 187 l 1
 688 187 l 2
 702 187 721 187 721 167 c 0
 721 147 702 147 688 147 c 2
 409 147 l 1
EndSplineSet
EndChar
StartChar: uni22A2
Encoding: 8866 8866 308
Width: 611
Flags: W
HStem: 0 21G<66 86> 327 40<95 537> 674 20G<66 86>
VStem: 56 40<17.3851 327 34 673>
Fore
521 327 m 2
 96 327 l 1
 96 33 l 2
 96 19 96 0 76 0 c 0
 56 0 56 20 56 34 c 2
 56 660 l 2
 56 674 56 694 76 694 c 0
 96 694 96 675 96 661 c 2
 96 367 l 1
 521 367 l 2
 535 367 554 367 554 347 c 0
 554 327 535 327 521 327 c 2
EndSplineSet
EndChar
StartChar: uni22A3
Encoding: 8867 8867 309
Width: 611
Flags: W
HStem: 0 21G<524 544> 327 40<73.3851 514> 674 20G<524 544>
VStem: 514 40<17.3851 327 366 673>
Fore
554 661 m 2
 554 33 l 2
 554 19 554 0 534 0 c 0
 514 0 514 20 514 34 c 2
 514 327 l 1
 90 327 l 2
 76 327 56 327 56 347 c 0
 56 367 75 367 90 367 c 2
 514 367 l 1
 514 660 l 2
 514 674 514 694 534 694 c 0
 554 694 554 675 554 661 c 2
EndSplineSet
EndChar
